<svg width="160" height="48" viewBox="0 0 160 48" fill="none" xmlns="http://www.w3.org/2000/svg">
<g clip-path="url(#clip0_50_7556)">
<path d="M49.4307 41.9061L48.3462 38.6525H41.116L40.0315 41.9061H36.1582L42.4588 23.8307H46.9001L53.2523 41.9061H49.4307ZM42.2522 35.2956H47.21L44.7311 27.9106L42.2522 35.2956Z" fill="white"/>
<path d="M54.9043 41.9061V23.056H58.2612V41.9061H54.9043Z" fill="white"/>
<path d="M75.5624 28.6336C77.0601 28.6336 78.1963 29.0983 79.0742 30.0796C79.9522 31.0608 80.417 32.3519 80.417 33.9529V41.906H77.1118V34.1595C77.1118 33.3848 76.9052 32.7651 76.5437 32.3519C76.1822 31.9388 75.6141 31.7322 74.9427 31.7322C74.168 31.7322 73.6 31.9904 73.1868 32.5068C72.7737 33.0233 72.5671 33.7463 72.5671 34.6759V41.906H69.2619V34.1595C69.2619 33.3848 69.0553 32.7651 68.6938 32.3519C68.3323 31.9388 67.7642 31.7322 67.0928 31.7322C66.3698 31.7322 65.7501 31.9904 65.2853 32.5068C64.8721 33.0233 64.6656 33.7463 64.6656 34.6759V41.906H61.3604V28.9951H64.6656V30.3378C65.4402 29.2016 66.628 28.5819 68.2806 28.5819C69.8816 28.5819 71.0178 29.2016 71.7924 30.4411C72.5671 29.2533 73.8582 28.6336 75.5624 28.6336Z" fill="white"/>
<path d="M93.0695 28.9951H96.3747V41.906H93.0695V40.3567C92.0883 41.5962 90.6423 42.2675 88.8347 42.2675C87.1305 42.2675 85.6328 41.5962 84.3934 40.3051C83.1539 38.9623 82.5342 37.3614 82.5342 35.4506C82.5342 33.5397 83.1539 31.9388 84.3934 30.596C85.6328 29.2533 87.1305 28.5819 88.8347 28.5819C90.6423 28.5819 92.0367 29.2016 93.0695 30.4927V28.9951ZM86.9239 38.0844C87.5953 38.7558 88.4216 39.1173 89.4545 39.1173C90.4873 39.1173 91.3653 38.8074 92.0367 38.0844C92.708 37.413 93.0695 36.5351 93.0695 35.4506C93.0695 34.366 92.708 33.4881 92.0367 32.8684C91.3653 32.197 90.4873 31.8355 89.4545 31.8355C88.4216 31.8355 87.5953 32.197 86.9239 32.8684C86.2525 33.5397 85.9427 34.4177 85.9427 35.4506C85.9427 36.4834 86.2525 37.413 86.9239 38.0844Z" fill="white"/>
<path d="M103.14 38.4976H110.008V41.9061H99.5762V23.8307H103.14V38.4976Z" fill="white"/>
<path d="M113.573 27.4457C113.005 27.4457 112.54 27.2391 112.127 26.8776C111.713 26.4645 111.507 25.9997 111.507 25.4316C111.507 24.8635 111.713 24.3987 112.127 23.9856C112.54 23.5724 113.005 23.3658 113.573 23.3658C114.141 23.3658 114.605 23.5724 115.019 23.9856C115.432 24.3987 115.638 24.8635 115.638 25.4316C115.638 25.9997 115.432 26.4645 115.019 26.8776C114.605 27.2391 114.141 27.4457 113.573 27.4457ZM111.92 41.906V28.995H115.277V41.906H111.92Z" fill="white"/>
<path d="M125.45 28.6335C126.844 28.6335 128.032 29.0983 128.962 30.0796C129.891 31.0092 130.356 32.3519 130.356 34.0045V41.906H127.051V34.366C127.051 33.4881 126.793 32.8683 126.328 32.4036C125.863 31.9388 125.244 31.6805 124.469 31.6805C123.591 31.6805 122.92 31.9388 122.403 32.5068C121.887 33.0749 121.628 33.8496 121.628 34.9341V41.906H118.323V28.9951H121.628V30.4411C122.455 29.2533 123.694 28.6335 125.45 28.6335Z" fill="white"/>
<path d="M141.718 28.9951H145.075V41.9061H141.718V40.4601C140.892 41.6479 139.652 42.2676 137.897 42.2676C136.502 42.2676 135.314 41.8028 134.385 40.8216C133.455 39.892 133.042 38.5492 133.042 36.8966V28.9951H136.399V36.4835C136.399 37.3614 136.605 38.0328 137.07 38.4976C137.535 38.9624 138.155 39.169 138.929 39.169C139.807 39.169 140.479 38.9108 140.995 38.3943C141.512 37.8779 141.77 37.0516 141.77 35.967V28.9951H141.718Z" fill="white"/>
<path d="M160 41.9061H156.127L153.338 37.9812L150.497 41.9061H146.676L151.375 35.2957L146.831 28.9951H150.652L153.286 32.6102L155.868 28.9951H159.69L155.145 35.2957L160 41.9061Z" fill="white"/>
<path d="M28.9795 34.5726C30.3222 34.4693 31.4067 35.3472 31.51 36.69C31.6133 38.0844 30.6321 39.2205 29.2893 39.3238C27.9983 39.4271 26.8621 38.4459 26.7588 37.1548C26.6555 35.7604 27.5851 34.7275 28.9795 34.5726Z" fill="#86DA2F"/>
<path d="M12.6602 45.5728C12.6602 44.23 13.693 43.1971 14.9325 43.1971C16.1719 43.1971 17.3598 44.3333 17.3598 45.6244C17.3598 46.8639 16.3269 47.9484 15.1391 48C13.6414 48 12.6602 47.0704 12.6602 45.5728Z" fill="#24C2FF"/>
<path d="M16.327 30.4928C16.1204 30.596 16.0171 30.4411 15.9655 30.2862C14.0547 26.7227 14.6228 22.2297 17.9796 19.5442C18.8576 18.8212 20.5102 18.6663 21.2332 19.3893C21.543 19.6475 21.5947 19.9574 21.6463 20.3189C21.7496 21.0936 21.9045 21.8682 22.421 22.4879C22.9891 23.1593 23.7121 23.4175 24.5384 23.3659C25.2614 23.3659 25.9844 23.2626 26.4492 24.0889C26.7074 24.5537 26.6041 26.3612 26.191 26.7227C25.9844 26.8777 25.8295 26.7744 25.6746 26.7227C24.4867 26.258 23.2473 26.258 22.0078 26.4645C21.5947 26.5162 21.3881 26.4129 21.3881 25.9481C21.3365 25.1734 21.1815 24.4504 20.7684 23.779C19.9937 22.3847 18.5477 22.333 17.6181 23.6241C16.8434 24.657 16.6369 25.8964 16.4303 27.1359C16.2237 28.2204 16.2754 29.3566 16.327 30.4928Z" fill="#FFCB12"/>
<path d="M17.6182 31.2674C17.5149 31.1124 17.5665 30.9575 17.7215 30.8542C20.6652 28.1687 25.0549 27.6523 28.4634 30.2861C29.3414 31.0091 29.9094 32.5068 29.4446 33.3848C29.2381 33.7463 28.9799 33.9012 28.67 34.0045C27.947 34.3143 27.2756 34.6242 26.8108 35.2956C26.346 35.9669 26.2427 36.7416 26.4493 37.5679C26.6042 38.2393 26.8625 38.9623 26.1911 39.582C25.8296 39.9435 24.0737 40.2534 23.6089 39.9435C23.4023 39.7886 23.454 39.6337 23.5056 39.4271C23.6605 38.136 23.3507 36.9482 22.8859 35.812C22.7309 35.3989 22.7826 35.1923 23.1957 35.089C23.9187 34.8824 24.5901 34.5209 25.1066 34.0045C26.2427 32.92 25.9845 31.5256 24.4868 30.9058C23.299 30.3894 22.0596 30.4927 20.8718 30.596C19.7356 30.6476 18.6511 30.9575 17.6182 31.2674Z" fill="#86DA2F"/>
<path d="M16.9459 32.6101C17.1008 32.4552 17.2041 32.5068 17.359 32.6101C20.7675 34.6759 22.5234 38.7557 20.9741 42.7323C20.561 43.7652 19.2182 44.7981 18.237 44.5399C17.8238 44.4366 17.6173 44.23 17.4107 43.9718C16.9459 43.352 16.4294 42.784 15.6548 42.5257C14.8285 42.2675 14.1055 42.4225 13.3825 42.8356C12.7627 43.1971 12.143 43.6619 11.3683 43.1971C10.9036 42.9389 10.1289 41.3379 10.2838 40.8215C10.3871 40.6149 10.5937 40.6149 10.8003 40.6149C12.0914 40.4083 13.1242 39.7886 14.1055 38.9623C14.4153 38.7041 14.6736 38.7041 14.9318 39.0656C15.3449 39.6853 15.8614 40.2018 16.5327 40.5633C17.8755 41.3379 19.1666 40.6666 19.3215 39.1172C19.4764 37.8261 19.0116 36.69 18.5985 35.5538C18.1337 34.5209 17.5656 33.5397 16.9459 32.6101Z" fill="#24C2FF"/>
<path d="M15.2938 32.9201C15.0872 33.9529 14.6224 34.9342 14.0027 35.8121C12.1435 38.6009 9.458 39.7371 6.15279 39.4272C4.96498 39.3239 3.98375 38.3427 3.88046 37.3614C3.82881 36.9483 3.9321 36.6384 4.19032 36.3286C4.55183 35.8638 4.86169 35.4506 5.01662 34.8825C5.32649 33.7464 4.91334 32.8168 4.08703 31.9905C2.95087 30.8543 3.1058 29.8214 4.44854 28.9951C4.60347 28.8918 4.81005 28.7885 5.01662 28.6853C5.32649 28.5303 5.58471 28.5303 5.688 28.8918C6.15279 30.0796 7.08238 30.9576 8.11526 31.6806C8.47677 31.9905 8.47677 32.197 8.1669 32.5586C7.54718 33.2299 7.18567 34.0562 7.13403 34.9858C7.03074 36.122 7.70211 36.845 8.83827 36.845C9.56129 36.845 10.2327 36.5868 10.8524 36.2769C12.4533 35.4506 13.6928 34.2628 14.8806 33.0233C15.0355 32.9717 15.0872 32.8684 15.2938 32.9201Z" fill="#0069DA"/>
<path d="M6.82441 22.0748C6.9277 22.0748 7.18592 22.1265 7.44414 22.1781C9.35496 22.5396 10.5428 21.8683 11.1625 20.0607C11.5757 18.8729 12.4536 18.5114 13.5898 19.1311C13.6414 19.1311 13.6414 19.1828 13.6931 19.1828C14.8809 19.8542 14.8809 19.9574 14.1578 20.9903C13.5381 21.8166 13.2283 22.7462 13.0733 23.7275C12.97 24.2955 12.7635 24.3988 12.247 24.1922C11.4207 23.8824 10.5428 23.8824 9.66483 24.1922C8.68359 24.5021 8.27044 25.3801 8.5803 26.3613C8.99345 27.6524 10.1296 28.2205 11.1109 28.8918C12.0921 29.5632 13.2283 29.9247 14.3128 30.3895C14.4677 30.4412 14.7259 30.4412 14.6743 30.6994C14.6226 30.8543 14.4161 30.8543 14.2095 30.8543C11.8855 30.9576 9.66483 30.5961 7.85729 29.0468C6.15304 27.6524 4.91358 25.9481 5.12016 23.5725C5.27509 22.7979 5.84318 22.2298 6.82441 22.0748Z" fill="#FF4649"/>
<path d="M2.58933 36.5867C1.34988 36.7417 0.110425 35.7088 0.00713733 34.4177C-0.0961505 33.1782 0.936728 31.9388 2.12454 31.8355C3.46728 31.6806 4.70673 32.6102 4.81002 33.8496C4.86167 35.0374 4.08701 36.4835 2.58933 36.5867Z" fill="#0069DA"/>
<path d="M24.2794 18.2015C25.5705 18.0982 26.81 19.1311 26.9132 20.4222C27.0165 21.6616 25.9837 22.8494 24.7442 22.9527C23.4015 23.056 22.2137 22.0748 22.1104 20.7837C22.0071 19.4926 22.9367 18.3048 24.2794 18.2015Z" fill="#FFCB12"/>
<path d="M10.801 19.1827C10.956 20.5255 10.0264 21.6616 8.632 21.8682C7.44419 22.0231 6.20474 21.0419 6.04981 19.9057C5.89487 18.4081 6.72118 17.3236 8.11556 17.1686C9.40666 17.0137 10.6461 17.9949 10.801 19.1827Z" fill="#FF4649"/>
</g>
<defs>
<clipPath id="clip0_50_7556">
<rect width="160" height="30.8476" fill="white" transform="translate(0 17.1525)"/>
</clipPath>
</defs>
</svg>
