<svg width="50" height="50" viewBox="0 0 50 50" fill="none" xmlns="http://www.w3.org/2000/svg">
<g clip-path="url(#clip0_117_974)">
<rect x="1" y="1" width="48" height="48" rx="24" fill="#002629"/>
<path d="M1 10.5996H49" stroke="#00474D" stroke-width="0.6"/>
<path d="M39.4023 1L39.4023 49" stroke="#00474D" stroke-width="0.6"/>
<path d="M39.4023 7L39.4023 14.2" stroke="url(#paint0_linear_117_974)" stroke-width="0.6"/>
<path d="M43 10.5996L35.8 10.5996" stroke="url(#paint1_linear_117_974)" stroke-width="0.6"/>
<path d="M1 39.4004H49" stroke="#00474D" stroke-width="0.6"/>
<path d="M10.5977 1L10.5977 49" stroke="#00474D" stroke-width="0.6"/>
<path d="M39.4023 35.8008L39.4023 43.0008" stroke="url(#paint2_linear_117_974)" stroke-width="0.6"/>
<path d="M43 39.4004L35.8 39.4004" stroke="url(#paint3_linear_117_974)" stroke-width="0.6"/>
<path d="M10.5977 35.8008L10.5977 43.0008" stroke="url(#paint4_linear_117_974)" stroke-width="0.6"/>
<path d="M14.2012 39.4004L7.00117 39.4004" stroke="url(#paint5_linear_117_974)" stroke-width="0.6"/>
<path d="M10.5977 7L10.5977 14.2" stroke="url(#paint6_linear_117_974)" stroke-width="0.6"/>
<path d="M14.2012 10.5996L7.00117 10.5996" stroke="url(#paint7_linear_117_974)" stroke-width="0.6"/>
<path d="M15.1674 15L20.6151 20.4487H29.552V29.3851L34.9998 34.8331V15H15.1674Z" fill="#0DD6BE"/>
<path d="M15 27.149L20.6087 21.5405V29.3915H28.4583L22.8499 35H15V27.149Z" fill="#0DD6BE"/>
</g>
<rect x="0.5" y="0.5" width="49" height="49" rx="24.5" stroke="#00393D"/>
<defs>
<linearGradient id="paint0_linear_117_974" x1="39.4023" y1="14.2" x2="39.4023" y2="7" gradientUnits="userSpaceOnUse">
<stop stop-color="#19FFE9" stop-opacity="0"/>
<stop offset="0.50284" stop-color="#19FFE9"/>
<stop offset="1" stop-color="#19FFE9" stop-opacity="0"/>
</linearGradient>
<linearGradient id="paint1_linear_117_974" x1="35.8" y1="10.5996" x2="43" y2="10.5996" gradientUnits="userSpaceOnUse">
<stop stop-color="#19FFE9" stop-opacity="0"/>
<stop offset="0.50284" stop-color="#19FFE9"/>
<stop offset="1" stop-color="#19FFE9" stop-opacity="0"/>
</linearGradient>
<linearGradient id="paint2_linear_117_974" x1="39.4023" y1="43.0008" x2="39.4023" y2="35.8008" gradientUnits="userSpaceOnUse">
<stop stop-color="#19FFE9" stop-opacity="0"/>
<stop offset="0.50284" stop-color="#19FFE9"/>
<stop offset="1" stop-color="#19FFE9" stop-opacity="0"/>
</linearGradient>
<linearGradient id="paint3_linear_117_974" x1="35.8" y1="39.4004" x2="43" y2="39.4004" gradientUnits="userSpaceOnUse">
<stop stop-color="#19FFE9" stop-opacity="0"/>
<stop offset="0.50284" stop-color="#19FFE9"/>
<stop offset="1" stop-color="#19FFE9" stop-opacity="0"/>
</linearGradient>
<linearGradient id="paint4_linear_117_974" x1="10.5977" y1="43.0008" x2="10.5977" y2="35.8008" gradientUnits="userSpaceOnUse">
<stop stop-color="#19FFE9" stop-opacity="0"/>
<stop offset="0.50284" stop-color="#19FFE9"/>
<stop offset="1" stop-color="#19FFE9" stop-opacity="0"/>
</linearGradient>
<linearGradient id="paint5_linear_117_974" x1="7.00117" y1="39.4004" x2="14.2012" y2="39.4004" gradientUnits="userSpaceOnUse">
<stop stop-color="#19FFE9" stop-opacity="0"/>
<stop offset="0.50284" stop-color="#19FFE9"/>
<stop offset="1" stop-color="#19FFE9" stop-opacity="0"/>
</linearGradient>
<linearGradient id="paint6_linear_117_974" x1="10.5977" y1="14.2" x2="10.5977" y2="7" gradientUnits="userSpaceOnUse">
<stop stop-color="#19FFE9" stop-opacity="0"/>
<stop offset="0.50284" stop-color="#19FFE9"/>
<stop offset="1" stop-color="#19FFE9" stop-opacity="0"/>
</linearGradient>
<linearGradient id="paint7_linear_117_974" x1="7.00117" y1="10.5996" x2="14.2012" y2="10.5996" gradientUnits="userSpaceOnUse">
<stop stop-color="#19FFE9" stop-opacity="0"/>
<stop offset="0.50284" stop-color="#19FFE9"/>
<stop offset="1" stop-color="#19FFE9" stop-opacity="0"/>
</linearGradient>
<clipPath id="clip0_117_974">
<rect x="1" y="1" width="48" height="48" rx="24" fill="white"/>
</clipPath>
</defs>
</svg>
