<svg width="204" height="100" viewBox="0 0 204 100" fill="none" xmlns="http://www.w3.org/2000/svg">
<rect x="0.833008" y="0.5" width="202.333" height="99" rx="19.5" fill="url(#paint0_linear_254_845)"/>
<rect x="0.833008" y="0.5" width="202.333" height="99" rx="19.5" stroke="url(#paint1_linear_254_845)"/>
<g clip-path="url(#clip0_254_845)">
<path d="M82.2172 68.5141C80.892 68.5141 79.7638 68.3125 78.8324 67.9092C77.9536 67.5451 77.1772 66.9715 76.5711 66.2384C75.9832 65.5048 75.5563 64.6558 75.318 63.7465C75.0522 62.7458 74.9214 61.714 74.929 60.6786V48.1189H76.8879V60.4194C76.8687 61.3797 77 62.3371 77.2768 63.2568C77.4964 63.9823 77.8643 64.6542 78.3571 65.2301C78.8118 65.7446 79.3853 66.1402 80.0278 66.3824C81.4447 66.8818 82.9896 66.8818 84.4065 66.3824C85.0489 66.14 85.6224 65.7445 86.0773 65.2301C86.5701 64.6542 86.9379 63.9823 87.1575 63.2568C87.4343 62.3371 87.5655 61.3797 87.5464 60.4194V48.1189H89.5052V60.6786C89.5128 61.714 89.3821 62.7458 89.1164 63.7465C88.8781 64.6558 88.4512 65.5048 87.8633 66.2384C87.2571 66.9714 86.4807 67.545 85.602 67.9092C84.6703 68.3124 83.542 68.5141 82.2172 68.5141Z" fill="#0DD6BE"/>
<path d="M95.9319 54.082C96.2583 53.8326 96.7816 53.5686 97.502 53.2899C98.3188 52.995 99.1831 52.8534 100.051 52.8721C101.037 52.8538 102.015 53.0504 102.918 53.4482C103.736 53.8195 104.46 54.371 105.035 55.0614C105.63 55.788 106.075 56.6251 106.346 57.5244C106.652 58.5375 106.803 59.5915 106.792 60.6499C106.809 61.758 106.629 62.8603 106.259 63.9051C105.934 64.8159 105.424 65.6496 104.761 66.3537C104.114 67.0285 103.328 67.5544 102.457 67.8948C101.506 68.2606 100.494 68.4415 99.4752 68.4277C98.1501 68.4277 97.0554 68.3413 96.1912 68.1685C95.4695 68.0328 94.7574 67.85 94.0596 67.6211V46.0737L95.9319 45.728V54.082ZM95.9319 66.3249C96.3513 66.4499 96.78 66.5414 97.2138 66.5985C97.9539 66.6958 98.7 66.7391 99.4464 66.7281C101.06 66.7281 102.356 66.2048 103.335 65.1582C104.315 64.1117 104.804 62.6089 104.804 60.6499C104.808 59.86 104.721 59.0722 104.545 58.3022C104.393 57.6111 104.11 56.9558 103.71 56.3721C103.319 55.8194 102.8 55.3696 102.197 55.0614C101.573 54.7351 100.8 54.5719 99.8785 54.5717C99.4526 54.5701 99.0278 54.6135 98.611 54.7014C98.2283 54.7818 97.8527 54.8926 97.4875 55.0326C97.1739 55.1519 96.8705 55.2964 96.5802 55.4647C96.3555 55.5954 96.1391 55.7398 95.9319 55.8968V66.3249Z" fill="#0DD6BE"/>
<path d="M121.889 67.5635C121.332 67.7175 120.583 67.8903 119.642 68.0821C118.502 68.2914 117.344 68.3879 116.185 68.3701C115.071 68.3701 114.14 68.2069 113.391 67.8804C112.678 67.5817 112.053 67.1058 111.576 66.4977C111.094 65.857 110.755 65.1202 110.582 64.3372C110.373 63.4208 110.271 62.483 110.28 61.5429V53.189H112.152V60.938C112.138 61.8365 112.215 62.7342 112.383 63.6171C112.536 64.3471 112.786 64.9376 113.132 65.3887C113.474 65.8377 113.939 66.1779 114.471 66.3681C115.116 66.5852 115.793 66.6875 116.473 66.6706C117.244 66.678 118.014 66.6299 118.778 66.5265C119.43 66.4306 119.843 66.3442 120.016 66.2673V53.189H121.889L121.889 67.5635Z" fill="#0DD6BE"/>
<path d="M126.313 53.7076C126.87 53.5541 127.619 53.3813 128.56 53.189C129.7 52.9797 130.858 52.8832 132.017 52.901C133.15 52.901 134.096 53.0642 134.855 53.3907C135.573 53.6865 136.2 54.1688 136.669 54.7878C137.14 55.4369 137.469 56.178 137.635 56.9628C137.834 57.8806 137.931 58.8178 137.923 59.757V68.0822H136.05V60.362C136.064 59.4641 135.991 58.567 135.834 57.6829C135.727 57.0424 135.481 56.4329 135.114 55.8969C134.783 55.4396 134.321 55.0932 133.789 54.903C133.241 54.7015 132.555 54.6006 131.729 54.6006C130.963 54.5929 130.198 54.6411 129.439 54.7446C128.795 54.8409 128.378 54.9273 128.186 55.0039V68.0822H126.313V53.7076Z" fill="#0DD6BE"/>
<path d="M143.98 53.1889H149.914V54.7732H143.98V62.6952C143.963 63.3882 144.036 64.0804 144.196 64.7548C144.301 65.207 144.513 65.6271 144.816 65.9791C145.078 66.2636 145.419 66.4641 145.795 66.5553C146.21 66.655 146.636 66.7033 147.062 66.6992C147.85 66.6992 148.483 66.608 148.964 66.4256C149.35 66.2858 149.726 66.1172 150.087 65.9215L150.548 67.4771C150.279 67.6499 149.808 67.8467 149.136 68.0676C148.429 68.2937 147.69 68.4055 146.947 68.3989C146.025 68.3989 145.252 68.2789 144.628 68.0388C144.036 67.8222 143.517 67.4428 143.13 66.9442C142.732 66.4016 142.462 65.7764 142.338 65.1149C142.173 64.2608 142.096 63.3921 142.108 62.5223V48.8103L143.98 48.4646V53.1889Z" fill="#0DD6BE"/>
<path d="M164.433 67.5635C163.876 67.7175 163.127 67.8903 162.186 68.0821C161.046 68.2914 159.888 68.3879 158.729 68.3701C157.615 68.3701 156.684 68.2069 155.935 67.8804C155.222 67.5817 154.597 67.1058 154.12 66.4977C153.638 65.857 153.299 65.1202 153.126 64.3372C152.917 63.4208 152.815 62.483 152.824 61.5429V53.189H154.696V60.938C154.682 61.8365 154.759 62.7342 154.927 63.6171C155.08 64.3471 155.33 64.9376 155.676 65.3887C156.018 65.8377 156.483 66.1779 157.015 66.3681C157.66 66.5852 158.337 66.6875 159.017 66.6706C159.788 66.678 160.558 66.6299 161.322 66.5265C161.974 66.4306 162.387 66.3442 162.56 66.2673V53.189H164.433V67.5635Z" fill="#0DD6BE"/>
<path fill-rule="evenodd" clip-rule="evenodd" d="M68.1363 28H39.5664V72H68.1363V28ZM45.7976 60.0402C47.4535 60.0402 48.7958 58.6979 48.7958 57.042C48.7958 55.3861 47.4535 54.0438 45.7976 54.0438C44.1417 54.0438 42.7994 55.3861 42.7994 57.042C42.7994 58.6979 44.1417 60.0402 45.7976 60.0402ZM61.2823 50.4678C61.2823 52.1237 59.9399 53.466 58.284 53.466C56.6282 53.466 55.2858 52.1237 55.2858 50.4678C55.2858 48.8119 56.6282 47.4695 58.284 47.4695C59.9399 47.4695 61.2823 48.8119 61.2823 50.4678ZM52.5597 64.7583C51.5 64.5342 50.5034 64.0772 49.6422 63.4204C48.7809 62.7635 48.0766 61.9233 47.5802 60.9606C46.7779 61.3249 45.8834 61.4348 45.0167 61.2757C45.6161 62.7578 46.5705 64.07 47.7958 65.097C49.0211 66.1239 50.4799 66.8341 52.044 67.1652C52.7436 67.3152 53.4575 67.3886 54.173 67.3843C53.6226 66.6627 53.3153 65.785 53.2952 64.8776C53.0482 64.8502 52.8016 64.8101 52.5597 64.7583ZM60.6069 64.7748C60.6069 66.4307 59.2645 67.7731 57.6086 67.7731C55.9528 67.7731 54.6104 66.4307 54.6104 64.7748C54.6104 63.1189 55.9528 61.7766 57.6086 61.7766C59.2645 61.7766 60.6069 63.1189 60.6069 64.7748ZM61.781 63.6736C63.0663 62.0522 63.8059 60.0659 63.8942 57.9987C63.9825 55.9316 63.4149 53.8894 62.2726 52.1643C61.9262 52.9798 61.3377 53.6691 60.5865 54.1389C61.1863 55.2712 61.4797 56.5407 61.4375 57.8213C61.3954 59.102 61.0192 60.3494 60.3463 61.4398C61.0482 62.0144 61.5504 62.7963 61.781 63.6736ZM45.7948 52.7361C45.7186 52.736 45.6425 52.7381 45.5664 52.7423C46.4908 51.1238 47.8552 49.8007 49.5013 48.9265C51.1473 48.0522 53.0076 47.6627 54.8661 47.803C54.3223 48.502 54.005 49.3503 53.9565 50.2346C52.7955 50.2543 51.656 50.5502 50.6321 51.0978C49.6082 51.6454 48.7295 52.4289 48.0685 53.3836C47.3854 52.9608 46.5981 52.7366 45.7948 52.7361Z" fill="#0DD6BE"/>
</g>
<defs>
<linearGradient id="paint0_linear_254_845" x1="102" y1="0" x2="102" y2="100" gradientUnits="userSpaceOnUse">
<stop stop-color="#00171A"/>
<stop offset="1" stop-color="#00171A" stop-opacity="0"/>
</linearGradient>
<linearGradient id="paint1_linear_254_845" x1="102" y1="0" x2="102" y2="100" gradientUnits="userSpaceOnUse">
<stop stop-color="#00393D"/>
<stop offset="1" stop-color="#00393D" stop-opacity="0"/>
</linearGradient>
<clipPath id="clip0_254_845">
<rect width="124.867" height="44" fill="white" transform="translate(39.5664 28)"/>
</clipPath>
</defs>
</svg>
