<svg width="204" height="100" viewBox="0 0 204 100" fill="none" xmlns="http://www.w3.org/2000/svg">
<rect x="0.5" y="0.5" width="202.333" height="99" rx="19.5" fill="url(#paint0_linear_254_681)"/>
<rect x="0.5" y="0.5" width="202.333" height="99" rx="19.5" stroke="url(#paint1_linear_254_681)"/>
<g clip-path="url(#clip0_254_681)">
<path d="M73.9194 58.4686L72.935 55.5154H66.3722L65.3878 58.4686H61.8721L67.591 42.0618H71.6224L77.3882 58.4686H73.9194ZM67.4035 52.4684H71.9037L69.6536 45.765L67.4035 52.4684Z" fill="#0DD6BE"/>
<path d="M78.8877 58.4686V41.3586H81.9347V58.4686H78.8877Z" fill="#0DD6BE"/>
<path d="M97.6391 46.4214C98.9985 46.4214 100.03 46.8433 100.827 47.7339C101.624 48.6246 102.046 49.7965 102.046 51.2497V58.4687H99.0454V51.4372C99.0454 50.734 98.8579 50.1715 98.5298 49.7965C98.2016 49.4215 97.686 49.234 97.0766 49.234C96.3734 49.234 95.8578 49.4684 95.4828 49.9371C95.1078 50.4059 94.9203 51.0622 94.9203 51.906V58.4687H91.9202V51.4372C91.9202 50.734 91.7327 50.1715 91.4045 49.7965C91.0764 49.4215 90.5607 49.234 89.9514 49.234C89.2951 49.234 88.7326 49.4684 88.3107 49.9371C87.9357 50.4059 87.7482 51.0622 87.7482 51.906V58.4687H84.748V46.7495H87.7482V47.9683C88.4513 46.937 89.5295 46.3745 91.0295 46.3745C92.4827 46.3745 93.514 46.937 94.2171 48.0621C94.9203 46.9839 96.0922 46.4214 97.6391 46.4214Z" fill="#0DD6BE"/>
<path d="M113.53 46.7495H116.53V58.4687H113.53V57.0624C112.639 58.1874 111.326 58.7968 109.686 58.7968C108.139 58.7968 106.779 58.1874 105.654 57.0155C104.529 55.7967 103.967 54.3435 103.967 52.6091C103.967 50.8747 104.529 49.4215 105.654 48.2027C106.779 46.9839 108.139 46.3745 109.686 46.3745C111.326 46.3745 112.592 46.937 113.53 48.1089V46.7495ZM107.951 54.9998C108.561 55.6092 109.311 55.9373 110.248 55.9373C111.186 55.9373 111.983 55.6561 112.592 54.9998C113.201 54.3904 113.53 53.5935 113.53 52.6091C113.53 51.6247 113.201 50.8278 112.592 50.2653C111.983 49.6559 111.186 49.3277 110.248 49.3277C109.311 49.3277 108.561 49.6559 107.951 50.2653C107.342 50.8747 107.061 51.6716 107.061 52.6091C107.061 53.5466 107.342 54.3904 107.951 54.9998Z" fill="#0DD6BE"/>
<path d="M122.671 55.3747H128.906V58.4686H119.437V42.0618H122.671V55.3747Z" fill="#0DD6BE"/>
<path d="M132.14 45.3431C131.624 45.3431 131.202 45.1556 130.827 44.8275C130.452 44.4525 130.265 44.0306 130.265 43.515C130.265 42.9993 130.452 42.5774 130.827 42.2024C131.202 41.8274 131.624 41.6399 132.14 41.6399C132.655 41.6399 133.077 41.8274 133.452 42.2024C133.827 42.5774 134.015 42.9993 134.015 43.515C134.015 44.0306 133.827 44.4525 133.452 44.8275C133.077 45.1556 132.655 45.3431 132.14 45.3431ZM130.64 58.4686V46.7494H133.687V58.4686H130.64Z" fill="#0DD6BE"/>
<path d="M142.921 46.4214C144.187 46.4214 145.265 46.8433 146.109 47.7339C146.953 48.5777 147.374 49.7965 147.374 51.2966V58.4687H144.374V51.6247C144.374 50.8278 144.14 50.2653 143.718 49.8434C143.296 49.4215 142.734 49.1871 142.03 49.1871C141.234 49.1871 140.624 49.4215 140.155 49.9371C139.687 50.4528 139.452 51.1559 139.452 52.1403V58.4687H136.452V46.7495H139.452V48.0621C140.202 46.9839 141.327 46.4214 142.921 46.4214Z" fill="#0DD6BE"/>
<path d="M157.688 46.7495H160.735V58.4687H157.688V57.1561C156.938 58.2343 155.813 58.7968 154.219 58.7968C152.953 58.7968 151.875 58.3749 151.031 57.4843C150.188 56.6405 149.812 55.4217 149.812 53.9216V46.7495H152.859V53.5466C152.859 54.3435 153.047 54.9529 153.469 55.3748C153.891 55.7967 154.453 55.9842 155.156 55.9842C155.953 55.9842 156.563 55.7498 157.031 55.2811C157.5 54.8123 157.735 54.0623 157.735 53.0779V46.7495H157.688Z" fill="#0DD6BE"/>
<path d="M174.282 58.4687H170.766L168.235 54.906L165.656 58.4687H162.188L166.453 52.4685L162.328 46.7495H165.797L168.188 50.0309L170.532 46.7495H174L169.875 52.4685L174.282 58.4687Z" fill="#0DD6BE"/>
<path d="M55.3558 51.8122C56.5746 51.7184 57.559 52.5153 57.6528 53.7341C57.7465 54.9998 56.8559 56.0311 55.6371 56.1248C54.4651 56.2186 53.4339 55.3279 53.3401 54.156C53.2464 52.8903 54.0901 51.9528 55.3558 51.8122Z" fill="#0DD6BE"/>
<path d="M40.543 61.7967C40.543 60.5779 41.4805 59.6404 42.6055 59.6404C43.7306 59.6404 44.8087 60.6717 44.8087 61.8436C44.8087 62.9686 43.8712 63.953 42.793 63.9999C41.4336 63.9999 40.543 63.1561 40.543 61.7967Z" fill="#0DD6BE"/>
<path d="M43.871 48.1088C43.6835 48.2025 43.5897 48.0619 43.5428 47.9212C41.8084 44.6868 42.324 40.6085 45.371 38.1709C46.1679 37.5146 47.668 37.374 48.3243 38.0303C48.6055 38.2647 48.6524 38.5459 48.6993 38.8741C48.793 39.5772 48.9336 40.2804 49.4024 40.8429C49.9181 41.4523 50.5743 41.6867 51.3244 41.6398C51.9806 41.6398 52.6369 41.546 53.0588 42.2961C53.2932 42.7179 53.1994 44.3586 52.8244 44.6868C52.6369 44.8274 52.4963 44.7336 52.3556 44.6868C51.2775 44.2649 50.1524 44.2649 49.0274 44.4524C48.6524 44.4993 48.4649 44.4055 48.4649 43.9836C48.418 43.2805 48.2774 42.6242 47.9024 42.0148C47.1992 40.7491 45.8867 40.7022 45.0429 41.8742C44.3397 42.8117 44.1522 43.9367 43.9647 45.0618C43.7772 46.0462 43.8241 47.0775 43.871 48.1088Z" fill="#0DD6BE"/>
<path d="M45.0429 48.812C44.9492 48.6714 44.996 48.5307 45.1367 48.437C47.8086 45.9994 51.7931 45.5306 54.887 47.9213C55.6839 48.5776 56.1996 49.937 55.7777 50.7339C55.5902 51.0621 55.3558 51.2027 55.0745 51.2965C54.4182 51.5777 53.8088 51.859 53.387 52.4684C52.9651 53.0778 52.8713 53.7809 53.0588 54.5309C53.1994 55.1403 53.4338 55.7966 52.8244 56.3591C52.4963 56.6873 50.9025 56.9685 50.4806 56.6873C50.2931 56.5466 50.34 56.406 50.3869 56.2185C50.5275 55.0466 50.2462 53.9684 49.8243 52.9371C49.6837 52.5621 49.7306 52.3746 50.1056 52.2809C50.7619 52.0934 51.3713 51.7652 51.84 51.2965C52.8713 50.312 52.6369 49.0464 51.2775 48.4839C50.1993 48.0151 49.0743 48.1088 47.9961 48.2026C46.9649 48.2495 45.9804 48.5307 45.0429 48.812Z" fill="#0DD6BE"/>
<path d="M44.4335 50.0307C44.5742 49.89 44.6679 49.9369 44.8086 50.0307C47.9024 51.9057 49.4962 55.609 48.0899 59.2185C47.7149 60.156 46.4961 61.0935 45.6055 60.8591C45.2304 60.7654 45.0429 60.5779 44.8554 60.3435C44.4335 59.781 43.9648 59.2653 43.2616 59.031C42.5116 58.7966 41.8553 58.9372 41.1991 59.3122C40.6365 59.6404 40.074 60.0622 39.3709 59.6404C38.949 59.406 38.2458 57.9528 38.3865 57.484C38.4802 57.2965 38.6677 57.2965 38.8552 57.2965C40.0271 57.109 40.9647 56.5465 41.8553 55.7965C42.1366 55.5621 42.371 55.5621 42.6054 55.8902C42.9804 56.4527 43.4491 56.9215 44.0585 57.2496C45.2773 57.9528 46.4492 57.3434 46.5899 55.9371C46.7305 54.7652 46.3086 53.7339 45.9336 52.7026C45.5117 51.7651 44.9961 50.8744 44.4335 50.0307Z" fill="#0DD6BE"/>
<path d="M42.9333 50.3121C42.7458 51.2496 42.3239 52.1402 41.7614 52.9371C40.0739 55.4685 37.6363 56.4998 34.6362 56.2185C33.558 56.1248 32.6674 55.2341 32.5736 54.3434C32.5267 53.9684 32.6205 53.6872 32.8549 53.4059C33.183 52.984 33.4643 52.609 33.6049 52.0934C33.8862 51.0621 33.5111 50.2183 32.7611 49.4683C31.7298 48.437 31.8705 47.4995 33.0893 46.7494C33.2299 46.6557 33.4174 46.5619 33.6049 46.4682C33.8862 46.3275 34.1205 46.3275 34.2143 46.6557C34.6362 47.7338 35.48 48.5307 36.4175 49.187C36.7456 49.4683 36.7456 49.6558 36.4644 49.9839C35.9019 50.5933 35.5737 51.3433 35.5268 52.1871C35.4331 53.2184 36.0425 53.8747 37.0738 53.8747C37.73 53.8747 38.3394 53.6403 38.902 53.359C40.3551 52.609 41.4802 51.5308 42.5583 50.4058C42.699 50.3589 42.7458 50.2652 42.9333 50.3121Z" fill="#0DD6BE"/>
<path d="M35.2461 40.4679C35.3398 40.4679 35.5742 40.5148 35.8086 40.5617C37.543 40.8898 38.6212 40.2804 39.1837 38.6397C39.5587 37.5616 40.3556 37.2334 41.3869 37.796C41.4338 37.796 41.4338 37.8428 41.4807 37.8428C42.5588 38.4522 42.5588 38.546 41.9025 39.4835C41.34 40.2335 41.0588 41.0773 40.9181 41.968C40.8244 42.4836 40.6369 42.5774 40.1681 42.3899C39.4181 42.1086 38.6212 42.1086 37.8243 42.3899C36.9336 42.6711 36.5586 43.468 36.8399 44.3587C37.2149 45.5306 38.2462 46.0462 39.1368 46.6556C40.0275 47.265 41.0588 47.5932 42.0432 48.0151C42.1838 48.0619 42.4182 48.0619 42.3713 48.2963C42.3244 48.437 42.1369 48.437 41.9494 48.437C39.84 48.5307 37.8243 48.2026 36.1836 46.7963C34.6367 45.5306 33.5116 43.9837 33.6991 41.8274C33.8398 41.1242 34.3554 40.6086 35.2461 40.4679Z" fill="#0DD6BE"/>
<path d="M31.4021 53.6402C30.277 53.7809 29.152 52.8433 29.0582 51.6714C28.9645 50.5464 29.902 49.4213 30.9802 49.3276C32.199 49.187 33.324 50.0307 33.4178 51.1558C33.4646 52.2339 32.7615 53.5465 31.4021 53.6402Z" fill="#0DD6BE"/>
<path d="M51.0902 36.9523C52.2621 36.8585 53.3871 37.796 53.4809 38.968C53.5746 40.093 52.6371 41.1712 51.5121 41.2649C50.2933 41.3587 49.2151 40.468 49.1214 39.2961C49.0276 38.1242 49.8714 37.046 51.0902 36.9523Z" fill="#0DD6BE"/>
<path d="M38.8559 37.8428C38.9965 39.0616 38.1527 40.0929 36.887 40.2804C35.8089 40.4211 34.6838 39.5304 34.5432 38.4991C34.4026 37.1397 35.1526 36.1553 36.4183 36.0147C37.5902 35.874 38.7152 36.7647 38.8559 37.8428Z" fill="#0DD6BE"/>
</g>
<defs>
<linearGradient id="paint0_linear_254_681" x1="101.667" y1="0" x2="101.667" y2="100" gradientUnits="userSpaceOnUse">
<stop stop-color="#00171A"/>
<stop offset="1" stop-color="#00171A" stop-opacity="0"/>
</linearGradient>
<linearGradient id="paint1_linear_254_681" x1="101.667" y1="0" x2="101.667" y2="100" gradientUnits="userSpaceOnUse">
<stop stop-color="#00393D"/>
<stop offset="1" stop-color="#00393D" stop-opacity="0"/>
</linearGradient>
<clipPath id="clip0_254_681">
<rect width="145.23" height="28" fill="white" transform="translate(29.0518 36)"/>
</clipPath>
</defs>
</svg>
