<svg width="204" height="100" viewBox="0 0 204 100" fill="none" xmlns="http://www.w3.org/2000/svg">
<rect x="1.16699" y="0.5" width="202.333" height="99" rx="19.5" fill="url(#paint0_linear_254_676)"/>
<rect x="1.16699" y="0.5" width="202.333" height="99" rx="19.5" stroke="url(#paint1_linear_254_676)"/>
<g clip-path="url(#clip0_254_676)">
<path d="M71.4705 36.3904H66.2461V41.6148H71.4705V36.3904Z" fill="#0DD6BE"/>
<path d="M71.3401 63.6096V44.7942H66.3945V63.6096H71.3401ZM104.211 63.7955V59.1846C103.486 59.1846 102.873 59.1474 102.426 59.073C101.906 58.9987 101.515 58.8127 101.255 58.5525C100.995 58.2922 100.827 57.9203 100.735 57.4369C100.66 56.9721 100.623 56.3586 100.623 55.6149V49.0332H104.211V44.7942H100.623V37.4502H95.6588V55.6521C95.6588 57.1952 95.789 58.4967 96.0492 59.5378C96.3095 60.5604 96.7558 61.3971 97.3693 62.0292C97.9828 62.6614 98.8009 63.1076 99.7863 63.3865C100.79 63.6653 102.055 63.7955 103.561 63.7955H104.211ZM132.62 63.6096V36H127.656V63.6096H132.62ZM90.8806 46.6348C89.5048 45.1474 87.5712 44.4037 85.117 44.4037C83.9271 44.4037 82.8487 44.6454 81.8633 45.1288C80.8965 45.6122 80.0599 46.2815 79.4091 47.1368L79.1303 47.49V47.174V44.7942H74.2405V63.6096H79.1674V53.5883V54.2762C79.1674 54.1647 79.1674 54.0531 79.1674 53.9416C79.2232 52.1753 79.6508 50.8738 80.4689 50.0372C81.3427 49.1448 82.4025 48.6985 83.611 48.6985C85.0426 48.6985 86.1395 49.1448 86.8646 50C87.5712 50.8552 87.943 52.0637 87.943 53.6069V53.6441V63.591H92.9443V52.919C92.9629 50.2417 92.2564 48.1222 90.8806 46.6348ZM125.09 54.1647C125.09 52.8074 124.849 51.5432 124.384 50.3533C123.901 49.1819 123.231 48.1408 122.395 47.2483C121.539 46.3559 120.517 45.668 119.327 45.166C118.137 44.664 116.817 44.4223 115.385 44.4223C114.028 44.4223 112.745 44.6826 111.555 45.1846C110.365 45.7052 109.324 46.3931 108.45 47.2669C107.576 48.1408 106.87 49.1819 106.368 50.3718C105.847 51.5618 105.606 52.8446 105.606 54.2019C105.606 55.5591 105.847 56.842 106.331 58.0319C106.814 59.2218 107.502 60.2629 108.357 61.1368C109.213 62.0106 110.272 62.7171 111.499 63.2191C112.727 63.7397 114.084 64 115.534 64C119.736 64 122.339 62.085 123.901 60.3001L120.331 57.5857C119.587 58.4781 117.802 59.6866 115.571 59.6866C114.177 59.6866 113.024 59.3705 112.15 58.7198C111.276 58.0876 110.681 57.1952 110.365 56.0983L110.31 55.9309H125.09V54.1647ZM110.347 52.4356C110.347 51.0598 111.927 48.6614 115.329 48.6428C118.732 48.6428 120.331 51.0412 120.331 52.417L110.347 52.4356Z" fill="#0DD6BE"/>
<path d="M138.273 61.1553C138.18 60.9322 138.05 60.7463 137.882 60.579C137.715 60.4116 137.529 60.2815 137.306 60.1885C137.083 60.0956 136.841 60.0398 136.599 60.0398C136.339 60.0398 136.116 60.0956 135.893 60.1885C135.67 60.2815 135.484 60.4116 135.317 60.579C135.149 60.7463 135.019 60.9322 134.926 61.1553C134.833 61.3784 134.777 61.6201 134.777 61.8618C134.777 62.1221 134.833 62.3452 134.926 62.5683C135.019 62.7915 135.149 62.9774 135.317 63.1447C135.484 63.312 135.67 63.4422 135.893 63.5351C136.116 63.6281 136.358 63.6839 136.599 63.6839C136.86 63.6839 137.083 63.6281 137.306 63.5351C137.529 63.4422 137.715 63.312 137.882 63.1447C138.05 62.9774 138.18 62.7915 138.273 62.5683C138.366 62.3452 138.421 62.1035 138.421 61.8618C138.421 61.6201 138.366 61.3784 138.273 61.1553ZM137.975 62.4568C137.901 62.6427 137.789 62.81 137.659 62.9402C137.529 63.0703 137.362 63.1819 137.176 63.2563C136.99 63.3306 136.804 63.3678 136.581 63.3678C136.376 63.3678 136.172 63.3306 135.986 63.2563C135.8 63.1819 135.633 63.0703 135.502 62.9402C135.372 62.81 135.261 62.6427 135.186 62.4568C135.112 62.2709 135.075 62.0849 135.075 61.8618C135.075 61.6573 135.112 61.4528 135.186 61.2669C135.261 61.081 135.372 60.9136 135.502 60.7835C135.633 60.6533 135.8 60.5418 135.986 60.4674C136.172 60.393 136.358 60.3559 136.581 60.3559C136.785 60.3559 136.99 60.393 137.176 60.4674C137.362 60.5418 137.529 60.6533 137.659 60.7835C137.789 60.9136 137.901 61.081 137.975 61.2669C138.05 61.4528 138.087 61.6387 138.087 61.8618C138.105 62.0849 138.05 62.2709 137.975 62.4568ZM136.934 62.0106C137.083 61.992 137.194 61.9362 137.287 61.8432C137.38 61.7503 137.436 61.6201 137.436 61.4342C137.436 61.2297 137.38 61.081 137.25 60.9694C137.139 60.8579 136.934 60.8021 136.692 60.8021H135.874V62.903H136.265V62.0478H136.544L137.064 62.903H137.473L136.934 62.0106ZM136.73 61.7131C136.674 61.7131 136.618 61.7131 136.544 61.7131H136.265V61.1181H136.544C136.599 61.1181 136.655 61.1181 136.73 61.1181C136.785 61.1181 136.841 61.1367 136.897 61.1553C136.953 61.1739 136.99 61.2111 137.008 61.2483C137.027 61.2855 137.046 61.3413 137.046 61.4156C137.046 61.49 137.027 61.5458 137.008 61.583C136.971 61.6201 136.934 61.6573 136.897 61.6759C136.841 61.6945 136.785 61.7131 136.73 61.7131Z" fill="#0DD6BE"/>
</g>
<defs>
<linearGradient id="paint0_linear_254_676" x1="102.334" y1="0" x2="102.334" y2="100" gradientUnits="userSpaceOnUse">
<stop stop-color="#00171A"/>
<stop offset="1" stop-color="#00171A" stop-opacity="0"/>
</linearGradient>
<linearGradient id="paint1_linear_254_676" x1="102.334" y1="0" x2="102.334" y2="100" gradientUnits="userSpaceOnUse">
<stop stop-color="#00393D"/>
<stop offset="1" stop-color="#00393D" stop-opacity="0"/>
</linearGradient>
<clipPath id="clip0_254_676">
<rect width="72.1753" height="28" fill="white" transform="translate(66.2461 36)"/>
</clipPath>
</defs>
</svg>
