<svg width="204" height="100" viewBox="0 0 204 100" fill="none" xmlns="http://www.w3.org/2000/svg">
<rect x="1.16699" y="0.5" width="202.333" height="99" rx="19.5" fill="url(#paint0_linear_254_847)"/>
<rect x="1.16699" y="0.5" width="202.333" height="99" rx="19.5" stroke="url(#paint1_linear_254_847)"/>
<g clip-path="url(#clip0_254_847)">
<path d="M90.9706 58.3354H87.5153L84.146 45.5103L80.7396 58.3354H77.2079L72.5752 41.6653H75.7093L79.05 54.9252L82.6972 41.6653H85.8628L89.2909 55.0039L92.4638 41.6653H95.49L90.9706 58.3354Z" fill="#0DD6BE"/>
<path d="M99.9197 42.8849C99.9197 43.3356 99.7537 43.7111 99.4216 44.0116C99.0975 44.312 98.7021 44.4622 98.2357 44.4622C97.7692 44.4622 97.3738 44.312 97.0497 44.0116C96.7256 43.7111 96.5635 43.3356 96.5635 42.8849C96.5635 42.4263 96.7256 42.0429 97.0497 41.7345C97.3818 41.4262 97.7771 41.272 98.2357 41.272C98.718 41.272 99.1172 41.4301 99.4335 41.7464C99.7577 42.0626 99.9197 42.4422 99.9197 42.8849ZM96.7939 58.335V46.3215H99.5946V58.335H96.7939Z" fill="#0DD6BE"/>
<path d="M110.374 58.3355V51.6467C110.374 49.8941 109.83 48.3823 108.065 48.3823C106.308 48.3823 105.195 49.9638 105.195 51.5637V58.3352H102.455V46.3217H105.195V48.021H105.242C106.151 46.6134 107.464 46.1191 109.179 46.1191C110.468 46.1191 111.464 46.4363 112.168 47.2586C112.88 48.0809 113.192 49.3301 113.192 51.0063V58.335L110.374 58.3355Z" fill="#0DD6BE"/>
<path d="M124.13 58.3355V56.789H124.083C123.213 58.2517 121.438 58.5889 120.2 58.5889C116.522 58.5889 115.172 55.7313 115.172 52.6904C115.172 50.6743 115.674 49.0614 116.678 47.8517C117.69 46.6341 119.042 46.1071 120.734 46.1071C123.368 46.1071 124.083 47.5726 124.083 47.5726H124.13V40.6201H126.972V58.3356L124.13 58.3355ZM124.154 51.4898C124.154 50.0386 123.222 48.3898 121.253 48.3898C119.002 48.3898 118.127 50.3493 118.127 52.6076C118.127 54.5793 118.952 56.3687 121.096 56.3984C123.199 56.3984 124.137 54.3946 124.154 52.7381V51.4898Z" fill="#0DD6BE"/>
<path d="M141.308 52.2757C141.308 56.4369 138.821 58.6911 135.087 58.6911C131.025 58.6911 128.943 56.2598 128.943 52.5364C128.943 48.2769 131.438 46.0613 135.383 46.0613C138.998 46.0613 141.308 48.372 141.308 52.2757ZM138.391 52.3705C138.391 50.5192 137.735 48.4612 135.229 48.4612C132.825 48.4612 131.892 50.2498 131.892 52.4417C131.892 54.8229 133.013 56.3374 135.212 56.3374C137.567 56.3374 138.374 54.5297 138.391 52.3705Z" fill="#0DD6BE"/>
<path d="M156.34 58.3353H153.249L150.886 49.6407L148.351 58.3353H145.351L141.856 46.3586H144.789L147.072 55.6633L149.739 46.3586H152.49L154.869 55.6391L157.094 46.3586H159.782L156.34 58.3353Z" fill="#0DD6BE"/>
<path d="M168.58 54.9913C168.58 57.666 166.155 58.7085 163.723 58.7085C162.14 58.7085 160.563 58.0985 160.563 58.0985V55.2536C160.563 55.2536 161.933 56.4479 163.848 56.4628C165.16 56.4628 165.752 56.0489 165.752 55.2609C165.784 54.6288 165.399 54.2802 164.939 54.0188C164.623 53.8291 164.129 53.5958 163.457 53.3191C162.666 52.9791 162.077 52.651 161.69 52.3347C161.31 52.0185 161.025 51.6469 160.836 51.22C160.654 50.793 160.52 50.3238 160.52 49.7546C160.52 47.5948 162.321 46.0688 165.2 46.0688C167.103 46.0688 167.928 46.5355 167.928 46.5355V49.2381C167.928 49.2381 166.575 48.3035 165.17 48.295C164.163 48.295 163.402 48.6615 163.389 49.4911C163.382 50.5604 164.691 51.0816 165.473 51.398C166.611 51.8565 167.444 52.3461 167.911 52.9074C168.377 53.4688 168.58 54.0339 168.58 54.9913Z" fill="#0DD6BE"/>
<path d="M49.3583 36H36.0869V49.2714H49.3583V36Z" fill="#0DD6BE"/>
<path d="M64.0858 36H50.8145V49.2714H64.0858V36Z" fill="#0DD6BE"/>
<path d="M49.3583 50.7288H36.0869V64.0001H49.3583V50.7288Z" fill="#0DD6BE"/>
<path d="M64.0858 50.7288H50.8145V64.0001H64.0858V50.7288Z" fill="#0DD6BE"/>
</g>
<defs>
<linearGradient id="paint0_linear_254_847" x1="102.334" y1="0" x2="102.334" y2="100" gradientUnits="userSpaceOnUse">
<stop stop-color="#00171A"/>
<stop offset="1" stop-color="#00171A" stop-opacity="0"/>
</linearGradient>
<linearGradient id="paint1_linear_254_847" x1="102.334" y1="0" x2="102.334" y2="100" gradientUnits="userSpaceOnUse">
<stop stop-color="#00393D"/>
<stop offset="1" stop-color="#00393D" stop-opacity="0"/>
</linearGradient>
<clipPath id="clip0_254_847">
<rect width="132.493" height="28" fill="white" transform="translate(36.0869 36)"/>
</clipPath>
</defs>
</svg>
