<svg width="204" height="100" viewBox="0 0 204 100" fill="none" xmlns="http://www.w3.org/2000/svg">
<rect x="0.833008" y="0.5" width="202.333" height="99" rx="19.5" fill="url(#paint0_linear_254_672)"/>
<rect x="0.833008" y="0.5" width="202.333" height="99" rx="19.5" stroke="url(#paint1_linear_254_672)"/>
<path d="M48.8165 51.9803C49.1797 51.9803 49.4734 52.2747 49.4734 52.6372C49.4734 52.9997 49.1797 53.2934 48.8165 53.2934C48.4547 53.2934 48.1603 52.9997 48.1603 52.6372C48.1603 52.2747 48.4547 51.981 48.8165 51.981V51.9803ZM52.5042 49.9993H46.9896L39.044 44.7487L39.3734 43.955L45.3581 45.1843L45.3762 40.6467L48.4251 44.1844L53.3819 38.7969L54.1184 39.2339L51.7091 46.3354L58.9688 44.2365C56.7672 39.3838 51.8755 36 46.2082 36C38.4876 36.0002 32.2061 42.2821 32.2061 50.0036C32.2058 54.2152 34.0744 57.9984 37.0261 60.5669V57.8935C37.0261 57.1679 37.6137 56.5811 38.3389 56.5811C39.0639 56.5811 39.6517 57.1686 39.6517 57.8935V62.3743C39.9375 62.5262 40.2298 62.6687 40.5272 62.8011V57.8935C40.5272 57.1679 41.1147 56.5811 41.8396 56.5811C42.5646 56.5811 43.1521 57.1686 43.1521 57.8935V63.6708C43.4408 63.7352 43.7331 63.7909 44.0276 63.8372V57.8935C44.0276 57.1686 44.6158 56.5811 45.3407 56.5811C46.0657 56.5811 46.6532 57.1686 46.6532 57.8935V63.9863C46.6532 63.9913 46.6525 63.9957 46.6525 64C46.9469 63.9906 47.2385 63.9725 47.5279 63.945V52.6416C47.5279 51.9166 48.1161 51.3291 48.8411 51.3291C49.5661 51.3291 50.1535 51.9173 50.1535 52.6416V63.4407C55.9605 61.7325 60.2118 56.3561 60.2118 50.0036C60.2118 48.3895 59.9362 46.8382 59.4312 45.3941L52.5035 49.9993H52.5042Z" fill="#0DD6BE"/>
<path d="M72.8903 60.7326C71.8053 60.7326 70.847 60.5608 70.0152 60.2172C69.1834 59.8737 68.4918 59.3809 67.9403 58.739C67.3888 58.0971 66.9684 57.3286 66.6791 56.4336C66.3898 55.5385 66.2451 54.5485 66.2451 53.4636C66.2451 52.3606 66.3943 51.357 66.6926 50.4529C66.991 49.5488 67.4204 48.7713 67.981 48.1203C68.5415 47.4694 69.2196 46.9676 70.0152 46.615C70.8108 46.2624 71.7059 46.0861 72.7004 46.0861C73.4599 46.0861 74.1696 46.1494 74.8296 46.276C75.4896 46.4025 76.0004 46.5653 76.362 46.7642L75.9009 48.2831C75.5393 48.1023 75.1324 47.9576 74.6804 47.8491C74.2283 47.7406 73.6226 47.6864 72.8631 47.6864C71.3081 47.6864 70.1282 48.1881 69.3236 49.1917C68.5189 50.1953 68.1166 51.6192 68.1166 53.4636C68.1166 54.2954 68.207 55.0593 68.3878 55.7555C68.5687 56.4516 68.8625 57.0483 69.2693 57.5456C69.6762 58.0429 70.2006 58.4316 70.8425 58.7119C71.4844 58.9922 72.2664 59.1323 73.1886 59.1323C73.9481 59.1323 74.5855 59.0464 75.1008 58.8746C75.6161 58.7028 75.9913 58.5537 76.2264 58.4271L76.6061 59.946C76.2806 60.1268 75.7698 60.3031 75.0737 60.4749C74.3775 60.6467 73.6497 60.7326 72.8903 60.7326ZM82.5054 60.6783C81.9087 60.6602 81.3888 60.5834 80.9458 60.4478C80.5028 60.3122 80.1321 60.1042 79.8338 59.8239C79.5354 59.5437 79.3094 59.182 79.1557 58.739C79.002 58.296 78.9251 57.74 78.9251 57.0709V39.7122L80.6881 39.3867V57.0167C80.6881 57.4507 80.7288 57.7987 80.8102 58.0609C80.8916 58.3231 81.0136 58.5311 81.1764 58.6848C81.3391 58.8385 81.5516 58.9515 81.8137 59.0238C82.0759 59.0961 82.3879 59.1594 82.7495 59.2137L82.5054 60.6783ZM97.2196 53.4365C97.2196 54.5395 97.0614 55.543 96.745 56.4471C96.4285 57.3512 95.9855 58.1197 95.416 58.7526C94.8464 59.3855 94.1728 59.8782 93.3953 60.2308C92.6178 60.5834 91.7589 60.7597 90.8186 60.7597C89.8783 60.7597 89.0194 60.5834 88.2419 60.2308C87.4644 59.8782 86.7908 59.3855 86.2212 58.7526C85.6517 58.1197 85.2087 57.3512 84.8922 56.4471C84.5758 55.543 84.4176 54.5395 84.4176 53.4365C84.4176 52.3334 84.5758 51.3299 84.8922 50.4258C85.2087 49.5217 85.6517 48.7487 86.2212 48.1068C86.7908 47.4649 87.4644 46.9676 88.2419 46.615C89.0194 46.2624 89.8783 46.0861 90.8186 46.0861C91.7589 46.0861 92.6178 46.2624 93.3953 46.615C94.1728 46.9676 94.8464 47.4649 95.416 48.1068C95.9855 48.7487 96.4285 49.5217 96.745 50.4258C97.0614 51.3299 97.2196 52.3334 97.2196 53.4365ZM95.3482 53.4365C95.3482 51.6825 94.9413 50.2857 94.1276 49.2459C93.3139 48.2062 92.2109 47.6864 90.8186 47.6864C89.4263 47.6864 88.3233 48.2062 87.5096 49.2459C86.6959 50.2857 86.289 51.6825 86.289 53.4365C86.289 55.1904 86.6959 56.5827 87.5096 57.6134C88.3233 58.6441 89.4263 59.1594 90.8186 59.1594C92.2109 59.1594 93.3139 58.6441 94.1276 57.6134C94.9413 56.5827 95.3482 55.1904 95.3482 53.4365ZM111.202 59.946C110.677 60.0906 109.972 60.2534 109.086 60.4342C108.2 60.615 107.115 60.7054 105.831 60.7054C104.782 60.7054 103.905 60.5517 103.2 60.2443C102.495 59.9369 101.925 59.503 101.492 58.9424C101.058 58.3819 100.746 57.7038 100.556 56.9082C100.366 56.1126 100.271 55.2356 100.271 54.2773V46.4116H102.034V53.7077C102.034 54.7022 102.106 55.543 102.251 56.2301C102.396 56.9173 102.631 57.4733 102.956 57.8982C103.282 58.3231 103.702 58.6305 104.217 58.8204C104.733 59.0102 105.361 59.1052 106.102 59.1052C106.934 59.1052 107.657 59.06 108.272 58.9696C108.887 58.8791 109.276 58.7978 109.439 58.7255V46.4116H111.202V59.946ZM126.404 60.0002C125.88 60.1811 125.211 60.3528 124.397 60.5156C123.583 60.6783 122.553 60.7597 121.305 60.7597C120.274 60.7597 119.338 60.5924 118.498 60.2579C117.657 59.9234 116.934 59.4397 116.328 58.8068C115.722 58.1739 115.252 57.4055 114.917 56.5014C114.583 55.5973 114.416 54.5756 114.416 53.4365C114.416 52.3696 114.556 51.3887 114.836 50.4936C115.116 49.5985 115.528 48.8255 116.07 48.1746C116.613 47.5236 117.277 47.0173 118.064 46.6557C118.85 46.2941 119.75 46.1132 120.762 46.1132C121.685 46.1132 122.485 46.2443 123.163 46.5065C123.841 46.7687 124.334 47.0173 124.641 47.2524V39.7122L126.404 39.3867V60.0002ZM124.641 48.9612C124.478 48.8346 124.275 48.699 124.031 48.5543C123.787 48.4097 123.502 48.274 123.176 48.1475C122.851 48.0209 122.498 47.9169 122.119 47.8355C121.739 47.7542 121.341 47.7135 120.925 47.7135C120.057 47.7135 119.329 47.8672 118.742 48.1746C118.154 48.482 117.679 48.8933 117.318 49.4087C116.956 49.924 116.694 50.5298 116.531 51.2259C116.369 51.9221 116.287 52.6589 116.287 53.4365C116.287 55.2808 116.748 56.6957 117.67 57.6812C118.593 58.6667 119.813 59.1594 121.332 59.1594C122.2 59.1594 122.901 59.1187 123.434 59.0374C123.967 58.956 124.37 58.8701 124.641 58.7797V48.9612ZM128.886 51.7277H135.016V53.4365H128.886V51.7277ZM139.26 60.4342H137.497V46.4116H139.26V60.4342ZM139.667 42.1804C139.667 42.5963 139.541 42.9263 139.287 43.1704C139.034 43.4145 138.727 43.5365 138.365 43.5365C138.004 43.5365 137.696 43.4145 137.443 43.1704C137.19 42.9263 137.063 42.5963 137.063 42.1804C137.063 41.7645 137.19 41.4345 137.443 41.1904C137.696 40.9463 138.004 40.8242 138.365 40.8242C138.727 40.8242 139.034 40.9463 139.287 41.1904C139.541 41.4345 139.667 41.7645 139.667 42.1804ZM143.315 46.8998C143.84 46.7551 144.545 46.5924 145.431 46.4116C146.317 46.2308 147.402 46.1404 148.686 46.1404C149.752 46.1404 150.643 46.2941 151.357 46.6014C152.071 46.9088 152.641 47.3473 153.066 47.9169C153.491 48.4865 153.794 49.1691 153.975 49.9647C154.155 50.7603 154.246 51.6373 154.246 52.5956V60.4342H152.483V53.1652C152.483 52.1707 152.415 51.3299 152.279 50.6428C152.144 49.9557 151.918 49.3951 151.601 48.9612C151.285 48.5272 150.869 48.2153 150.354 48.0254C149.838 47.8355 149.192 47.7406 148.414 47.7406C147.583 47.7406 146.864 47.7858 146.258 47.8762C145.652 47.9666 145.259 48.048 145.078 48.1203V60.4342H143.315V46.8998ZM159.901 60.4342H158.138V46.4116H159.901V60.4342ZM160.308 42.1804C160.308 42.5963 160.181 42.9263 159.928 43.1704C159.675 43.4145 159.368 43.5365 159.006 43.5365C158.644 43.5365 158.337 43.4145 158.084 43.1704C157.831 42.9263 157.704 42.5963 157.704 42.1804C157.704 41.7645 157.831 41.4345 158.084 41.1904C158.337 40.9463 158.644 40.8242 159.006 40.8242C159.368 40.8242 159.675 40.9463 159.928 41.1904C160.181 41.4345 160.308 41.7645 160.308 42.1804ZM165.61 46.4116H171.198V47.9034H165.61V55.3622C165.61 56.1578 165.678 56.8042 165.814 57.3015C165.949 57.7988 166.144 58.183 166.397 58.4542C166.65 58.7255 166.958 58.9063 167.319 58.9967C167.681 59.0871 168.079 59.1323 168.513 59.1323C169.254 59.1323 169.851 59.0464 170.303 58.8746C170.755 58.7028 171.107 58.5446 171.36 58.4L171.794 59.8646C171.541 60.0274 171.098 60.2127 170.465 60.4206C169.833 60.6286 169.145 60.7326 168.404 60.7326C167.536 60.7326 166.808 60.6195 166.221 60.3935C165.633 60.1675 165.163 59.8239 164.81 59.3628C164.458 58.9018 164.209 58.3277 164.064 57.6405C163.92 56.9534 163.847 56.1397 163.847 55.1995V42.2889L165.61 41.9634V46.4116Z" fill="#0DD6BE"/>
<defs>
<linearGradient id="paint0_linear_254_672" x1="102" y1="0" x2="102" y2="100" gradientUnits="userSpaceOnUse">
<stop stop-color="#00171A"/>
<stop offset="1" stop-color="#00171A" stop-opacity="0"/>
</linearGradient>
<linearGradient id="paint1_linear_254_672" x1="102" y1="0" x2="102" y2="100" gradientUnits="userSpaceOnUse">
<stop stop-color="#00393D"/>
<stop offset="1" stop-color="#00393D" stop-opacity="0"/>
</linearGradient>
</defs>
</svg>
