<svg width="117" height="48" viewBox="0 0 117 48" fill="none" xmlns="http://www.w3.org/2000/svg">
<g clip-path="url(#clip0_50_7506)">
<path fill-rule="evenodd" clip-rule="evenodd" d="M101.663 26.2902C101.663 26.2902 102.939 26.2299 104.375 25.9688C105.534 25.7589 106.58 25.163 106.58 25.163V29.0279C106.58 29.0279 107.454 25.3806 111.616 25.3806C112.517 25.3806 116.409 25.163 116.409 30.5681C116.409 30.8114 116.409 41.2768 116.409 42.5023C116.409 45.1406 116.976 46.0648 116.976 46.0648C116.976 46.0648 115.399 45.8884 114.219 45.8884C113.039 45.8884 112.039 46.0648 112.039 46.0648C112.039 46.0648 112.515 44.5078 112.515 40.5335C112.515 38.4844 112.515 34.6697 112.515 33.1685C112.515 31.6674 112.749 28.3784 110.019 28.3784C106.413 28.3784 106.65 32.9319 106.65 35.048C106.65 37.1641 106.65 41.7266 106.65 42.4409C106.65 44.9822 107.04 46.0648 107.04 46.0648C107.04 46.0648 105.867 45.9208 104.378 45.9208C102.889 45.9208 102.256 46.0648 102.256 46.0648C102.256 46.0648 102.797 45.2523 102.797 40.7835C102.797 36.3136 102.797 33.1685 102.797 31.4654C102.797 26.5871 101.663 26.2902 101.663 26.2902Z" fill="white"/>
<path fill-rule="evenodd" clip-rule="evenodd" d="M80.3302 16.7847L83.472 19.9264L80.3302 23.0682L77.1885 19.9264L80.3302 16.7847Z" fill="#A80030"/>
<path fill-rule="evenodd" clip-rule="evenodd" d="M82.4043 42.25C82.4043 41.0502 82.4043 29.6261 82.4043 28.2835C82.4043 26.9397 82.7291 25.163 82.7291 25.163C82.7291 25.163 81.8898 25.6284 80.6978 25.9107C79.507 26.1942 77.4121 26.4152 77.4121 26.4152C77.4121 26.4152 78.5762 26.7969 78.5762 30.3884C78.5762 32.3605 78.5762 39.3493 78.5762 40.5915C78.5762 45.394 77.873 46.0648 77.873 46.0648C77.873 46.0648 79.3753 45.8839 80.632 45.8839C81.8887 45.8839 83.0996 46.0648 83.0996 46.0648C83.0996 46.0648 82.4043 45.0424 82.4043 42.25Z" fill="white"/>
<path fill-rule="evenodd" clip-rule="evenodd" d="M86.5294 30.3181C86.5294 30.3181 86.4535 29.6641 86.054 28.577C85.6544 27.49 85.3654 27.1195 85.3654 27.1195C85.3654 27.1195 88.1221 25.3806 92.3062 25.3806C97.5942 25.3806 98.6455 27.7512 98.6455 31.4253V41.8125C98.6455 45.5882 99.4357 46.0648 99.4357 46.0648C99.4357 46.0648 98.6556 45.9431 97.381 45.9431C96.1064 45.9431 95.0629 46.0648 95.0629 46.0648C95.0629 46.0648 94.9714 44.4777 94.9714 43.4833V42.1518C94.9714 42.1518 93.7872 46.1976 89.7616 46.1976C85.737 46.1976 84.7549 42.9453 84.7549 40.048C84.7549 37.8773 85.112 33.1753 92.5864 33.1753C94.3509 33.1753 94.881 33.2891 94.881 33.2891V31.8416C94.881 30.9041 94.9145 28.3494 91.8297 28.3494C88.439 28.3494 86.5294 30.3181 86.5294 30.3181ZM92.4413 35.49H94.958C94.958 35.49 95.4971 42.9253 91.2102 42.9253C90.0082 42.9253 88.5027 42.2612 88.5027 39.4107C88.5027 35.8873 91.3397 35.49 92.4413 35.49Z" fill="white"/>
<path fill-rule="evenodd" clip-rule="evenodd" d="M61.3273 24.6596V42.0603C61.3273 44.1797 60.8842 45.3471 60.8842 45.3471C60.8842 45.3471 63.0103 46.2835 66.3273 46.2835C72.9713 46.2835 75.9512 41.8862 75.9512 34.2221C75.9512 32.5447 75.9009 25.3806 70.1811 25.3806C66.1878 25.3806 65.0561 29.8449 65.0561 29.8449V27.2054C65.0561 25.1228 65.3686 17.9431 65.3686 17.9431C65.3686 17.9431 64.4478 18.5012 62.7525 18.952C61.0572 19.4029 59.8496 19.4253 59.8496 19.4253C59.8496 19.4253 61.3273 19.692 61.3273 24.6596ZM65.1454 37.8025C65.1454 40.1607 65.248 43.6887 65.248 43.6887C65.248 43.6887 66.5114 43.8907 67.017 43.8907C71.5539 43.8907 71.9746 38.6462 71.9746 36.0648C71.9746 33.4833 71.7492 28.9029 68.6755 28.9029C64.959 28.9029 65.1454 35.4442 65.1454 37.8025Z" fill="white"/>
<path fill-rule="evenodd" clip-rule="evenodd" d="M59.8852 42.3315C59.8852 42.3315 59.653 43.3293 59.5604 44.2579C59.4678 45.1875 59.5102 45.7288 59.5102 45.7288C59.5102 45.7288 58.2646 46.2813 55.1095 46.2813C45.2747 46.2813 45.9778 36.8282 45.9778 35.4989C45.9778 34.1697 45.8863 25.3806 53.4432 25.3806C59.4611 25.3806 59.9488 30.519 59.9488 33.8125C59.9488 35.9945 59.8863 36.3036 59.8863 36.3036H50.0057C50.0057 36.3036 49.2981 43.4398 55.7847 43.4398C58.5303 43.4398 59.8852 42.3315 59.8852 42.3315ZM49.9108 33.6998H56.2278C56.2278 33.6998 56.8974 27.8549 53.22 27.8549C49.5113 27.8549 49.9108 33.6998 49.9108 33.6998Z" fill="white"/>
<path fill-rule="evenodd" clip-rule="evenodd" d="M44.6332 17.9431C44.6332 17.9431 44.2047 21.1474 44.2047 26.0536V37.9889C44.2047 44.7645 45.1946 46.0648 45.1946 46.0648C45.1946 46.0648 44.0272 45.9599 43.1712 45.9599C42.314 45.9599 40.6109 46.0648 40.6109 46.0648L40.5261 42.8683C40.5261 42.8683 39.8486 46.2277 36.0696 46.2277C32.2906 46.2277 29.7314 42.6563 29.7314 35.5134C29.7314 32.2099 30.3475 25.3806 37.6176 25.3806C39.3877 25.3806 40.5819 25.9286 40.5819 25.9286V22.4855C40.5819 19.8974 39.5707 19.4253 39.5707 19.4253C39.5707 19.4253 41.1623 19.2255 42.583 18.8137C44.0027 18.4007 44.6332 17.9431 44.6332 17.9431ZM40.4625 28.798C40.4625 28.798 39.4044 28.1116 38.0518 28.1116C33.814 28.1116 33.6779 32.8382 33.6779 34.9911C33.6779 37.144 33.8977 42.8583 37.5361 42.8583C40.3687 42.8583 40.4759 40.134 40.4759 36.2411L40.4625 28.798Z" fill="white"/>
<path fill-rule="evenodd" clip-rule="evenodd" d="M19.258 29.6954C19.258 29.6954 19.383 29.5536 19.383 29.1507C19.383 28.7478 19.3763 28.692 19.3205 28.692C19.2635 28.692 19.1776 28.7813 19.1586 28.9163C19.1463 29.0012 19.0693 29.1016 19.0693 29.1608C19.0693 29.2199 19.1754 29.2367 19.1754 29.3192C19.1754 29.5235 19.258 29.6954 19.258 29.6954Z" fill="#A80030"/>
<path fill-rule="evenodd" clip-rule="evenodd" d="M15.1172 32.9543C15.1172 33.0391 15.4509 33.1262 15.7533 33.1998C16.0558 33.2735 15.9989 33.2132 16.0915 33.2489C16.1842 33.2846 16.2165 33.3315 16.2902 33.2567C16.3638 33.1831 16.8136 32.8259 16.7321 32.8259C16.6507 32.8259 16.5301 32.9297 16.2388 32.9297C15.7232 32.9297 15.5592 32.9052 15.4152 32.9052C15.2701 32.9052 15.1172 32.9264 15.1172 32.9543Z" fill="#A80030"/>
<path fill-rule="evenodd" clip-rule="evenodd" d="M14.8426 48C14.8426 48 14.067 47.9878 13.5469 47.9878C13.0268 47.9878 12.8705 47.9565 12.7411 47.9565C12.6116 47.9565 12.4777 47.9454 12.1384 47.8706C11.7991 47.7958 11.4933 47.6842 11.2723 47.6161C11.0502 47.548 10.4475 47.3438 10.0391 47.2132C9.62947 47.0826 8.53906 46.7121 7.89509 46.4387C7.24888 46.1652 6.28237 45.7188 5.47768 45.0681C4.67188 44.4174 4.08147 43.9096 3.12723 42.6887C2.17299 41.4677 1.63393 40.567 1.24888 39.7065C0.864955 38.846 0.46875 37.5748 0.407366 36.2478C0.389509 35.8494 0.339286 34.3695 0.339286 33.2489C0.339286 32.1273 0.363839 31.7623 0.344866 31.4822C0.325893 31.2032 0.313616 30.7199 0.313616 30.4532C0.313616 30.1864 0.414062 28.6708 0.414062 28.3828C0.414062 28.2735 0.257812 28.0302 0.257812 27.9799C0.257812 27.9308 0.863839 25.9788 1.03795 25.5012C1.21317 25.0235 1.58929 24.2612 1.67746 24.0882C1.76451 23.9141 1.78906 23.7768 1.78906 23.7768C1.78906 23.7768 1.85714 23.9822 1.9442 23.9822C2.03125 23.9822 2.19754 23.7366 2.30915 23.5369C2.42188 23.3371 2.55246 23.0402 2.61942 22.817C2.6875 22.5938 2.78906 22.4275 2.83705 22.2969C2.88616 22.1663 2.99888 22.0536 3.05357 21.9297C3.10938 21.807 3.12723 21.769 3.19643 21.769C3.26451 21.769 3.27009 21.7255 3.36942 21.3918C3.46987 21.057 3.60714 20.9398 3.6808 20.8092C3.75335 20.6775 4.10826 20.3862 4.29353 20.2433C4.47991 20.1016 4.80134 19.8159 4.98103 19.6931C5.16071 19.5692 5.57366 19.173 5.78571 18.9554C5.99777 18.7389 6.05357 18.6507 6.05357 18.6507C6.05357 18.6507 6.08482 18.7277 6.08482 18.807C6.08482 18.8873 6.08929 18.9732 6.19531 18.8616C6.30134 18.7512 6.62388 18.4654 6.8471 18.3047C7.07031 18.144 7.4375 17.8393 7.77121 17.6786C8.10491 17.5179 8.55022 17.3192 9.02232 17.1462C9.4933 16.9721 10.0558 16.7791 10.3605 16.6183C10.6641 16.4576 11.0547 16.3025 11.0547 16.3025C11.0547 16.3025 10.7589 16.6005 11.0123 16.5447C11.2656 16.4889 12.0022 16.2277 12.3192 16.2277C12.4933 16.2277 12.6183 16.2087 12.6183 16.2087C12.6183 16.2087 12.3382 16.3762 12.1964 16.4509C12.0536 16.5257 11.9174 16.6306 11.9174 16.6306C11.9174 16.6306 12.5134 16.4889 12.6429 16.4889C12.7723 16.4889 12.8359 16.6686 13.0949 16.6686C13.3549 16.6686 13.6964 16.5994 13.6964 16.5994C13.6964 16.5994 13.4844 16.6998 13.3862 16.6998C13.2879 16.6998 13.2489 16.7556 13.144 16.7612C13.0391 16.7679 13.0391 16.8482 13.1942 16.8538C13.3482 16.8605 13.7712 16.8728 13.9263 16.8728C14.26 16.8728 14.2913 16.6116 14.5815 16.6116C14.7433 16.6116 15.4129 16.8538 15.4129 16.8538L15.3147 16.5201C15.3147 16.5201 16.356 16.9297 16.7154 16.9855C17.0737 17.0402 17.2489 17.096 17.5826 17.2634C17.9174 17.4297 18.6228 17.7969 18.6228 17.7969C18.6228 17.7969 18.9163 17.8159 19.0022 17.7846C19.0882 17.7534 19.1384 17.5737 19.3114 17.5737C19.4855 17.5737 20.0737 17.7657 20.0737 17.9141C20.0737 18.0625 20.1038 18.1328 20.1842 18.1808C20.2656 18.2299 20.9978 18.7009 20.9978 18.7009C20.9978 18.7009 21.096 18.6395 20.9732 18.5458C20.8493 18.4532 20.5513 18.1128 20.5513 18.1128C20.5513 18.1128 21.0413 18.4275 21.2455 18.5212C21.4509 18.615 22.0145 18.9978 22.3739 19.2456C22.7333 19.4945 23.2277 19.952 23.5502 20.2936C23.8739 20.6351 24.5368 21.4398 24.8158 22.1719C25.0949 22.9041 25.442 23.9755 25.442 23.9755C25.442 23.9755 25.0636 23.288 25.0134 23.3003C24.9643 23.3137 25.2121 24.2121 25.2556 24.336C25.2991 24.4599 25.2556 24.4599 25.2121 24.4777C25.1685 24.4967 25.125 24.5268 25.1998 24.6328C25.2746 24.7389 25.4866 25.4074 25.5658 25.6931C25.6462 25.9788 25.8382 26.9331 25.8382 26.9331C25.8382 26.9331 25.654 26.3215 25.5603 25.9174C25.4665 25.5134 25.2935 25.0358 25.1685 24.7143C24.9766 24.2177 24.519 23.5603 24.519 23.5603C24.519 23.5603 24.4676 23.9264 24.3627 23.9264C24.2578 23.9264 23.9487 23.5235 23.8493 23.5235C23.7489 23.5235 23.8348 23.702 23.9475 24.1741C24.0603 24.6451 24.3136 25 24.2835 24.7143C24.2522 24.4286 24.1975 24.2177 24.3136 24.4219C24.4319 24.6262 24.567 24.8862 24.567 24.9733C24.567 25.0603 24.5737 25.384 24.6239 25.5012C24.673 25.6183 24.865 26.3203 24.8281 26.3628C24.7902 26.4052 24.7042 26.3248 24.6417 26.1585C24.5804 25.9911 24.5123 25.8605 24.4754 25.8605C24.4375 25.8605 24.3315 25.8483 24.4319 26.1708C24.5313 26.4922 24.6161 26.7835 24.7422 26.9141C24.8683 27.0447 24.9163 27.0313 24.8683 27.0837C24.8203 27.1362 24.8326 27.1362 24.798 27.0927C24.7634 27.0491 24.6942 27.0402 24.6942 27.3449C24.6942 27.6496 24.7634 28.3237 24.8415 28.3237C24.9208 28.3237 24.9766 28.1195 25.0904 28.1195C25.2031 28.1195 25.1339 28.1418 25.0725 28.4063C25.0112 28.6719 24.9208 28.7199 24.8549 28.8985C24.7902 29.077 24.6417 29.1764 24.6417 29.5157C24.6417 29.8561 24.7422 30.1172 24.7422 30.1172C24.7422 30.1172 24.6283 29.9119 24.5938 29.769C24.5592 29.625 24.4888 29.6206 24.4888 29.5592C24.4888 29.4387 24.4408 29.4822 24.4408 29.6161C24.4408 29.8382 24.4152 29.8382 24.4152 29.8773C24.4152 29.9163 24.4855 29.8717 24.4855 29.9688C24.4855 30.0648 24.5201 30.0257 24.5201 30.1217C24.5201 30.2166 24.5201 30.3259 24.5201 30.3605C24.5201 30.3951 24.4152 30.2344 24.4152 30.1128C24.4152 29.9911 24.433 29.8561 24.3627 29.9342C24.2935 30.0123 24.2634 30.086 24.2634 30.086C24.2634 30.086 24.2634 30.4174 24.2634 30.6652C24.2634 30.913 24.2065 31.2924 24.0458 31.5145C23.8839 31.7355 23.7712 31.8527 23.7154 31.9532C23.6585 32.0536 23.3906 32.3371 23.375 32.5625C23.3538 32.8672 23.375 33.1373 23.375 33.1373L23.058 32.663C23.058 32.663 22.8136 32.9766 22.6875 33.1898C22.5614 33.4018 22.4743 33.5458 22.4743 33.5938C22.4743 33.6418 22.4788 33.6418 22.5435 33.6418C22.6094 33.6418 22.7879 33.5503 22.7879 33.6418C22.7879 33.7333 22.4487 34.3951 22.4487 34.2991C22.4487 34.2645 22.6217 34.0603 22.5357 34.0603C22.4487 34.0603 22.3739 34.1027 22.4174 34.0246C22.4609 33.9465 22.6272 33.7422 22.6272 33.7422C22.6272 33.7422 22.4342 33.7902 22.2612 33.9643C22.0871 34.1384 21.9833 34.2835 21.8906 34.3762C21.7969 34.4688 21.7846 34.4822 21.6797 34.5748C21.5737 34.6674 21.3594 34.8337 21.2288 34.9509C21.0982 35.0704 20.452 35.5335 20.0938 35.8025C19.7355 36.0704 18.9788 36.6195 18.173 36.7991C17.3672 36.9777 16.9967 36.9878 16.7388 36.9878C16.4788 36.9878 15.7377 36.9721 14.2455 36.4509C13.5067 36.1931 13.3337 36.1329 13.3337 36.1116C13.3337 36.0904 13.3717 36.1038 13.3717 36.0837C13.3717 36.0637 13.2266 35.9643 12.9922 35.7802C12.7578 35.596 12.1429 35.1094 11.9665 34.9755C11.7902 34.8416 11.3482 34.4811 11.2188 34.3795C11.0904 34.2768 10.5357 33.74 10.5357 33.74L10.6484 34.0971C10.6484 34.0971 10.6083 34.0726 10.5223 33.9052C10.4364 33.7378 10.2087 33.3371 10.096 33.125C9.98214 32.9119 9.7154 32.4699 9.7154 31.9498C9.7154 30.6808 9.89174 29.7199 9.89174 29.2969C9.89174 29.1697 9.92746 29.1083 10.0491 28.9978C10.1708 28.8873 10.2344 28.7523 10.2868 28.4509C10.3393 28.1496 10.4252 27.5994 10.6016 27.3974C10.8281 27.1373 11.1406 26.9833 11.1853 26.884C11.2288 26.7835 11.5781 26.1094 11.6998 25.9878C11.8203 25.8661 11.9676 25.6953 12.0893 25.6016C12.2109 25.5067 12.3125 25.4565 12.4643 25.3471C12.6172 25.2366 12.9542 25.0815 13.1808 24.99C13.4074 24.8985 14.2946 24.8215 14.5379 24.8215C14.7813 24.8215 15.4888 24.8215 15.7065 24.8215C15.9252 24.8215 16.4565 24.9074 16.8348 25.134C17.2143 25.3605 17.4676 25.5949 17.6194 25.7311C17.7723 25.8661 18.0045 26.1507 18.0926 26.2556C18.1808 26.3605 18.3605 26.5849 18.3605 26.5849C18.3605 26.5849 18.106 26.3828 17.8884 26.2009C17.6696 26.0179 17.2958 25.7054 16.9699 25.5536C16.644 25.4018 16.048 25.2422 15.5915 25.2422C15.135 25.2422 14.7009 25.3137 14.317 25.4788C13.933 25.6451 13.4185 25.8527 12.9129 26.1262C12.4062 26.3996 12.0368 26.6016 11.7355 26.8862C11.4342 27.1708 11 27.8014 10.8538 28.2679C10.7065 28.7355 10.6596 28.9621 10.6596 29.144C10.6596 29.327 10.6596 29.5983 10.6596 29.7556C10.6596 29.913 10.6853 29.9543 10.6853 30.1206C10.6853 30.2858 10.6853 30.4186 10.6853 30.5235C10.6853 30.6284 10.7154 30.5904 10.7266 30.5346C10.7377 30.4799 10.8092 30.5268 10.8092 30.4744C10.8092 30.4219 10.8672 30.2411 10.8672 30.4465C10.8672 30.6507 10.904 32.0078 11.0625 32.7869C11.221 33.5648 11.7087 34.423 12.5737 35.0826C13.4375 35.7422 14.5 36.2043 15.2121 36.2043C16.1161 36.2043 17.8583 35.432 17.8583 35.432C17.8583 35.432 17.8728 35.5112 17.933 35.5112C17.9944 35.5112 18.1953 35.4442 18.4955 35.3449C18.7958 35.2456 18.9241 35.2299 18.9911 35.1016C19.058 34.9744 19.0134 34.9677 19.1027 34.8784C19.1931 34.7891 19.6462 34.3985 19.6875 34.4085C19.7299 34.4174 19.6786 34.5168 19.5413 34.6228C19.404 34.7277 19.2154 34.846 19.4353 34.846C19.7612 34.846 20.3973 34.2266 20.8259 33.8326C21.2545 33.4398 21.423 33.2835 21.5324 33.2166C21.6406 33.1496 21.6696 33.0469 21.7076 32.9409C21.7467 32.836 21.8036 32.6853 21.7489 32.6853C21.6953 32.6853 21.5703 32.692 21.6183 32.5804C21.6663 32.4688 21.846 32.0369 21.9029 32.0369C21.9598 32.0369 22.0435 32.0078 22.0815 31.9509C22.1205 31.8929 22.3661 31.8962 22.3661 31.7523C22.3661 31.6083 22.5547 31.2545 22.6696 30.9855C22.7846 30.7166 22.8304 30.615 22.8304 30.5224C22.8304 30.4297 22.8304 29.8058 22.8304 29.8058L22.5234 30.5503C22.5234 30.5503 22.8482 29.5212 22.8482 28.9532C22.8482 28.6429 22.7533 27.9465 22.7533 27.6295C22.7533 27.3137 22.779 27.1953 22.779 27.0291C22.779 26.8628 22.7879 26.7735 22.7467 26.7735C22.7054 26.7735 22.673 26.7512 22.673 26.6641C22.673 26.5782 22.5804 25.6038 22.5547 25.3895C22.529 25.1753 22.3761 24.2512 22.1462 23.817C22.0045 23.5491 21.8873 23.2991 21.4877 22.7244C21.0882 22.1485 20.8348 21.8549 20.3817 21.4453C19.9275 21.0369 19.7132 20.8605 19.01 20.471C18.308 20.0815 17.7132 19.7936 17.3906 19.6619C17.067 19.5313 16.3103 19.2366 15.8906 19.1607C15.4721 19.0837 14.683 18.9978 14.1362 18.9978C13.5904 18.9978 13.1395 19.0681 12.9542 19.1317C12.769 19.1953 12.74 19.2277 12.6953 19.2277C12.6127 19.2277 12.6853 19.3137 12.6183 19.3137C12.5368 19.3137 12.3984 19.3494 12.2288 19.4063C12.0592 19.4643 11.9029 19.5503 11.9029 19.5503C11.9029 19.5503 11.8516 19.49 12.2031 19.3806C12.4699 19.2991 12.6217 19.269 12.6217 19.2311C12.6217 19.192 12.5446 19.1987 12.5067 19.1987C12.4688 19.1987 11.9989 19.2601 11.5703 19.3114C11.1417 19.3616 10.7388 19.471 10.7388 19.6373C10.7388 19.8025 10.6663 19.9186 10.2087 20.0815C9.75223 20.2445 9.39062 20.2857 9.33259 20.3393C9.27567 20.394 9.17299 20.557 9.17299 20.557C9.17299 20.557 9.27455 20.5625 9.65848 20.4197C10.1484 20.2378 10.2087 20.1451 10.2087 20.2087C10.2087 20.2724 9.6529 20.663 9.08705 20.663C8.80915 20.663 8.63951 20.6083 8.51116 20.6083C8.38393 20.6083 8.25 20.6853 7.78237 21.1072C7.31585 21.5291 7.17857 21.6953 7.17857 21.6953C7.17857 21.6953 7.22321 21.7657 7.30692 21.7657C7.38951 21.7657 7.61719 21.5637 7.68415 21.4744C7.75112 21.3851 7.88281 21.3259 7.69978 21.5224C7.38951 21.8549 7.43415 21.884 7.38058 21.884C7.32589 21.884 7.22656 21.884 7.05804 21.884C6.88839 21.884 6.20424 21.9119 5.4308 22.7076C4.65737 23.5034 3.99888 24.2009 3.6317 24.75C3.26339 25.3003 3.24442 25.3828 3.15848 25.4755C3.07254 25.5681 3.04688 25.5782 3.04688 25.5782L3.37835 25.6038C3.37835 25.6038 3.15513 26.1507 2.97656 26.5681C2.79688 26.9878 2.65625 27.038 2.50335 27.317C2.34933 27.5949 2.21205 27.9241 2.17411 28.5056C2.13616 29.0871 2.03683 29.8795 1.98549 30.2891C1.93415 30.6976 1.8125 31.3471 1.76451 31.7623C1.71652 32.1775 1.70759 32.4074 1.70759 32.6596C1.70759 32.913 1.76116 33.3181 2.00781 33.6864C2.25335 34.0536 2.30469 34.1172 2.30469 34.1942C2.30469 34.2712 2.27009 34.3416 2.27009 34.5424C2.27009 34.7445 2.24442 35.0023 2.24442 35.0023C2.24442 35.0023 2.36049 35.0971 2.40402 35.2712C2.44866 35.4498 2.58594 35.6161 2.58594 35.6161H2.39063C2.39063 35.6161 2.99554 37.4922 3.14174 37.4922C3.28906 37.4922 3.35603 36.6295 3.52902 36.6295C3.62165 36.6295 3.70201 36.7991 3.79129 36.9721C3.88058 37.144 4.08594 37.5949 4.1942 37.8572C4.43973 38.4543 4.55804 38.5893 4.48772 38.5826C4.41741 38.5759 4.15848 38.4833 4.05022 38.3137C3.94085 38.1451 3.92522 38.0871 3.92522 38.2824C3.92522 38.4766 3.98884 38.471 3.98884 38.5603C3.98884 38.6496 4.09487 38.7054 4.19085 38.9174C4.30246 39.1674 4.47545 39.3907 4.57143 39.5224C4.66629 39.6529 4.76897 39.7233 4.71429 39.7835C4.66071 39.8449 4.62835 39.8449 4.62835 39.8862C4.62835 39.9275 4.54576 39.9253 4.54911 39.9721C4.55134 40.0201 4.73438 40.3404 4.90067 40.4587C5.06585 40.577 5.21652 40.6853 5.21652 40.6853C5.21652 40.6853 4.85826 40.5257 4.81696 40.5257C4.77567 40.5257 4.65067 40.5067 4.73103 40.644C4.81027 40.7813 5.5558 41.74 5.76339 41.9956C5.97098 42.2512 6.2779 42.711 6.2779 42.711L6.44085 42.4398C6.44085 42.4398 6.44085 42.721 6.44085 42.788C6.44085 42.8549 6.69643 43.2645 6.73103 43.3248C6.76674 43.3862 6.78906 43.4208 6.83036 43.4721C6.87165 43.5235 6.93862 43.5804 6.98103 43.6384C7.02232 43.6954 7.10156 43.798 7.1596 43.8717C7.21763 43.9454 7.21429 44.009 7.32589 44.009C7.4375 44.009 7.45982 43.9766 7.59487 43.9766C7.7288 43.9766 7.72545 43.9733 7.75781 44.0603C7.78906 44.1462 7.89955 44.3438 8.05134 44.4666C8.08371 44.4922 8.15067 44.5938 8.19866 44.6295C8.24665 44.6641 8.29688 44.6931 8.32924 44.7378C8.36161 44.7824 8.46317 44.8561 8.46317 44.8561C8.46317 44.8561 8.5279 44.8907 8.58817 44.9264C8.64955 44.961 8.75112 45.0413 8.82478 45.0413C8.89844 45.0413 9.03906 45.0279 8.98103 45.0994C8.92411 45.1697 8.70089 45.4152 8.75112 45.4286C8.80246 45.4409 9.53795 45.6619 9.53795 45.7445C9.53795 45.7924 9.48661 45.7668 9.48661 45.8561C9.48661 45.9454 9.77121 46.0067 9.89174 46.067C10.0134 46.1284 10.5759 46.3639 10.5 46.2779C10.423 46.192 10.2656 45.8884 10.2757 45.8661C10.2857 45.8427 10.6205 46.2299 10.7109 46.2746C10.8002 46.3192 10.8571 46.4409 10.9375 46.5469C11.0167 46.6518 11.1641 46.8695 11.3783 47C11.5926 47.1317 11.8382 47.3237 12.9989 47.6808C13.2857 47.7701 13.5513 47.6976 13.8326 47.7512C14.115 47.8058 14.8426 48 14.8426 48Z" fill="#A80030"/>
<path fill-rule="evenodd" clip-rule="evenodd" d="M17.7354 32.0759C17.7354 32.0268 17.761 32.0279 17.761 31.9721C17.761 31.9163 17.9597 31.673 18.1483 31.4464C18.3358 31.2187 18.4753 31.0245 18.4753 31.0245C18.4753 31.0245 18.3883 31.3594 18.2454 31.5346C18.1025 31.7087 17.8336 32.0692 17.8492 32.0792C17.8659 32.0893 18.0021 32.0279 18.1929 31.9263C18.3849 31.8259 18.4262 31.8091 18.5824 31.5859C18.7979 31.2801 18.9206 30.8448 18.9206 30.8448C18.9206 30.8448 18.7912 31.5212 18.6025 31.7835C18.4139 32.0469 18.4273 31.9754 18.3682 32.0893C18.3101 32.2031 18.2711 32.2489 18.2845 32.1507C18.2979 32.0536 18.2577 31.9821 18.184 31.9821C18.0155 31.9821 17.8269 32.1897 17.8269 32.135C17.8269 32.0402 17.7354 32.125 17.7354 32.0759Z" fill="#A80030"/>
<path fill-rule="evenodd" clip-rule="evenodd" d="M24.5022 30.3839C24.4687 30.3839 24.4843 30.433 24.4843 30.4955C24.4843 30.558 24.2712 31.2757 24.2578 31.3236C24.2455 31.3728 24.2611 31.4319 24.3247 31.2489C24.3872 31.0658 24.5401 30.6038 24.5401 30.4765C24.5401 30.414 24.5368 30.3839 24.5022 30.3839Z" fill="#A80030"/>
<path fill-rule="evenodd" clip-rule="evenodd" d="M25.0667 30.4542C25.022 30.4542 24.9863 30.6428 24.9395 30.9754C24.8926 31.3091 24.858 31.5123 24.7944 31.7355C24.7307 31.9576 24.6147 32.3471 24.5321 32.5547C24.4495 32.7634 24.0176 33.6473 24.0176 33.6473C24.0176 33.6473 24.2609 33.2812 24.4517 32.8739C24.6415 32.4665 24.743 32.1462 24.7977 31.9576C24.8535 31.769 24.9506 31.3348 24.9685 31.1808C24.9863 31.0257 25.0332 30.7053 25.0622 30.5848C25.0901 30.4643 25.1124 30.4542 25.0667 30.4542Z" fill="#A80030"/>
<path fill-rule="evenodd" clip-rule="evenodd" d="M0.0468751 26.4097C0.0468751 26.4097 0.228795 26.0849 0.277902 25.7199C0.327009 25.355 0.376116 25.2467 0.376116 25.2467C0.376116 25.2467 0 25.6775 0 25.8114C0 26.0235 0.0892857 25.9454 0.0892857 26.0826C0.0892857 26.3338 0.0468751 26.4097 0.0468751 26.4097Z" fill="#A80030"/>
<path fill-rule="evenodd" clip-rule="evenodd" d="M0.607422 23.76C0.607422 23.798 0.711216 23.7634 0.790458 23.6942C0.869699 23.625 0.910993 23.5725 0.890904 23.5558C0.871931 23.539 0.864118 23.5268 0.82952 23.5681C0.794922 23.6105 0.677734 23.6975 0.652065 23.7109C0.626395 23.7232 0.607422 23.7221 0.607422 23.76Z" fill="#A80030"/>
<path fill-rule="evenodd" clip-rule="evenodd" d="M0.883789 23.5202C0.89495 23.5291 0.978655 23.4744 1.04227 23.4354C1.107 23.3952 1.13937 23.3115 1.17955 23.1921C1.21973 23.0726 1.33468 22.8706 1.33022 22.807C1.32687 22.7434 1.2387 22.8081 1.21415 22.8394C1.18848 22.8706 1.11928 22.9008 1.09138 22.9421C1.06459 22.9845 0.967494 23.0459 0.967494 22.9912C0.967494 22.9365 0.921736 22.9041 0.967494 23.0894C0.987584 23.1697 0.941825 23.2679 0.941825 23.3494C0.941825 23.4733 0.883789 23.5202 0.883789 23.5202Z" fill="#A80030"/>
<path fill-rule="evenodd" clip-rule="evenodd" d="M9.67983 33.6105L9.56152 34.0022C9.56152 34.0022 9.7334 34.2076 9.88742 34.4453C10.0426 34.683 10.1609 34.8928 10.2088 34.9542C10.2568 35.0156 10.4343 35.183 10.4912 35.2366C10.5481 35.2902 10.6341 35.3571 10.6341 35.3571C10.6341 35.3571 10.4734 35.019 10.3963 34.8873C10.3193 34.7556 10.2167 34.6127 10.0626 34.3772C9.7959 33.9732 9.67983 33.6105 9.67983 33.6105Z" fill="#A80030"/>
<path fill-rule="evenodd" clip-rule="evenodd" d="M10.3193 34.2042C10.3193 34.2042 10.576 34.5848 10.6698 34.7299C10.7624 34.8739 11.076 35.3582 11.2658 35.5982C11.4555 35.837 11.7289 36.1417 11.9667 36.3192C12.2044 36.4978 12.9187 36.9286 13.1341 37.0323C13.3484 37.1373 13.6832 37.2678 14.0258 37.3917C14.3673 37.5167 14.5771 37.5915 14.7289 37.6239C14.8796 37.6551 15.3138 37.6908 15.4109 37.6908C16.3182 37.6908 17.3149 37.2522 17.3149 37.2522C17.3149 37.2522 16.6229 37.2757 16.2981 37.2757C15.9734 37.2757 15.1798 37.2377 14.585 37.0067C13.9923 36.7745 13.8952 36.7065 13.7903 36.6384C13.6865 36.5703 13.2803 36.2913 13.2803 36.2076C13.2803 36.125 13.3182 36.125 13.3182 36.125C13.3182 36.125 13.2401 36.1004 13.2401 36.2109C13.2401 36.2857 13.2635 36.3091 13.2635 36.3091C13.2635 36.3091 13.191 36.3281 12.7278 36.0658C11.7847 35.5346 11.2691 34.7946 11.2691 34.7946C11.2691 34.7946 11.3316 35.0402 11.6676 35.414C12.0035 35.789 12.2926 36 12.2926 36C12.2926 36 11.8528 35.8136 11.7256 35.7087C11.5972 35.6049 11.2926 35.26 11.1519 35.0692C11.0102 34.8772 10.8785 34.7109 10.8394 34.6462C10.7992 34.5815 10.7557 34.529 10.7189 34.4821C10.5414 34.2511 10.3193 34.2042 10.3193 34.2042Z" fill="#A80030"/>
<path fill-rule="evenodd" clip-rule="evenodd" d="M13.4717 16.4253C13.4717 16.4253 13.6603 16.4119 13.9058 16.4119C14.1514 16.4119 14.4672 16.4331 14.2965 16.4788C14.1268 16.5246 14.004 16.5782 14.004 16.5782C14.004 16.5782 13.8634 16.6172 13.8634 16.5748C13.8634 16.5324 14.0074 16.6239 14.0074 16.5324C14.0074 16.4677 13.4717 16.4253 13.4717 16.4253Z" fill="#A80030"/>
<path fill-rule="evenodd" clip-rule="evenodd" d="M13.3369 16.1195C13.3369 16.144 13.4965 16.1128 13.4965 16.1407C13.4965 16.1697 13.5311 16.1552 13.6159 16.134C13.7019 16.1128 14.1092 16.038 13.9653 16.0414C13.8202 16.0447 13.6896 16.0804 13.5847 16.0838C13.4787 16.0871 13.3369 16.0949 13.3369 16.1195Z" fill="#A80030"/>
<path fill-rule="evenodd" clip-rule="evenodd" d="M14.1662 16.0346C14.2153 16.048 14.4944 16.0659 14.5022 16.048C14.5089 16.0302 14.7444 16.0268 14.6037 16.0056C14.4631 15.9844 14.5077 16.0268 14.3638 16.0235C14.2187 16.0201 14.116 16.0201 14.1662 16.0346Z" fill="#A80030"/>
</g>
<defs>
<clipPath id="clip0_50_7506">
<rect width="116.974" height="32" fill="white" transform="translate(0 16)"/>
</clipPath>
</defs>
</svg>
