<svg width="1280" height="686" viewBox="0 0 1280 686" fill="none" xmlns="http://www.w3.org/2000/svg">
<path d="M1280 0L1244 18M1280 18L1244 36M1280 36L1244 54M1280 54L1244 72M1280 72L1244 90M1280 90L1244 108M1280 108L1244 126M1280 126L1244 144M1280 144L1244 162M1280 162L1244 180M1280 180L1244 198M1280 198L1244 216M1280 216L1244 234M1280 234L1244 252M1280 252L1244 270M1280 270L1244 288M1280 288L1244 306M1280 306L1244 324M1280 324L1244 342M1280 342L1244 360M1280 360L1244 378M1280 378L1244 396M1280 396L1244 414M1280 414L1244 432M1280 432L1244 450M1280 450L1244 468M1280 468L1244 486M1280 486L1244 504M1280 504L1244 522M1280 522L1244 540M1280 540L1244 558M1280 558L1244 576M1280 576L1244 594M1280 594L1244 612M1280 612L1244 630M1280 630L1244 648M1280 648L1244 666M1280 666L1244 684M1280 684L1244 702M1280 702L1244 720M1280 720L1244 738M1280 738L1244 756M1280 756L1244 774M1280 774L1244 792M1280 792L1244 810M1280 810L1244 828M1280 828L1244 846M1280 846L1244 864M1280 864L1244 882M1280 882L1244 900M1280 900L1244 918M1280 918L1244 936M1280 936L1244 954M1280 954L1244 972M1280 972L1244 990M1280 990L1244 1008M1280 1008L1244 1026" stroke="url(#paint0_linear_190_125)"/>
<path d="M36 0L0 18M36 18L0 36M36 36L0 54M36 54L0 72M36 72L0 90M36 90L0 108M36 108L0 126M36 126L0 144M36 144L0 162M36 162L0 180M36 180L0 198M36 198L0 216M36 216L0 234M36 234L0 252M36 252L0 270M36 270L0 288M36 288L0 306M36 306L0 324M36 324L0 342M36 342L0 360M36 360L0 378M36 378L0 396M36 396L0 414M36 414L0 432M36 432L0 450M36 450L0 468M36 468L0 486M36 486L0 504M36 504L0 522M36 522L0 540M36 540L0 558M36 558L0 576M36 576L0 594M36 594L0 612M36 612L0 630M36 630L0 648M36 648L0 666M36 666L0 684M36 684L0 702M36 702L0 720M36 720L0 738M36 738L0 756M36 756L0 774M36 774L0 792M36 792L0 810M36 810L0 828M36 828L0 846M36 846L0 864M36 864L0 882M36 882L0 900M36 900L0 918M36 918L0 936M36 936L0 954M36 954L0 972M36 972L0 990M36 990L0 1008M36 1008L0 1026" stroke="url(#paint1_linear_190_125)"/>
<path d="M32.8418 -12L63.2629 48M63.2629 -12L93.6839 48M93.6839 -12L124.105 48M124.105 -12L154.526 48M154.526 -12L184.947 48M184.947 -12L215.368 48M215.368 -12L245.789 48M245.789 -12L276.21 48M276.21 -12L306.631 48M306.631 -12L337.052 48M337.052 -12L367.473 48M367.473 -12L397.894 48M397.894 -12L428.315 48M428.315 -12L458.737 48M458.737 -12L489.158 48M489.158 -12L519.579 48M519.579 -12L550 48M550 -12L580.421 48M580.421 -12L610.842 48M610.842 -12L641.263 48M641.263 -12L671.684 48M671.684 -12L702.105 48M702.105 -12L732.526 48M732.526 -12L762.947 48M762.947 -12L793.368 48M793.368 -12L823.789 48M823.789 -12L854.21 48M854.21 -12L884.631 48M884.631 -12L915.052 48M915.052 -12L945.473 48M945.473 -12L975.894 48M975.894 -12L1006.32 48M1006.32 -12L1036.74 48M1036.74 -12L1067.16 48M1067.16 -12L1097.58 48M1097.58 -12L1128 48M1128 -12L1158.42 48M1158.42 -12L1188.84 48M1188.84 -12L1219.26 48M1219.26 -12L1249.68 48" stroke="url(#paint2_linear_190_125)"/>
<defs>
<linearGradient id="paint0_linear_190_125" x1="1262" y1="0" x2="1262" y2="1026" gradientUnits="userSpaceOnUse">
<stop stop-color="#002629"/>
<stop offset="0.742191" stop-color="#002629" stop-opacity="0"/>
</linearGradient>
<linearGradient id="paint1_linear_190_125" x1="18" y1="0" x2="18" y2="1026" gradientUnits="userSpaceOnUse">
<stop stop-color="#002629"/>
<stop offset="0.742191" stop-color="#002629" stop-opacity="0"/>
</linearGradient>
<linearGradient id="paint2_linear_190_125" x1="-28" y1="18" x2="1706" y2="18" gradientUnits="userSpaceOnUse">
<stop stop-color="#002629" stop-opacity="0"/>
<stop offset="0.0452344" stop-color="#002629"/>
<stop offset="0.950558" stop-color="#002629"/>
<stop offset="1" stop-color="#002629" stop-opacity="0"/>
</linearGradient>
</defs>
</svg>
