<svg width="51" height="50" viewBox="0 0 51 50" fill="none" xmlns="http://www.w3.org/2000/svg">
<g clip-path="url(#clip0_16_4431)">
<rect x="1.66699" y="1" width="48" height="48" rx="24" fill="#002629"/>
<path d="M1.66699 10.5996H49.667" stroke="#00474D" stroke-width="0.6"/>
<path d="M40.0693 1L40.0693 49" stroke="#00474D" stroke-width="0.6"/>
<path d="M40.0693 7L40.0693 14.2" stroke="url(#paint0_linear_16_4431)" stroke-width="0.6"/>
<path d="M43.667 10.5996L36.467 10.5996" stroke="url(#paint1_linear_16_4431)" stroke-width="0.6"/>
<path d="M1.66699 39.4004H49.667" stroke="#00474D" stroke-width="0.6"/>
<path d="M11.2646 1L11.2646 49" stroke="#00474D" stroke-width="0.6"/>
<path d="M40.0693 35.8008L40.0693 43.0008" stroke="url(#paint2_linear_16_4431)" stroke-width="0.6"/>
<path d="M43.667 39.4004L36.467 39.4004" stroke="url(#paint3_linear_16_4431)" stroke-width="0.6"/>
<path d="M11.2646 35.8008L11.2646 43.0008" stroke="url(#paint4_linear_16_4431)" stroke-width="0.6"/>
<path d="M14.8682 39.4004L7.66816 39.4004" stroke="url(#paint5_linear_16_4431)" stroke-width="0.6"/>
<path d="M11.2646 7L11.2646 14.2" stroke="url(#paint6_linear_16_4431)" stroke-width="0.6"/>
<path d="M14.8682 10.5996L7.66816 10.5996" stroke="url(#paint7_linear_16_4431)" stroke-width="0.6"/>
<path d="M21.667 24V20C21.667 18.9391 22.0884 17.9217 22.8386 17.1716C23.5887 16.4214 24.6061 16 25.667 16C26.7279 16 27.7453 16.4214 28.4954 17.1716C29.2456 17.9217 29.667 18.9391 29.667 20V24M18.667 26C18.667 25.4696 18.8777 24.9609 19.2528 24.5858C19.6279 24.2107 20.1366 24 20.667 24H30.667C31.1974 24 31.7061 24.2107 32.0812 24.5858C32.4563 24.9609 32.667 25.4696 32.667 26V32C32.667 32.5304 32.4563 33.0391 32.0812 33.4142C31.7061 33.7893 31.1974 34 30.667 34H20.667C20.1366 34 19.6279 33.7893 19.2528 33.4142C18.8777 33.0391 18.667 32.5304 18.667 32V26ZM24.667 29C24.667 29.2652 24.7723 29.5196 24.9599 29.7071C25.1474 29.8946 25.4018 30 25.667 30C25.9322 30 26.1866 29.8946 26.3741 29.7071C26.5616 29.5196 26.667 29.2652 26.667 29C26.667 28.7348 26.5616 28.4804 26.3741 28.2929C26.1866 28.1054 25.9322 28 25.667 28C25.4018 28 25.1474 28.1054 24.9599 28.2929C24.7723 28.4804 24.667 28.7348 24.667 29Z" stroke="#0DD6BE" stroke-width="1.6" stroke-linecap="round" stroke-linejoin="round"/>
</g>
<rect x="1.16699" y="0.5" width="49" height="49" rx="24.5" stroke="#00393D"/>
<defs>
<linearGradient id="paint0_linear_16_4431" x1="40.0693" y1="14.2" x2="40.0693" y2="7" gradientUnits="userSpaceOnUse">
<stop stop-color="#19FFE9" stop-opacity="0"/>
<stop offset="0.50284" stop-color="#19FFE9"/>
<stop offset="1" stop-color="#19FFE9" stop-opacity="0"/>
</linearGradient>
<linearGradient id="paint1_linear_16_4431" x1="36.467" y1="10.5996" x2="43.667" y2="10.5996" gradientUnits="userSpaceOnUse">
<stop stop-color="#19FFE9" stop-opacity="0"/>
<stop offset="0.50284" stop-color="#19FFE9"/>
<stop offset="1" stop-color="#19FFE9" stop-opacity="0"/>
</linearGradient>
<linearGradient id="paint2_linear_16_4431" x1="40.0693" y1="43.0008" x2="40.0693" y2="35.8008" gradientUnits="userSpaceOnUse">
<stop stop-color="#19FFE9" stop-opacity="0"/>
<stop offset="0.50284" stop-color="#19FFE9"/>
<stop offset="1" stop-color="#19FFE9" stop-opacity="0"/>
</linearGradient>
<linearGradient id="paint3_linear_16_4431" x1="36.467" y1="39.4004" x2="43.667" y2="39.4004" gradientUnits="userSpaceOnUse">
<stop stop-color="#19FFE9" stop-opacity="0"/>
<stop offset="0.50284" stop-color="#19FFE9"/>
<stop offset="1" stop-color="#19FFE9" stop-opacity="0"/>
</linearGradient>
<linearGradient id="paint4_linear_16_4431" x1="11.2646" y1="43.0008" x2="11.2647" y2="35.8008" gradientUnits="userSpaceOnUse">
<stop stop-color="#19FFE9" stop-opacity="0"/>
<stop offset="0.50284" stop-color="#19FFE9"/>
<stop offset="1" stop-color="#19FFE9" stop-opacity="0"/>
</linearGradient>
<linearGradient id="paint5_linear_16_4431" x1="7.66816" y1="39.4004" x2="14.8682" y2="39.4004" gradientUnits="userSpaceOnUse">
<stop stop-color="#19FFE9" stop-opacity="0"/>
<stop offset="0.50284" stop-color="#19FFE9"/>
<stop offset="1" stop-color="#19FFE9" stop-opacity="0"/>
</linearGradient>
<linearGradient id="paint6_linear_16_4431" x1="11.2646" y1="14.2" x2="11.2647" y2="7" gradientUnits="userSpaceOnUse">
<stop stop-color="#19FFE9" stop-opacity="0"/>
<stop offset="0.50284" stop-color="#19FFE9"/>
<stop offset="1" stop-color="#19FFE9" stop-opacity="0"/>
</linearGradient>
<linearGradient id="paint7_linear_16_4431" x1="7.66816" y1="10.5996" x2="14.8682" y2="10.5996" gradientUnits="userSpaceOnUse">
<stop stop-color="#19FFE9" stop-opacity="0"/>
<stop offset="0.50284" stop-color="#19FFE9"/>
<stop offset="1" stop-color="#19FFE9" stop-opacity="0"/>
</linearGradient>
<clipPath id="clip0_16_4431">
<rect x="1.66699" y="1" width="48" height="48" rx="24" fill="white"/>
</clipPath>
</defs>
</svg>
