<svg width="480" height="458" viewBox="0 0 480 458" fill="none" xmlns="http://www.w3.org/2000/svg">
<path d="M70.2952 420.118C164.022 470.146 315.981 470.147 409.706 420.119C503.431 370.09 503.431 288.978 409.706 238.95C315.979 188.921 164.02 188.921 70.293 238.949C-23.4314 288.977 -23.4314 370.09 70.2952 420.118Z" fill="#00292B" fill-opacity="0.32"/>
<path d="M237.042 352.684L305.534 392.065C306.323 392.521 307.604 392.521 308.394 392.065L429.63 322.068C430.419 321.613 430.419 320.873 429.63 320.417L361.139 281.036C360.349 280.58 359.068 280.58 358.279 281.036L237.042 351.032C236.253 351.488 236.253 352.227 237.042 352.684Z" fill="#1A2428"/>
<path d="M446.282 373.131C446.06 371.378 443.958 370.488 442.801 369.821L396.028 342.737C393.963 341.544 391.406 341.499 389.339 342.691L342.582 369.658C341.204 370.454 338.95 371.974 338.95 373.754C338.95 375.535 340.181 375.928 342.447 377.237C344.712 378.546 388.874 404.058 388.874 404.058C391.239 405.425 394.155 405.426 396.52 404.058L444.425 376.615C446.001 375.54 446.426 374.27 446.282 373.131Z" fill="#1A2428"/>
<path d="M286.61 234.343L297.643 227.974C298.959 227.215 301.094 227.215 302.41 227.974L371.578 267.909" stroke="#27DEBF" stroke-miterlimit="10"/>
<path d="M282.137 231.762L297.642 222.81C298.959 222.05 301.092 222.05 302.409 222.81L376.049 265.326" stroke="#27DEBF" stroke-miterlimit="10"/>
<path d="M380.521 262.744L302.409 217.646C301.092 216.886 298.958 216.885 297.641 217.645L277.666 229.17" stroke="#27DEBF" stroke-miterlimit="10"/>
<path d="M384.993 260.162L302.409 212.482C301.092 211.723 298.959 211.722 297.642 212.482L273.179 226.598" stroke="#27DEBF" stroke-miterlimit="10"/>
<path d="M217.133 0.785894L145.876 41.9261C144.559 42.6857 143.492 44.5341 143.492 46.0545V241.937C143.492 243.458 144.559 245.306 145.876 246.066L217.134 287.206C218.45 287.966 220.584 287.966 221.901 287.206L293.155 246.066C294.472 245.306 295.539 243.458 295.539 241.937V46.0556C295.539 44.5353 294.472 42.6868 293.155 41.9272L221.9 0.786999C220.583 0.0262646 218.449 0.026261 217.133 0.785894Z" fill="#37474F"/>
<path d="M295.537 46.0513V241.938C295.537 243.457 294.469 245.306 293.159 246.066L221.897 287.207C221.247 287.593 220.377 287.78 219.519 287.78V86.3889C220.377 86.3889 221.236 86.1908 221.897 85.8165L293.159 44.6752L293.808 44.1357L294.656 43.4312C295.196 44.2458 295.537 45.1926 295.537 46.0513Z" fill="#263238"/>
<path d="M154.82 65.3337L208.19 96.1462C209.507 96.9058 210.574 98.7543 210.574 100.275L210.573 120.59C210.573 122.11 209.506 122.726 208.189 121.966L154.821 91.1535C153.504 90.3939 152.438 88.5455 152.438 87.0251L152.437 66.7099C152.437 65.1895 153.503 64.5741 154.82 65.3337Z" fill="#455A64"/>
<path d="M156.908 74.2851C156.908 75.7108 157.975 77.4833 159.292 78.2429L203.717 103.891C205.034 104.651 206.101 104.111 206.101 102.685C206.101 101.26 205.034 99.4873 203.717 98.7277L159.292 73.0796C157.975 72.32 156.908 72.8594 156.908 74.2851Z" fill="#27DEBF"/>
<path d="M156.908 84.6132C156.908 86.0389 157.975 87.8114 159.292 88.571L203.717 114.22C205.034 114.98 206.101 114.44 206.101 113.015C206.101 111.589 205.034 109.817 203.717 109.057L159.292 83.4077C157.975 82.6481 156.908 83.1876 156.908 84.6132Z" fill="#263238"/>
<path d="M159.292 83.4077L183.741 97.5237V102.687L159.292 88.5721C157.975 87.8125 156.908 86.04 156.908 84.6143C156.908 83.1875 157.975 82.6481 159.292 83.4077Z" fill="#27DEBF"/>
<path d="M154.82 101.48L208.19 132.293C209.507 133.052 210.574 134.901 210.574 136.421L210.573 156.736C210.573 158.257 209.506 158.872 208.189 158.112L154.821 127.3C153.504 126.54 152.438 124.692 152.438 123.172L152.437 102.856C152.437 101.336 153.503 100.721 154.82 101.48Z" fill="#455A64"/>
<path d="M156.908 110.432C156.908 111.857 157.975 113.63 159.292 114.389L203.717 140.039C205.034 140.798 206.101 140.259 206.101 138.833C206.101 137.407 205.034 135.635 203.717 134.875L159.292 109.226C157.975 108.466 156.908 109.006 156.908 110.432Z" fill="#27DEBF"/>
<path d="M156.908 120.76C156.908 122.185 157.975 123.958 159.292 124.718L203.717 150.367C205.034 151.126 206.101 150.587 206.101 149.161C206.101 147.736 205.034 145.963 203.717 145.203L159.292 119.554C157.975 118.795 156.908 119.334 156.908 120.76Z" fill="#263238"/>
<path d="M159.292 119.554L197.157 141.415V146.578L159.292 124.718C157.975 123.958 156.908 122.185 156.908 120.76C156.908 119.334 157.975 118.795 159.292 119.554Z" fill="#27DEBF"/>
<path d="M154.82 137.627L208.19 168.439C209.507 169.199 210.574 171.047 210.574 172.568L210.573 192.883C210.573 194.403 209.506 195.019 208.189 194.259L154.821 163.447C153.504 162.687 152.438 160.838 152.438 159.318L152.437 139.003C152.437 137.482 153.503 136.867 154.82 137.627Z" fill="#455A64"/>
<path d="M156.908 146.578C156.908 148.004 157.975 149.776 159.292 150.536L203.717 176.185C205.034 176.945 206.101 176.405 206.101 174.98C206.101 173.554 205.034 171.781 203.717 171.022L159.292 145.373C157.975 144.613 156.908 145.152 156.908 146.578Z" fill="#27DEBF"/>
<path d="M156.908 156.906C156.908 158.331 157.975 160.104 159.292 160.864L203.717 186.513C205.034 187.272 206.101 186.733 206.101 185.307C206.101 183.881 205.034 182.109 203.717 181.349L159.292 155.7C157.975 154.941 156.908 155.48 156.908 156.906Z" fill="#263238"/>
<path d="M159.292 155.7L174.796 164.652V169.815L159.292 160.865C157.975 160.105 156.908 158.333 156.908 156.907C156.908 155.481 157.975 154.941 159.292 155.7Z" fill="#27DEBF"/>
<path d="M154.82 173.773L208.19 204.586C209.507 205.345 210.574 207.194 210.574 208.714L210.573 229.029C210.573 230.55 209.506 231.165 208.189 230.405L154.821 199.593C153.504 198.833 152.438 196.985 152.438 195.465L152.437 175.149C152.437 173.629 153.503 173.014 154.82 173.773Z" fill="#455A64"/>
<path d="M156.908 182.725C156.908 184.15 157.975 185.923 159.292 186.682L203.717 212.332C205.034 213.091 206.101 212.552 206.101 211.126C206.101 209.7 205.034 207.928 203.717 207.168L159.292 181.519C157.975 180.759 156.908 181.299 156.908 182.725Z" fill="#27DEBF"/>
<path d="M156.908 193.052C156.908 194.478 157.975 196.25 159.292 197.01L203.717 222.659C205.034 223.419 206.101 222.879 206.101 221.454C206.101 220.028 205.034 218.256 203.717 217.496L159.292 191.847C157.975 191.087 156.908 191.627 156.908 193.052Z" fill="#263238"/>
<path d="M159.292 191.847L183.741 205.963V211.126L159.292 197.011C157.975 196.252 156.908 194.479 156.908 193.054C156.908 191.628 157.975 191.087 159.292 191.847Z" fill="#27DEBF"/>
<path d="M154.82 209.919L208.19 240.732C209.507 241.492 210.574 243.34 210.574 244.86L210.573 265.176C210.573 266.696 209.506 267.311 208.189 266.552L154.821 235.739C153.504 234.98 152.438 233.131 152.438 231.611L152.437 211.296C152.437 209.776 153.503 209.16 154.82 209.919Z" fill="#455A64"/>
<path d="M156.908 218.871C156.908 220.297 157.975 222.069 159.292 222.829L203.717 248.478C205.034 249.238 206.101 248.698 206.101 247.273C206.101 245.847 205.034 244.074 203.717 243.315L159.292 217.666C157.975 216.906 156.908 217.445 156.908 218.871Z" fill="#27DEBF"/>
<path d="M156.908 229.199C156.908 230.624 157.975 232.397 159.292 233.156L203.717 258.804C205.034 259.564 206.101 259.025 206.101 257.599C206.101 256.173 205.034 254.401 203.717 253.641L159.292 227.992C157.975 227.233 156.908 227.773 156.908 229.199Z" fill="#263238"/>
<path d="M159.292 227.993L192.685 247.272V252.436L159.292 233.158C157.975 232.398 156.908 230.625 156.908 229.2C156.908 227.774 157.975 227.234 159.292 227.993Z" fill="#27DEBF"/>
<path d="M230.696 98.8237C233.165 97.3926 235.167 98.696 235.167 101.736L235.169 219.832C235.169 222.872 233.166 226.497 230.697 227.929C228.227 229.362 226.225 228.057 226.225 225.018L226.224 106.921C226.223 103.881 228.225 100.256 230.696 98.8237Z" fill="#37474F"/>
<path d="M230.695 225.316C231.93 224.602 232.931 222.793 232.931 221.272L232.93 102.845C232.93 101.325 231.929 100.671 230.694 101.384C229.459 102.097 228.458 103.908 228.458 105.428L228.459 223.855C228.459 225.374 229.461 226.029 230.695 225.316Z" fill="#263238"/>
<path d="M230.695 225.316C231.93 224.603 232.931 222.793 232.931 221.273L232.93 164.652L228.458 167.234L228.459 223.855C228.459 225.375 229.461 226.03 230.695 225.316Z" fill="#27DEBF"/>
<path d="M244.112 91.0786C246.581 89.6474 248.584 90.9509 248.584 93.9906V212.087C248.584 215.128 246.581 218.752 244.112 220.184C241.642 221.617 239.64 220.312 239.64 217.272L239.639 99.1759C239.64 96.1351 241.641 92.5098 244.112 91.0786Z" fill="#37474F"/>
<path d="M244.111 217.571C245.346 216.858 246.347 215.048 246.347 213.528L246.346 95.1007C246.346 93.5804 245.345 92.9264 244.11 93.6398C242.875 94.3532 241.874 96.1631 241.874 97.6835L241.875 216.11C241.875 217.63 242.877 218.284 244.111 217.571Z" fill="#27DEBF"/>
<path d="M257.527 83.334C259.996 81.9028 261.999 83.2063 261.999 86.2459V204.342C261.999 207.382 259.996 211.007 257.527 212.44C255.057 213.872 253.055 212.567 253.055 209.528L253.054 91.4313C253.055 88.3905 255.057 84.7652 257.527 83.334Z" fill="#37474F"/>
<path d="M257.528 209.825C258.763 209.112 259.764 207.302 259.764 205.781L259.763 87.3546C259.763 85.8343 258.762 85.1803 257.527 85.8937C256.292 86.606 255.291 88.417 255.291 89.9374L255.292 208.364C255.292 209.885 256.293 210.539 257.528 209.825Z" fill="#263238"/>
<path d="M257.528 209.825C258.763 209.111 259.764 207.302 259.764 205.781L259.763 114.304L255.291 116.885L255.292 208.363C255.292 209.884 256.293 210.538 257.528 209.825Z" fill="#27DEBF"/>
<path d="M270.943 75.5879C273.412 74.1567 275.415 75.4602 275.415 78.4998L275.416 196.596C275.416 199.637 273.413 203.261 270.944 204.694C268.474 206.126 266.472 204.821 266.472 201.782L266.471 83.6852C266.471 80.6455 268.473 77.0202 270.943 75.5879Z" fill="#37474F"/>
<path d="M270.944 202.08C272.179 201.367 273.18 199.557 273.18 198.036L273.179 79.6095C273.179 78.0892 272.178 77.4352 270.943 78.1486C269.708 78.862 268.707 80.6719 268.707 82.1923L268.708 200.619C268.708 202.138 269.709 202.793 270.944 202.08Z" fill="#263238"/>
<path d="M270.944 202.08C272.179 201.367 273.18 199.557 273.18 198.037V178.048L268.708 180.63L268.709 200.618C268.708 202.139 269.709 202.794 270.944 202.08Z" fill="#27DEBF"/>
<path d="M284.36 67.8428C286.829 66.4116 288.832 67.7151 288.832 70.7547V188.851C288.832 191.891 286.829 195.516 284.36 196.948C281.89 198.381 279.888 197.076 279.888 194.037L279.887 75.94C279.887 72.8993 281.889 69.274 284.36 67.8428Z" fill="#37474F"/>
<path d="M284.359 194.335C285.594 193.621 286.595 191.812 286.595 190.291L286.594 71.8644C286.594 70.344 285.593 69.6901 284.358 70.4035C283.123 71.1158 282.122 72.9268 282.122 74.4472L282.123 192.874C282.123 194.393 283.125 195.047 284.359 194.335Z" fill="#263238"/>
<path d="M284.359 194.335C285.594 193.622 286.595 191.812 286.595 190.292L286.594 128.506L282.122 131.088L282.123 192.873C282.123 194.394 283.125 195.048 284.359 194.335Z" fill="#27DEBF"/>
<path d="M228.13 242.299L286.925 208.354C287.979 207.746 288.832 208.239 288.832 209.455V230.87C288.832 232.087 287.979 233.565 286.925 234.173L228.13 268.117C227.077 268.725 226.224 268.233 226.224 267.017V245.601C226.224 244.386 227.078 242.906 228.13 242.299Z" fill="#37474F"/>
<path d="M230.548 248.649C230.548 250.075 231.616 250.614 232.932 249.854L282.124 221.444C283.44 220.684 284.507 218.912 284.507 217.486C284.507 216.061 283.44 215.521 282.124 216.281L232.93 244.691C231.614 245.451 230.547 247.223 230.548 248.649Z" fill="#263238"/>
<path d="M230.548 248.649C230.548 250.074 231.616 250.614 232.931 249.854L268.707 229.189L268.708 224.026L232.93 244.691C231.614 245.451 230.547 247.223 230.548 248.649Z" fill="#27DEBF"/>
<path d="M230.548 258.977C230.548 260.402 231.616 260.942 232.932 260.182L282.124 231.772C283.44 231.012 284.507 229.24 284.507 227.814C284.507 226.388 283.44 225.849 282.124 226.609L232.93 255.019C231.614 255.78 230.547 257.551 230.548 258.977Z" fill="#263238"/>
<path d="M230.548 258.977C230.548 260.403 231.616 260.942 232.932 260.182L246.348 252.436L246.349 247.273L232.931 255.019C231.614 255.78 230.547 257.551 230.548 258.977Z" fill="#27DEBF"/>
<path d="M293.156 41.9272L221.899 0.78701C220.582 0.0273769 218.449 0.0273769 217.132 0.78701L145.875 41.9272C144.559 42.6868 144.559 43.9199 145.875 44.6795L217.133 85.8197C218.45 86.5793 220.583 86.5793 221.9 85.8197L293.155 44.6795C294.473 43.9188 294.473 42.6868 293.156 41.9272Z" fill="#455A64"/>
<path d="M218.085 76.041L162.809 44.1276C162.02 43.6719 161.379 42.5621 161.379 41.6506V39.7889C161.379 38.8774 162.02 37.7677 162.809 37.3119L218.084 5.39848C218.873 4.9427 220.155 4.9427 220.944 5.39848L276.22 37.3119C277.009 37.7677 277.65 38.8774 277.65 39.7889V41.6495C277.65 42.561 277.009 43.6708 276.22 44.1265L220.945 76.0399C220.156 76.4979 218.875 76.4979 218.085 76.041Z" fill="#263238"/>
<path d="M162.811 38.9643L218.087 70.8776C218.876 71.3334 220.157 71.3334 220.947 70.8776L276.222 38.9643C277.011 38.5085 277.011 37.7687 276.222 37.3129L220.946 6.5015C220.156 6.04572 218.875 6.04572 218.085 6.5015L162.811 37.3129C162.02 37.7687 162.02 38.5085 162.811 38.9643Z" fill="#455A64"/>
<path d="M219.518 71.2177V76.381C219.001 76.381 218.483 76.2709 218.087 76.0397L162.81 44.1241C162.017 43.6727 161.379 42.5608 161.379 41.647V39.7865C161.379 38.9828 161.874 38.025 162.546 37.4966C162.028 37.948 162.117 38.5645 162.81 38.9608L218.087 70.8764C218.482 71.1076 219.001 71.2177 219.518 71.2177Z" fill="#37474F"/>
<path d="M218.085 60.5502L180.697 38.9645C179.907 38.5087 179.267 37.4001 179.267 36.4874V34.6269C179.267 33.7153 179.907 32.6056 180.697 32.1498L204.668 18.3102C205.457 17.8544 206.539 16.8911 207.082 16.159L218.531 0.737349C219.075 0.00523929 220.156 -0.219346 220.945 0.236434L258.333 21.821C259.123 22.2768 259.763 23.3865 259.763 24.2981L259.762 36.4874C259.762 37.399 259.122 38.5087 258.332 38.9645L220.945 60.5502C220.156 61.006 218.875 61.006 218.085 60.5502Z" fill="#263238"/>
<path d="M220.945 55.3856L244.916 41.5459C245.296 41.3268 245.744 40.9889 246.167 40.6168C246.623 40.216 247.049 39.7735 247.331 39.3936L258.779 23.972C259.323 23.2399 259.124 22.2766 258.333 21.8208L220.945 0.23621C220.156 -0.21957 219.075 0.00391383 218.531 0.737125L207.082 16.1588C206.538 16.8909 205.655 17.9412 204.866 18.3969L180.697 32.1496C179.907 32.6054 179.907 33.3452 180.697 33.801L218.084 55.3867C218.875 55.8425 220.156 55.8425 220.945 55.3856Z" fill="#455A64"/>
<path d="M258.335 21.8208L220.948 0.236257C220.159 -0.219523 219.078 0.0039618 218.534 0.736072L207.085 16.1577C206.802 16.5386 206.373 16.9757 205.915 17.3764C205.915 17.3764 246.155 40.6245 246.167 40.6146C246.623 40.2139 247.051 39.7757 247.333 39.3948L258.781 23.9731C259.325 23.2399 259.125 22.2766 258.335 21.8208Z" fill="#37474F"/>
<path d="M189.77 32.5282C190.695 31.9932 192.197 31.9932 193.124 32.5282C194.05 33.0633 194.05 33.9297 193.124 34.4647C192.198 34.9998 190.697 34.9998 189.77 34.4647C188.844 33.9297 188.844 33.0622 189.77 32.5282Z" fill="#27DEBF"/>
<path d="M196.477 36.4003C197.403 35.8653 198.905 35.8653 199.832 36.4003C200.758 36.9354 200.758 37.8018 199.832 38.3368C198.906 38.8719 197.404 38.8719 196.477 38.3368C195.55 37.8018 195.55 36.9354 196.477 36.4003Z" fill="#27DEBF"/>
<path d="M203.185 40.2734C204.111 39.7383 205.612 39.7383 206.539 40.2734C207.465 40.8084 207.465 41.6748 206.539 42.2099C205.613 42.7449 204.112 42.7449 203.185 42.2099C202.259 41.6748 202.259 40.8084 203.185 40.2734Z" fill="#263238"/>
<path d="M209.892 44.1464C210.818 43.6114 212.319 43.6114 213.246 44.1464C214.172 44.6814 214.172 45.5479 213.246 46.0829C212.32 46.618 210.819 46.618 209.892 46.0829C208.966 45.5479 208.966 44.6803 209.892 44.1464Z" fill="#263238"/>
<path d="M196.478 31.9613C197.787 31.9613 198.849 31.3481 198.849 30.5917C198.849 29.8353 197.787 29.2222 196.478 29.2222C195.168 29.2222 194.106 29.8353 194.106 30.5917C194.106 31.3481 195.168 31.9613 196.478 31.9613Z" fill="#27DEBF"/>
<path d="M201.508 33.496C202.434 32.961 203.935 32.961 204.862 33.496C205.788 34.0311 205.788 34.8975 204.862 35.4325C203.937 35.9676 202.435 35.9676 201.508 35.4325C200.582 34.8975 200.582 34.0311 201.508 33.496Z" fill="#263238"/>
<path d="M209.892 39.7064C211.202 39.7064 212.263 39.0932 212.263 38.3368C212.263 37.5805 211.202 36.9673 209.892 36.9673C208.582 36.9673 207.521 37.5805 207.521 38.3368C207.521 39.0932 208.582 39.7064 209.892 39.7064Z" fill="#27DEBF"/>
<path d="M214.924 41.2406C215.85 40.7056 217.351 40.7056 218.278 41.2406C219.204 41.7757 219.204 42.6421 218.278 43.1772C217.353 43.7122 215.851 43.7122 214.924 43.1772C213.998 42.6432 213.998 41.7757 214.924 41.2406Z" fill="#263238"/>
<path d="M199.831 26.7187C200.757 26.1836 202.258 26.1836 203.185 26.7187C204.111 27.2537 204.111 28.1201 203.185 28.6552C202.26 29.1902 200.758 29.1902 199.831 28.6552C198.904 28.1201 198.904 27.2526 199.831 26.7187Z" fill="#263238"/>
<path d="M206.539 30.5917C207.465 30.0567 208.966 30.0567 209.893 30.5917C210.819 31.1268 210.819 31.9932 209.893 32.5282C208.968 33.0633 207.466 33.0633 206.539 32.5282C205.612 31.9932 205.612 31.1257 206.539 30.5917Z" fill="#27DEBF"/>
<path d="M213.247 34.4638C214.173 33.9287 215.675 33.9287 216.601 34.4638C217.527 34.9988 217.527 35.8653 216.601 36.4003C215.676 36.9353 214.174 36.9353 213.247 36.4003C212.32 35.8653 212.32 34.9988 213.247 34.4638Z" fill="#263238"/>
<path d="M216.639 47.9413C217.564 47.4063 219.066 47.4063 219.992 47.9413C220.918 48.4764 220.918 49.3428 219.992 49.8778C219.066 50.4129 217.564 50.4129 216.639 49.8778C215.712 49.3428 215.712 48.4764 216.639 47.9413Z" fill="#27DEBF"/>
<path d="M221.669 45.037C222.595 44.502 224.097 44.502 225.022 45.037C225.948 45.5721 225.948 46.4385 225.022 46.9735C224.097 47.5086 222.595 47.5086 221.669 46.9735C220.743 46.4385 220.743 45.571 221.669 45.037Z" fill="#263238"/>
<path d="M219.953 38.3398C220.879 37.8047 222.381 37.8047 223.308 38.3398C224.234 38.8748 224.234 39.7412 223.308 40.2763C222.382 40.8113 220.88 40.8113 219.953 40.2763C219.027 39.7412 219.027 38.8737 219.953 38.3398Z" fill="#263238"/>
<path d="M204.86 23.8168C205.786 23.2818 207.288 23.2818 208.215 23.8168C209.141 24.3519 209.141 25.2183 208.215 25.7533C207.289 26.2884 205.787 26.2884 204.86 25.7533C203.935 25.2183 203.935 24.3519 204.86 23.8168Z" fill="#27DEBF"/>
<path d="M213.245 30.0272C214.555 30.0272 215.617 29.414 215.617 28.6576C215.617 27.9013 214.555 27.2881 213.245 27.2881C211.936 27.2881 210.874 27.9013 210.874 28.6576C210.874 29.414 211.936 30.0272 213.245 30.0272Z" fill="#263238"/>
<path d="M218.276 31.5629C219.202 31.0279 220.704 31.0279 221.631 31.5629C222.557 32.098 222.557 32.9644 221.631 33.4994C220.705 34.0345 219.203 34.0345 218.276 33.4994C217.351 32.9644 217.351 32.0969 218.276 31.5629Z" fill="#27DEBF"/>
<path d="M226.661 37.7733C227.971 37.7733 229.033 37.1601 229.033 36.4037C229.033 35.6473 227.971 35.0342 226.661 35.0342C225.352 35.0342 224.29 35.6473 224.29 36.4037C224.29 37.1601 225.352 37.7733 226.661 37.7733Z" fill="#263238"/>
<path d="M226.7 42.1347C227.626 41.5996 229.128 41.5996 230.055 42.1347C230.98 42.6697 230.98 43.5362 230.055 44.0712C229.129 44.6062 227.627 44.6062 226.7 44.0712C225.773 43.5362 225.773 42.6697 226.7 42.1347Z" fill="#27DEBF"/>
<path d="M231.73 39.2309C232.655 38.6958 234.157 38.6958 235.084 39.2309C236.01 39.7659 236.01 40.6323 235.084 41.1674C234.158 41.7024 232.657 41.7024 231.73 41.1674C230.804 40.6323 230.804 39.7648 231.73 39.2309Z" fill="#263238"/>
<path d="M219.595 55.728V60.8803C219.056 60.8913 218.505 60.7922 218.087 60.55L180.7 38.961C179.907 38.5096 179.269 37.3977 179.269 36.484V34.6234C179.269 33.8197 179.764 32.8619 180.436 32.3335C179.918 32.7849 180.006 33.4014 180.7 33.7977L218.087 55.3867C218.504 55.6289 219.055 55.739 219.595 55.728Z" fill="#37474F"/>
<path d="M212.028 15.5127L212.061 15.4675C212.422 14.9787 213.142 14.829 213.668 15.1329L246.204 33.9178C246.73 34.2217 246.862 34.8635 246.499 35.3512L246.465 35.3963C246.101 35.884 245.38 36.0327 244.853 35.7288L212.325 16.9483C211.801 16.6455 211.667 16.0026 212.028 15.5127Z" fill="#263238"/>
<path d="M212.028 15.5127L212.061 15.4675C212.422 14.9787 213.142 14.829 213.668 15.1329L237.858 29.098L236.508 30.909L212.327 16.9483C211.801 16.6455 211.667 16.0026 212.028 15.5127Z" fill="#27DEBF"/>
<path d="M214.717 11.9028L214.751 11.8577C215.112 11.3689 215.832 11.2191 216.358 11.523L248.893 30.3079C249.419 30.6118 249.552 31.2536 249.188 31.7413L249.154 31.7865C248.791 32.2742 248.069 32.4228 247.542 32.119L215.015 13.3384C214.491 13.0356 214.356 12.3927 214.717 11.9028Z" fill="#263238"/>
<path d="M214.717 11.9028L214.75 11.8577C215.111 11.3689 215.831 11.2191 216.358 11.523L224.445 16.1909L223.095 18.0019L215.017 13.3395C214.491 13.0345 214.356 12.3927 214.717 11.9028Z" fill="#27DEBF"/>
<path d="M217.408 8.29294L217.441 8.2478C217.802 7.75899 218.522 7.60927 219.048 7.91313L251.583 26.6981C252.11 27.0019 252.243 27.6438 251.878 28.1315L251.844 28.1766C251.481 28.6643 250.76 28.8129 250.233 28.5091L217.706 9.72964C217.18 9.42468 217.045 8.78175 217.408 8.29294Z" fill="#263238"/>
<path d="M217.408 8.29275L217.441 8.24761C217.802 7.75881 218.522 7.60799 219.049 7.91184L235.995 17.666L234.646 19.477L217.708 9.72835C217.18 9.4245 217.045 8.78156 217.408 8.29275Z" fill="#27DEBF"/>
<path d="M220.098 4.68308L220.131 4.63794C220.492 4.14913 221.212 3.99941 221.738 4.30326L254.273 23.0882C254.8 23.3921 254.932 24.0339 254.568 24.5216L254.534 24.5667C254.171 25.0545 253.45 25.2031 252.923 24.8992L220.395 6.11867C219.87 5.81482 219.737 5.17188 220.098 4.68308Z" fill="#263238"/>
<path d="M220.098 4.68308L220.131 4.63794C220.492 4.14913 221.212 3.99941 221.738 4.30326L251.272 21.3543L249.923 23.1653L220.397 6.11977C219.87 5.81482 219.736 5.17188 220.098 4.68308Z" fill="#27DEBF"/>
<path d="M161.381 306.644L172.413 300.275C173.724 299.519 175.87 299.519 177.18 300.275L242.711 338.109C244.328 339.043 246.349 337.876 246.349 336.008V281.808" stroke="#27DEBF" stroke-miterlimit="10"/>
<path d="M156.909 304.062L172.414 295.11C173.726 294.353 175.87 294.353 177.181 295.11L247.184 335.526C248.802 336.46 250.822 335.293 250.822 333.426V281.807" stroke="#27DEBF" stroke-miterlimit="10"/>
<path d="M152.438 301.472L172.413 289.946C173.724 289.19 175.869 289.19 177.18 289.947L251.654 332.945C253.272 333.878 255.292 332.711 255.292 330.844V282.115" stroke="#27DEBF" stroke-miterlimit="10"/>
<path d="M147.949 298.899L172.413 284.783C173.724 284.026 175.87 284.026 177.18 284.784L256.126 330.364C257.744 331.298 259.764 330.131 259.764 328.263V282.116" stroke="#27DEBF" stroke-miterlimit="10"/>
<path d="M87.4451 75.6488L16.1882 116.789C14.8715 117.549 13.8047 119.397 13.8047 120.917V316.8C13.8047 318.321 14.8715 320.169 16.1882 320.929L87.4462 362.069C88.7629 362.829 90.8964 362.829 92.2131 362.069L163.468 320.929C164.785 320.169 165.851 318.321 165.851 316.8V120.917C165.851 119.397 164.785 117.549 163.468 116.789L92.212 75.6488C90.8964 74.8892 88.7617 74.8892 87.4451 75.6488Z" fill="#37474F"/>
<path d="M165.849 120.913V316.799C165.849 318.319 164.782 320.168 163.471 320.928L92.209 362.069C91.5595 362.454 90.6898 362.642 89.8311 362.642V161.251C90.6898 161.251 91.5485 161.053 92.209 160.678L163.471 119.537L164.121 118.998L164.969 118.293C165.508 119.108 165.849 120.054 165.849 120.913Z" fill="#263238"/>
<path d="M25.1314 140.195L78.5006 171.008C79.8173 171.767 80.8841 173.616 80.8841 175.136L80.883 195.451C80.883 196.972 79.8162 197.587 78.4995 196.828L25.1325 166.015C23.8158 165.256 22.749 163.407 22.749 161.887V141.571C22.7479 140.052 23.8147 139.436 25.1314 140.195Z" fill="#455A64"/>
<path d="M27.2197 149.147C27.2197 150.573 28.2865 152.345 29.6032 153.105L74.0285 178.753C75.3452 179.512 76.412 178.973 76.412 177.547C76.412 176.122 75.3452 174.349 74.0285 173.59L29.6032 147.941C28.2865 147.182 27.2197 147.721 27.2197 149.147Z" fill="#27DEBF"/>
<path d="M27.2197 159.475C27.2197 160.9 28.2865 162.673 29.6032 163.432L74.0285 189.082C75.3452 189.841 76.412 189.302 76.412 187.876C76.412 186.45 75.3452 184.678 74.0285 183.918L29.6032 158.269C28.2865 157.509 27.2197 158.049 27.2197 159.475Z" fill="#263238"/>
<path d="M29.6032 158.269L54.0524 172.385V177.548L29.6032 163.433C28.2865 162.674 27.2197 160.901 27.2197 159.476C27.2197 158.049 28.2865 157.509 29.6032 158.269Z" fill="#27DEBF"/>
<path d="M25.1315 176.342L78.5007 207.154C79.8174 207.914 80.8842 209.762 80.8842 211.283L80.8831 231.598C80.8831 233.118 79.8163 233.734 78.4996 232.974L25.1315 202.162C23.8148 201.402 22.748 199.554 22.748 198.033V177.718C22.748 176.199 23.8148 175.582 25.1315 176.342Z" fill="#455A64"/>
<path d="M27.2197 185.294C27.2197 186.72 28.2865 188.493 29.6032 189.252L74.0285 214.901C75.3452 215.661 76.412 215.122 76.412 213.696C76.412 212.27 75.3452 210.498 74.0285 209.738L29.6032 184.088C28.2865 183.328 27.2197 183.868 27.2197 185.294Z" fill="#27DEBF"/>
<path d="M27.2197 195.622C27.2197 197.048 28.2865 198.82 29.6032 199.58L74.0285 225.229C75.3452 225.989 76.412 225.449 76.412 224.024C76.412 222.598 75.3452 220.825 74.0285 220.066L29.6032 194.416C28.2865 193.656 27.2197 194.195 27.2197 195.622Z" fill="#263238"/>
<path d="M29.6032 194.416L67.4682 216.276V221.44L29.6032 199.58C28.2865 198.82 27.2197 197.048 27.2197 195.622C27.2197 194.195 28.2865 193.656 29.6032 194.416Z" fill="#27DEBF"/>
<path d="M25.1315 212.489L78.5007 243.302C79.8174 244.062 80.8842 245.91 80.8842 247.43L80.8831 267.746C80.8831 269.266 79.8163 269.881 78.4996 269.122L25.1315 238.309C23.8148 237.55 22.748 235.701 22.748 234.181V213.866C22.748 212.345 23.8148 211.729 25.1315 212.489Z" fill="#455A64"/>
<path d="M27.2197 221.441C27.2197 222.867 28.2865 224.639 29.6032 225.399L74.0285 251.047C75.3452 251.807 76.412 251.267 76.412 249.842C76.412 248.416 75.3452 246.643 74.0285 245.884L29.6032 220.235C28.2865 219.475 27.2197 220.014 27.2197 221.441Z" fill="#27DEBF"/>
<path d="M27.2197 231.769C27.2197 233.195 28.2865 234.967 29.6032 235.727L74.0285 261.375C75.3452 262.134 76.412 261.595 76.412 260.169C76.412 258.744 75.3452 256.971 74.0285 256.211L29.6032 230.562C28.2865 229.803 27.2197 230.342 27.2197 231.769Z" fill="#263238"/>
<path d="M29.6032 230.562L45.1074 239.514V244.677L29.6032 235.727C28.2865 234.967 27.2197 233.195 27.2197 231.769C27.2197 230.342 28.2865 229.803 29.6032 230.562Z" fill="#27DEBF"/>
<path d="M25.1315 248.636L78.5007 279.448C79.8174 280.208 80.8842 282.056 80.8842 283.577L80.8831 303.892C80.8831 305.412 79.8163 306.028 78.4996 305.268L25.1315 274.456C23.8148 273.696 22.748 271.848 22.748 270.327V250.012C22.748 248.492 23.8148 247.875 25.1315 248.636Z" fill="#455A64"/>
<path d="M27.2197 257.587C27.2197 259.013 28.2865 260.785 29.6032 261.545L74.0285 287.193C75.3452 287.953 76.412 287.413 76.412 285.988C76.412 284.562 75.3452 282.79 74.0285 282.03L29.6032 256.382C28.2865 255.621 27.2197 256.161 27.2197 257.587Z" fill="#27DEBF"/>
<path d="M27.2197 267.915C27.2197 269.341 28.2865 271.113 29.6032 271.873L74.0285 297.521C75.3452 298.281 76.412 297.741 76.412 296.316C76.412 294.89 75.3452 293.117 74.0285 292.358L29.6032 266.71C28.2865 265.949 27.2197 266.49 27.2197 267.915Z" fill="#263238"/>
<path d="M29.6032 266.71L54.0524 280.826V285.989L29.6032 271.873C28.2865 271.113 27.2197 269.341 27.2197 267.915C27.2197 266.49 28.2865 265.949 29.6032 266.71Z" fill="#27DEBF"/>
<path d="M25.1314 284.782L78.5006 315.595C79.8173 316.355 80.8841 318.203 80.8841 319.723V340.038C80.8841 341.558 79.8173 342.173 78.5006 341.414L25.1325 310.601C23.8158 309.842 22.749 307.993 22.749 306.473V286.158C22.7479 284.638 23.8147 284.022 25.1314 284.782Z" fill="#455A64"/>
<path d="M27.2197 293.734C27.2197 295.16 28.2865 296.932 29.6032 297.692L74.0285 323.34C75.3452 324.1 76.412 323.56 76.412 322.134C76.412 320.709 75.3452 318.936 74.0285 318.177L29.6032 292.529C28.2865 291.768 27.2197 292.308 27.2197 293.734Z" fill="#27DEBF"/>
<path d="M27.2197 304.062C27.2197 305.487 28.2865 307.26 29.6032 308.019L74.0285 333.668C75.3452 334.427 76.412 333.888 76.412 332.462C76.412 331.036 75.3452 329.264 74.0285 328.504L29.6032 302.856C28.2865 302.095 27.2197 302.636 27.2197 304.062Z" fill="#263238"/>
<path d="M29.6032 302.856L62.9962 322.135V327.299L29.6032 308.019C28.2865 307.26 27.2197 305.487 27.2197 304.062C27.2197 302.636 28.2865 302.095 29.6032 302.856Z" fill="#27DEBF"/>
<path d="M101.008 173.687C103.478 172.254 105.48 173.559 105.48 176.598V294.695C105.48 297.735 103.478 301.36 101.008 302.792C98.5388 304.225 96.5363 302.92 96.5363 299.88L96.5352 181.784C96.5363 178.743 98.5377 175.118 101.008 173.687Z" fill="#37474F"/>
<path d="M101.008 300.178C102.244 299.464 103.244 297.654 103.244 296.134V177.707C103.244 176.187 102.244 175.533 101.008 176.246C99.7732 176.96 98.7725 178.77 98.7725 180.29L98.7736 298.717C98.7725 300.237 99.7743 300.891 101.008 300.178Z" fill="#263238"/>
<path d="M101.009 300.177C102.244 299.464 103.245 297.654 103.245 296.134L103.243 239.513L98.7715 242.095L98.7726 298.716C98.7726 300.237 99.7744 300.891 101.009 300.177Z" fill="#27DEBF"/>
<path d="M114.424 165.94C116.894 164.508 118.896 165.813 118.896 168.852V286.949C118.896 289.989 116.894 293.614 114.424 295.046C111.955 296.478 109.952 295.174 109.952 292.134L109.951 174.038C109.952 170.998 111.955 167.373 114.424 165.94Z" fill="#37474F"/>
<path d="M114.425 292.433C115.66 291.719 116.661 289.909 116.661 288.389L116.659 169.962C116.659 168.442 115.659 167.788 114.423 168.501C113.188 169.215 112.188 171.024 112.188 172.545L112.189 290.972C112.189 292.491 113.189 293.146 114.425 292.433Z" fill="#27DEBF"/>
<path d="M127.84 158.196C130.31 156.765 132.312 158.068 132.312 161.108V279.204C132.312 282.244 130.31 285.869 127.84 287.301C125.371 288.734 123.368 287.429 123.368 284.39L123.367 166.293C123.368 163.252 125.371 159.627 127.84 158.196Z" fill="#37474F"/>
<path d="M127.841 284.687C129.076 283.974 130.077 282.164 130.077 280.644L130.075 162.217C130.075 160.697 129.075 160.043 127.839 160.756C126.604 161.469 125.604 163.279 125.604 164.8L125.605 283.227C125.605 284.746 126.605 285.4 127.841 284.687Z" fill="#263238"/>
<path d="M127.841 284.688C129.076 283.974 130.077 282.164 130.077 280.644L130.075 189.167L125.604 191.748L125.605 283.226C125.605 284.746 126.605 285.4 127.841 284.688Z" fill="#27DEBF"/>
<path d="M141.256 150.45C143.726 149.018 145.728 150.322 145.728 153.362V271.459C145.728 274.498 143.726 278.124 141.256 279.556C138.787 280.988 136.784 279.684 136.784 276.644L136.783 158.547C136.783 155.507 138.786 151.881 141.256 150.45Z" fill="#37474F"/>
<path d="M141.256 276.941C142.492 276.228 143.492 274.418 143.492 272.898V154.471C143.492 152.95 142.492 152.297 141.256 153.01C140.021 153.723 139.021 155.533 139.021 157.054L139.022 275.48C139.02 277.001 140.022 277.655 141.256 276.941Z" fill="#263238"/>
<path d="M141.257 276.942C142.492 276.228 143.493 274.418 143.493 272.898L143.491 252.91L139.02 255.491L139.021 275.48C139.021 277.001 140.022 277.655 141.257 276.942Z" fill="#27DEBF"/>
<path d="M154.672 142.705C157.142 141.272 159.144 142.577 159.144 145.617V263.713C159.144 266.753 157.142 270.378 154.672 271.81C152.203 273.243 150.2 271.938 150.2 268.898L150.199 150.802C150.2 147.762 152.203 144.137 154.672 142.705Z" fill="#37474F"/>
<path d="M154.674 269.197C155.909 268.483 156.91 266.673 156.91 265.153L156.908 146.726C156.908 145.206 155.908 144.552 154.672 145.265C153.437 145.979 152.437 147.789 152.437 149.309L152.438 267.736C152.438 269.255 153.438 269.91 154.674 269.197Z" fill="#263238"/>
<path d="M154.674 269.197C155.909 268.483 156.91 266.673 156.91 265.153L156.908 203.367L152.437 205.949L152.438 267.735C152.438 269.255 153.438 269.91 154.674 269.197Z" fill="#27DEBF"/>
<path d="M98.4439 317.162L157.238 283.217C158.292 282.609 159.145 283.102 159.145 284.318V305.733C159.145 306.949 158.292 308.428 157.238 309.036L98.4439 342.98C97.3914 343.588 96.5371 343.095 96.5371 341.879V320.464C96.5371 319.248 97.3903 317.769 98.4439 317.162Z" fill="#37474F"/>
<path d="M100.86 323.51C100.86 324.936 101.928 325.476 103.245 324.716L152.436 296.306C153.753 295.546 154.82 293.774 154.82 292.348C154.82 290.922 153.753 290.383 152.436 291.142L103.243 319.553C101.926 320.313 100.859 322.085 100.86 323.51Z" fill="#263238"/>
<path d="M100.86 323.51C100.86 324.936 101.928 325.475 103.244 324.716L139.019 304.051L139.02 298.887L103.243 319.553C101.926 320.313 100.859 322.085 100.86 323.51Z" fill="#27DEBF"/>
<path d="M100.86 333.839C100.86 335.265 101.928 335.804 103.245 335.045L152.436 306.635C153.753 305.875 154.82 304.102 154.82 302.677C154.82 301.251 153.753 300.712 152.436 301.471L103.243 329.881C101.926 330.641 100.859 332.412 100.86 333.839Z" fill="#263238"/>
<path d="M100.86 333.839C100.86 335.265 101.928 335.804 103.245 335.045L116.661 327.299L116.662 322.135L103.244 329.882C101.926 330.641 100.859 332.413 100.86 333.839Z" fill="#27DEBF"/>
<path d="M163.467 116.789L92.2106 75.6488C90.8939 74.8892 88.7603 74.8892 87.4436 75.6488L16.1867 116.789C14.87 117.549 14.87 118.782 16.1867 119.541L87.4447 160.681C88.7614 161.441 90.895 161.441 92.2117 160.681L163.466 119.541C164.784 118.782 164.784 117.549 163.467 116.789Z" fill="#455A64"/>
<path d="M88.3984 150.904L33.1225 118.991C32.3331 118.535 31.6924 117.425 31.6924 116.514V114.652C31.6924 113.741 32.332 112.631 33.1225 112.175L88.3973 80.2618C89.1867 79.806 90.4682 79.806 91.2575 80.2618L146.533 112.175C147.323 112.631 147.964 113.741 147.964 114.652V116.513C147.964 117.424 147.323 118.534 146.533 118.99L91.2586 150.903C90.4682 151.36 89.1878 151.36 88.3984 150.904Z" fill="#263238"/>
<path d="M33.1231 113.827L88.3991 145.74C89.1884 146.196 90.4699 146.196 91.2593 145.74L146.534 113.827C147.323 113.371 147.323 112.631 146.534 112.175L91.2582 81.3638C90.4688 80.908 89.1873 80.908 88.398 81.3638L33.1231 112.175C32.3327 112.631 32.3327 113.371 33.1231 113.827Z" fill="#455A64"/>
<path d="M89.8309 146.08V151.244C89.3134 151.244 88.796 151.134 88.3997 150.903L33.1226 118.987C32.3299 118.536 31.6914 117.424 31.6914 116.51V114.649C31.6914 113.846 32.1868 112.888 32.8584 112.359C32.3409 112.811 32.429 113.427 33.1226 113.824L88.3997 145.739C88.796 145.97 89.3134 146.08 89.8309 146.08Z" fill="#37474F"/>
<path d="M88.3984 135.412L51.0102 113.827C50.2208 113.371 49.5801 112.261 49.5801 111.349V109.489C49.5801 108.577 50.2208 107.468 51.0102 107.012L74.9815 93.1722C75.7709 92.7164 76.852 91.7531 77.3959 91.021L88.8443 75.5994C89.3881 74.8672 90.4692 74.6427 91.2586 75.0995L128.647 96.6841C129.436 97.1399 130.077 98.2496 130.077 99.1612L130.076 111.351C130.076 112.262 129.435 113.372 128.646 113.828L91.2586 135.413C90.4681 135.869 89.1878 135.869 88.3984 135.412Z" fill="#263238"/>
<path d="M91.2584 130.249L115.23 116.409C115.61 116.19 116.058 115.852 116.48 115.48C116.936 115.079 117.362 114.637 117.644 114.257L129.093 98.8353C129.636 98.1032 129.437 97.1399 128.647 96.6841L91.2584 75.0995C90.4691 74.6438 89.388 74.8672 88.8441 75.5994L77.3957 91.021C76.8518 91.7531 75.9689 92.8034 75.1795 93.2592L51.01 107.012C50.2206 107.468 50.2206 108.207 51.01 108.663L88.3971 130.249C89.1876 130.705 90.468 130.705 91.2584 130.249Z" fill="#455A64"/>
<path d="M128.647 96.6831L91.2596 75.0986C90.4691 74.6428 89.388 74.8663 88.8453 75.5984L77.3968 91.02C77.1139 91.4009 76.6845 91.838 76.2266 92.2376C76.2266 92.2376 116.466 115.486 116.478 115.476C116.934 115.075 117.362 114.637 117.644 114.256L129.093 98.8343C129.636 98.1033 129.436 97.14 128.647 96.6831Z" fill="#37474F"/>
<path d="M60.0821 107.391C61.008 106.855 62.5096 106.855 63.4366 107.391C64.3625 107.926 64.3625 108.792 63.4366 109.327C62.5107 109.862 61.0091 109.862 60.0821 109.327C59.1562 108.792 59.1562 107.926 60.0821 107.391Z" fill="#27DEBF"/>
<path d="M66.7901 111.264C67.716 110.729 69.2176 110.729 70.1446 111.264C71.0716 111.799 71.0705 112.665 70.1446 113.2C69.2187 113.735 67.7171 113.735 66.7901 113.2C65.8642 112.665 65.8642 111.798 66.7901 111.264Z" fill="#27DEBF"/>
<path d="M73.498 115.136C74.4238 114.601 75.9255 114.601 76.8525 115.136C77.7783 115.671 77.7783 116.537 76.8525 117.072C75.9266 117.607 74.4249 117.607 73.498 117.072C72.571 116.537 72.571 115.671 73.498 115.136Z" fill="#263238"/>
<path d="M80.206 119.009C81.1318 118.474 82.6335 118.474 83.5605 119.009C84.4874 119.544 84.4863 120.41 83.5605 120.945C82.6346 121.48 81.1329 121.48 80.206 120.945C79.279 120.41 79.279 119.544 80.206 119.009Z" fill="#263238"/>
<path d="M65.1132 104.486C66.0391 103.951 67.5407 103.951 68.4677 104.486C69.3947 105.021 69.3936 105.888 68.4677 106.423C67.5418 106.958 66.0402 106.958 65.1132 106.423C64.1862 105.888 64.1862 105.02 65.1132 104.486Z" fill="#27DEBF"/>
<path d="M73.4974 110.697C74.807 110.697 75.8687 110.083 75.8687 109.327C75.8687 108.571 74.807 107.958 73.4974 107.958C72.1877 107.958 71.126 108.571 71.126 109.327C71.126 110.083 72.1877 110.697 73.4974 110.697Z" fill="#263238"/>
<path d="M78.5274 112.231C79.4533 111.696 80.9549 111.696 81.8819 112.231C82.8089 112.766 82.8078 113.633 81.8819 114.168C80.956 114.703 79.4544 114.703 78.5274 114.168C77.6015 113.633 77.6015 112.766 78.5274 112.231Z" fill="#27DEBF"/>
<path d="M86.9124 118.442C88.2221 118.442 89.2838 117.829 89.2838 117.072C89.2838 116.316 88.2221 115.703 86.9124 115.703C85.6027 115.703 84.541 116.316 84.541 117.072C84.541 117.829 85.6027 118.442 86.9124 118.442Z" fill="#263238"/>
<path d="M70.1436 101.581C71.0695 101.046 72.5712 101.046 73.497 101.581C74.4229 102.116 74.4229 102.982 73.497 103.517C72.5712 104.053 71.0695 104.053 70.1436 103.517C69.2178 102.982 69.2178 102.116 70.1436 101.581Z" fill="#263238"/>
<path d="M76.8511 105.454C77.7769 104.919 79.2786 104.919 80.2056 105.454C81.1314 105.989 81.1314 106.855 80.2056 107.391C79.2797 107.926 77.778 107.926 76.8511 107.391C75.9241 106.855 75.9252 105.989 76.8511 105.454Z" fill="#27DEBF"/>
<path d="M83.5596 109.327C84.4855 108.792 85.9872 108.792 86.913 109.327C87.8389 109.862 87.8389 110.729 86.913 111.264C85.9872 111.799 84.4855 111.799 83.5596 111.264C82.6338 110.729 82.6338 109.861 83.5596 109.327Z" fill="#263238"/>
<path d="M86.9512 122.804C87.8771 122.269 89.3788 122.269 90.3057 122.804C91.2316 123.339 91.2316 124.205 90.3057 124.74C89.3799 125.275 87.8782 125.275 86.9512 124.74C86.0254 124.206 86.0254 123.339 86.9512 122.804Z" fill="#27DEBF"/>
<path d="M91.9815 119.899C92.9074 119.364 94.409 119.364 95.336 119.899C96.263 120.434 96.2619 121.301 95.336 121.836C94.4101 122.371 92.9085 122.371 91.9815 121.836C91.0556 121.301 91.0556 120.434 91.9815 119.899Z" fill="#263238"/>
<path d="M90.2675 113.203C91.1934 112.668 92.695 112.668 93.622 113.203C94.5479 113.738 94.5479 114.604 93.622 115.139C92.6961 115.674 91.1945 115.674 90.2675 115.139C89.3405 114.604 89.3405 113.738 90.2675 113.203Z" fill="#263238"/>
<path d="M76.8518 101.017C78.1615 101.017 79.2232 100.404 79.2232 99.6479C79.2232 98.8915 78.1615 98.2783 76.8518 98.2783C75.5422 98.2783 74.4805 98.8915 74.4805 99.6479C74.4805 100.404 75.5422 101.017 76.8518 101.017Z" fill="#27DEBF"/>
<path d="M81.8809 102.552C82.8068 102.017 84.3084 102.017 85.2354 102.552C86.1613 103.087 86.1613 103.954 85.2354 104.489C84.3095 105.024 82.8079 105.024 81.8809 104.489C80.9551 103.955 80.9551 103.087 81.8809 102.552Z" fill="#263238"/>
<path d="M90.2669 108.763C91.5766 108.763 92.6383 108.149 92.6383 107.393C92.6383 106.637 91.5766 106.023 90.2669 106.023C88.9572 106.023 87.8955 106.637 87.8955 107.393C87.8955 108.149 88.9572 108.763 90.2669 108.763Z" fill="#27DEBF"/>
<path d="M95.2969 110.298C96.2228 109.763 97.7245 109.763 98.6514 110.298C99.5773 110.833 99.5773 111.7 98.6514 112.235C97.7256 112.77 96.2239 112.77 95.2969 112.235C94.3711 111.7 94.3711 110.832 95.2969 110.298Z" fill="#263238"/>
<path d="M97.0128 116.997C97.9386 116.462 99.4403 116.462 100.367 116.997C101.293 117.532 101.293 118.398 100.367 118.934C99.4414 119.469 97.9397 119.469 97.0128 118.934C96.0869 118.4 96.0869 117.532 97.0128 116.997Z" fill="#27DEBF"/>
<path d="M103.72 116.431C105.03 116.431 106.091 115.818 106.091 115.062C106.091 114.306 105.03 113.692 103.72 113.692C102.41 113.692 101.349 114.306 101.349 115.062C101.349 115.818 102.41 116.431 103.72 116.431Z" fill="#263238"/>
<path d="M89.9077 130.59V135.743C89.3682 135.754 88.8177 135.655 88.3994 135.412L51.0122 113.823C50.2196 113.372 49.5811 112.26 49.5811 111.346V109.486C49.5811 108.682 50.0765 107.724 50.748 107.196C50.2306 107.647 50.3187 108.264 51.0122 108.66L88.3994 130.249C88.8177 130.491 89.3682 130.601 89.9077 130.59Z" fill="#37474F"/>
<path d="M82.3413 90.376L82.3743 90.3308C82.7354 89.842 83.4554 89.6923 83.9817 89.9961L116.517 108.781C117.043 109.085 117.175 109.727 116.812 110.214L116.778 110.26C116.415 110.747 115.693 110.896 115.166 110.592L82.6386 91.8115C82.1134 91.5077 81.9791 90.8648 82.3413 90.376Z" fill="#263238"/>
<path d="M82.3412 90.376L82.3742 90.3308C82.7353 89.842 83.4553 89.6923 83.9816 89.9961L108.171 103.961L106.821 105.772L82.6406 91.8115C82.1133 91.5077 81.979 90.8648 82.3412 90.376Z" fill="#27DEBF"/>
<path d="M85.0313 86.7666L85.0643 86.7214C85.4254 86.2326 86.1454 86.0829 86.6716 86.3868L119.207 105.172C119.733 105.476 119.866 106.117 119.502 106.605L119.468 106.65C119.105 107.138 118.384 107.287 117.856 106.983L85.3285 88.2022C84.8034 87.8983 84.6702 87.2554 85.0313 86.7666Z" fill="#263238"/>
<path d="M85.0311 86.7666L85.0642 86.7214C85.4253 86.2326 86.1453 86.0829 86.6715 86.3868L94.7588 91.0535L93.4091 92.8646L85.3306 88.2022C84.8033 87.8983 84.67 87.2554 85.0311 86.7666Z" fill="#27DEBF"/>
<path d="M87.7207 83.1562L87.7537 83.1111C88.1148 82.6223 88.8348 82.4726 89.361 82.7764L121.896 101.561C122.423 101.865 122.555 102.507 122.191 102.995L122.157 103.04C121.794 103.528 121.073 103.676 120.546 103.372L88.019 84.5918C87.4928 84.288 87.3596 83.645 87.7207 83.1562Z" fill="#263238"/>
<path d="M87.7202 83.1565L87.7533 83.1114C88.1144 82.6226 88.8344 82.4718 89.3617 82.7756L106.308 92.5286L104.958 94.3396L88.0208 84.591C87.4935 84.2872 87.3591 83.6453 87.7202 83.1565Z" fill="#27DEBF"/>
<path d="M90.4102 79.5464L90.4432 79.5012C90.8043 79.0124 91.5243 78.8627 92.0505 79.1665L124.586 97.9515C125.112 98.2554 125.244 98.8972 124.881 99.3849L124.847 99.43C124.484 99.9177 123.762 100.066 123.235 99.7625L90.7074 80.982C90.1823 80.6781 90.0491 80.0352 90.4102 79.5464Z" fill="#263238"/>
<path d="M90.41 79.5464L90.4431 79.5012C90.8042 79.0124 91.5242 78.8627 92.0504 79.1665L121.585 96.2175L120.235 98.0286L90.7095 80.982C90.1822 80.6781 90.0489 80.0352 90.41 79.5464Z" fill="#27DEBF"/>
<path d="M241.248 290.388V350.682C241.248 351.138 241.568 351.693 241.964 351.921L299.759 385.247C300.154 385.475 300.793 385.475 301.189 385.247L303.112 384.136C303.507 383.908 303.827 383.353 303.827 382.897V322.603C303.827 322.148 303.458 321.778 303.002 321.778L242.074 289.563C241.618 289.563 241.248 289.933 241.248 290.388Z" fill="#263238"/>
<path d="M303.001 321.778H301.298C300.843 321.778 300.473 322.148 300.473 322.604V384.834C300.473 385.29 300.793 385.475 301.188 385.247L303.112 384.136C303.507 383.908 303.827 383.353 303.827 382.897V322.604C303.827 322.148 303.457 321.778 303.001 321.778Z" fill="#3F5560"/>
<path d="M356.344 221.299V281.593C356.344 282.049 356.664 282.604 357.059 282.832L417.135 317.489C417.531 317.717 418.17 317.717 418.565 317.489L420.489 316.378C420.884 316.15 421.204 315.595 421.204 315.139V254.846C421.204 254.39 420.834 254.02 420.379 254.02L357.171 220.475C356.714 220.474 356.344 220.844 356.344 221.299Z" fill="#1A2428"/>
<path d="M420.378 254.019H418.675C418.22 254.019 417.85 254.388 417.85 254.844V317.075C417.85 317.53 418.17 317.715 418.565 317.488L420.489 316.377C420.884 316.149 421.204 315.594 421.204 315.138V254.844C421.204 254.388 420.834 254.019 420.378 254.019Z" fill="#3F5560"/>
<path d="M235.612 288.496V287.926C235.612 287.014 236.253 285.905 237.042 285.449L358.279 215.452C359.068 214.997 360.35 214.997 361.139 215.452L425.359 252.529C426.148 252.985 426.789 254.095 426.789 255.006V255.576C426.789 256.488 426.148 257.598 425.359 258.054L304.122 328.05C303.333 328.506 302.052 328.506 301.262 328.05L237.042 290.973C236.253 290.517 235.612 289.409 235.612 288.496Z" fill="#3F5560"/>
<path d="M302.692 324.523V328.398C302.175 328.398 301.657 328.277 301.261 328.057L237.044 290.978C236.252 290.515 235.613 289.414 235.613 288.501V287.928C235.613 287.124 236.109 286.156 236.78 285.638C236.263 286.079 236.351 286.695 237.044 287.102L301.261 324.181C301.657 324.413 302.175 324.523 302.692 324.523Z" fill="#3F5560"/>
<path d="M237.042 287.101L301.262 324.178C302.051 324.634 303.333 324.634 304.122 324.178L425.359 254.181C426.148 253.726 426.148 252.986 425.359 252.53L361.139 215.453C360.349 214.998 359.068 214.998 358.279 215.453L237.042 285.45C236.253 285.906 236.253 286.644 237.042 287.101Z" fill="#263238"/>
<path d="M340.546 261.215L376.852 240.212C377.5 239.838 378.553 239.838 379.201 240.212L390.696 246.925C391.344 247.3 391.344 247.907 390.696 248.282L354.39 269.285C353.742 269.659 352.689 269.659 352.041 269.285L340.546 262.572C339.897 262.197 339.897 261.59 340.546 261.215Z" fill="#3F5560"/>
<path d="M346.982 248.186L346.949 248.168L343.103 245.943C342.576 245.64 342.576 245.145 343.103 244.841L373.272 227.419C373.798 227.116 373.798 226.622 373.272 226.318L372.965 226.141C372.439 225.837 371.584 225.837 371.058 226.141L341.74 243.068C341.213 243.372 340.725 243.398 340.709 243.12C340.699 242.949 340.708 242.78 340.74 242.619L342.402 234.012C342.518 233.415 342.183 232.686 341.656 232.385L341.354 232.212C340.827 231.91 340.306 232.149 340.192 232.746L338.275 242.74C338.206 243.095 338.204 243.472 338.258 243.848C338.344 244.451 338.13 245.152 337.602 245.457L319.302 256.022C318.776 256.326 318.776 256.819 319.302 257.123L319.613 257.304C320.14 257.608 320.994 257.608 321.52 257.304L339.009 247.204C339.536 246.9 339.997 246.677 340.037 246.706C340.061 246.725 340.086 246.743 340.111 246.757L346.06 250.192C346.586 250.496 347.441 250.498 347.968 250.195C350.577 248.696 357.803 244.532 360.412 243.029C360.939 242.725 361.113 242.337 360.799 242.16C360.485 241.983 359.786 242.054 359.239 242.318L348.007 247.724C347.46 247.989 347.001 248.196 346.982 248.186Z" fill="#3F5560"/>
<path d="M379.048 237.431L389.923 243.71C390.571 244.084 391.097 244.958 391.097 245.661C391.097 246.363 390.571 247.237 389.923 247.611L354.802 267.888C354.154 268.262 353.101 268.262 352.453 267.888L341.578 261.61C340.93 261.235 340.403 260.361 340.403 259.659C340.403 258.956 340.93 258.082 341.578 257.708L376.698 237.431C377.348 237.056 378.399 237.056 379.048 237.431Z" fill="#37474F"/>
<path d="M353.629 268.169C353.204 268.169 352.779 268.075 352.454 267.888L341.579 261.61C340.931 261.235 340.404 260.361 340.404 259.659C340.404 258.956 340.931 258.082 341.579 257.708L342.71 257.055H353.63V268.169H353.629Z" fill="#263238"/>
<path d="M341.571 257.707L376.692 237.43C377.34 237.056 378.393 237.056 379.041 237.43L389.917 243.709C390.565 244.083 390.565 244.691 389.917 245.065L354.797 265.342C354.148 265.716 353.096 265.716 352.447 265.342L341.571 259.063C340.923 258.689 340.923 258.082 341.571 257.707Z" fill="#455A64"/>
<path d="M373.674 246.786L374.779 246.147C374.826 246.12 374.823 246.075 374.772 246.045L373.494 245.306C373.444 245.278 373.364 245.275 373.318 245.303L372.212 245.941C372.164 245.969 372.168 246.014 372.218 246.043L373.496 246.781C373.547 246.811 373.626 246.812 373.674 246.786ZM371.492 244.249L370.386 244.888C370.339 244.915 370.342 244.96 370.393 244.99L371.671 245.729C371.722 245.758 371.801 245.76 371.847 245.732L372.953 245.094C373 245.066 372.997 245.021 372.946 244.992L371.668 244.254C371.617 244.224 371.538 244.222 371.492 244.249ZM367.919 246.311L366.048 247.391C366 247.419 366.004 247.464 366.054 247.493L367.332 248.231C367.383 248.26 367.462 248.262 367.509 248.235L369.38 247.155C369.427 247.127 369.424 247.082 369.374 247.052L368.095 246.314C368.045 246.286 367.965 246.285 367.919 246.311ZM369.876 245.182L368.769 245.82C368.723 245.848 368.725 245.893 368.776 245.922L370.054 246.66C370.105 246.689 370.184 246.691 370.23 246.664L371.335 246.025C371.383 245.998 371.379 245.952 371.329 245.924L370.051 245.185C370.001 245.156 369.922 245.155 369.876 245.182ZM365.537 247.686L364.432 248.325C364.384 248.352 364.387 248.398 364.438 248.426L365.716 249.165C365.767 249.194 365.845 249.196 365.892 249.168L366.999 248.53C367.046 248.502 367.043 248.457 366.992 248.428L365.714 247.69C365.663 247.661 365.584 247.66 365.537 247.686ZM363.921 248.62L362.815 249.258C362.768 249.286 362.771 249.331 362.822 249.36L364.1 250.098C364.151 250.127 364.229 250.129 364.276 250.102L365.382 249.463C365.429 249.436 365.426 249.391 365.375 249.362L364.097 248.623C364.047 248.595 363.968 248.592 363.921 248.62ZM368.951 251.622L370.056 250.984C370.103 250.956 370.1 250.911 370.05 250.882L368.771 250.144C368.721 250.115 368.641 250.113 368.595 250.14L367.49 250.779C367.443 250.806 367.446 250.851 367.496 250.881L368.775 251.62C368.824 251.647 368.903 251.649 368.951 251.622ZM367.335 252.555L368.44 251.916C368.487 251.889 368.484 251.843 368.433 251.814L367.155 251.075C367.105 251.046 367.025 251.044 366.979 251.072L365.874 251.71C365.826 251.738 365.83 251.783 365.88 251.811L367.158 252.55C367.208 252.58 367.287 252.582 367.335 252.555ZM365.719 253.488L366.824 252.85C366.871 252.822 366.868 252.777 366.817 252.748L365.539 252.01C365.488 251.981 365.409 251.979 365.363 252.006L364.258 252.645C364.21 252.672 364.214 252.718 364.264 252.746L365.542 253.485C365.592 253.514 365.671 253.515 365.719 253.488ZM364.102 254.421L365.209 253.782C365.256 253.755 365.253 253.709 365.202 253.681L363.924 252.942C363.873 252.914 363.795 252.911 363.748 252.939L362.643 253.577C362.595 253.605 362.598 253.65 362.649 253.679L363.927 254.417C363.976 254.447 364.055 254.448 364.102 254.421ZM372.058 247.718L373.163 247.08C373.21 247.052 373.207 247.007 373.156 246.978L371.878 246.24C371.827 246.211 371.749 246.209 371.702 246.236L370.596 246.875C370.548 246.903 370.552 246.948 370.602 246.977L371.88 247.716C371.931 247.745 372.01 247.746 372.058 247.718ZM370.567 250.689L373.034 249.264C373.081 249.236 373.078 249.191 373.027 249.163L369.923 247.369C369.872 247.341 369.793 247.338 369.747 247.366L368.471 248.102C368.423 248.13 368.427 248.175 368.477 248.205L370.121 249.154C370.172 249.182 370.174 249.229 370.128 249.256L369.107 249.845C369.06 249.873 369.063 249.918 369.114 249.947L370.392 250.685C370.44 250.714 370.52 250.716 370.567 250.689ZM362.305 249.552L361.198 250.191C361.151 250.218 361.154 250.264 361.205 250.292L362.483 251.031C362.534 251.06 362.612 251.062 362.659 251.034L363.764 250.396C363.812 250.368 363.808 250.323 363.758 250.294L362.48 249.556C362.431 249.527 362.352 249.526 362.305 249.552ZM360.688 250.486L359.583 251.125C359.536 251.152 359.539 251.197 359.59 251.227L360.868 251.966C360.919 251.994 360.997 251.996 361.044 251.969L362.149 251.33C362.197 251.303 362.193 251.258 362.143 251.229L360.865 250.49C360.815 250.461 360.736 250.458 360.688 250.486ZM352.613 260.949C352.664 260.978 352.743 260.98 352.789 260.952L353.895 260.314C353.942 260.286 353.939 260.241 353.888 260.211L352.61 259.473C352.559 259.444 352.48 259.442 352.434 259.469L351.328 260.108C351.281 260.136 351.284 260.181 351.335 260.21L352.613 260.949ZM347.759 257.95L346.654 258.589C346.607 258.616 346.61 258.661 346.661 258.69L347.939 259.429C347.989 259.457 348.069 259.46 348.115 259.432L349.22 258.794C349.267 258.766 349.264 258.721 349.214 258.692L347.935 257.954C347.886 257.925 347.807 257.924 347.759 257.95ZM350.361 260.14C350.411 260.17 350.49 260.171 350.537 260.143L351.643 259.505C351.691 259.477 351.687 259.432 351.637 259.403L350.358 258.665C350.308 258.636 350.23 258.634 350.182 258.661L349.077 259.3C349.03 259.327 349.033 259.373 349.084 259.401L350.361 260.14ZM355.467 261.516L356.572 260.878C356.619 260.85 356.616 260.805 356.565 260.776L355.287 260.038C355.237 260.009 355.159 260.007 355.111 260.034L354.006 260.673C353.959 260.7 353.962 260.745 354.012 260.775L355.291 261.513C355.34 261.541 355.419 261.544 355.467 261.516ZM353.673 262.445C353.724 262.475 353.802 262.476 353.85 262.449L354.956 261.81C355.003 261.782 355 261.737 354.949 261.709L353.671 260.97C353.621 260.941 353.541 260.939 353.495 260.967L352.39 261.605C352.342 261.633 352.346 261.678 352.396 261.707L353.673 262.445ZM349.375 257.018L348.27 257.656C348.223 257.684 348.226 257.729 348.277 257.758L349.555 258.496C349.605 258.525 349.684 258.527 349.731 258.5L350.836 257.861C350.884 257.834 350.88 257.788 350.83 257.76L349.552 257.021C349.502 256.992 349.423 256.99 349.375 257.018ZM357.456 252.352L356.351 252.991C356.303 253.018 356.307 253.063 356.357 253.092L357.636 253.831C357.686 253.859 357.765 253.861 357.812 253.834L358.917 253.195C358.964 253.168 358.961 253.123 358.91 253.094L357.632 252.355C357.583 252.327 357.503 252.326 357.456 252.352ZM350.992 256.084L349.886 256.723C349.839 256.75 349.842 256.795 349.893 256.824L351.171 257.563C351.222 257.591 351.3 257.594 351.347 257.566L352.452 256.927C352.5 256.9 352.496 256.855 352.446 256.826L351.168 256.087C351.118 256.059 351.039 256.058 350.992 256.084ZM359.072 251.42L357.967 252.058C357.92 252.086 357.923 252.131 357.974 252.159L359.252 252.898C359.302 252.927 359.382 252.929 359.428 252.901L360.533 252.263C360.581 252.235 360.577 252.19 360.527 252.162L359.248 251.423C359.199 251.393 359.12 251.392 359.072 251.42ZM355.84 253.286L354.735 253.924C354.687 253.952 354.691 253.997 354.741 254.027L356.019 254.764C356.07 254.793 356.149 254.795 356.196 254.767L357.301 254.129C357.348 254.101 357.345 254.056 357.294 254.028L356.016 253.289C355.967 253.26 355.887 253.258 355.84 253.286ZM354.224 254.218L353.119 254.857C353.071 254.884 353.074 254.929 353.125 254.958L354.403 255.697C354.454 255.725 354.533 255.727 354.579 255.7L355.686 255.061C355.733 255.034 355.73 254.989 355.679 254.959L354.401 254.22C354.35 254.193 354.271 254.192 354.224 254.218ZM352.608 255.152L351.502 255.79C351.455 255.818 351.458 255.863 351.509 255.892L352.787 256.63C352.838 256.66 352.916 256.661 352.963 256.633L354.069 255.995C354.116 255.967 354.113 255.922 354.062 255.893L352.784 255.154C352.734 255.126 352.655 255.124 352.608 255.152ZM360.87 256.288L361.975 255.649C362.023 255.622 362.019 255.577 361.969 255.548L360.691 254.809C360.64 254.781 360.562 254.778 360.514 254.806L359.409 255.445C359.362 255.472 359.365 255.517 359.416 255.546L360.694 256.285C360.743 256.313 360.823 256.314 360.87 256.288ZM375.064 242.186L373.959 242.825C373.912 242.852 373.915 242.897 373.965 242.926L375.244 243.665C375.294 243.693 375.372 243.696 375.42 243.668L376.525 243.029C376.572 243.002 376.569 242.957 376.519 242.928L375.24 242.189C375.19 242.161 375.112 242.16 375.064 242.186ZM373.108 243.316L372.003 243.954C371.955 243.982 371.959 244.027 372.009 244.056L373.287 244.794C373.338 244.823 373.416 244.825 373.463 244.798L374.569 244.159C374.616 244.131 374.613 244.086 374.562 244.057L373.284 243.318C373.233 243.29 373.154 243.289 373.108 243.316ZM376.68 241.254L375.575 241.892C375.528 241.92 375.531 241.965 375.582 241.993L376.86 242.732C376.91 242.761 376.99 242.763 377.036 242.736L378.142 242.097C378.19 242.069 378.186 242.024 378.136 241.995L376.858 241.256C376.806 241.228 376.727 241.226 376.68 241.254ZM368.314 249.879L369.42 249.241C369.467 249.213 369.464 249.168 369.413 249.138L368.135 248.4C368.084 248.371 368.005 248.369 367.959 248.396L366.854 249.035C366.806 249.063 366.81 249.108 366.86 249.136L368.138 249.875C368.189 249.905 368.268 249.907 368.314 249.879ZM378.473 240.323C378.422 240.295 378.343 240.293 378.296 240.32L377.191 240.959C377.144 240.986 377.147 241.031 377.198 241.06L378.476 241.799C378.527 241.827 378.605 241.829 378.652 241.802L379.757 241.163C379.805 241.136 379.801 241.091 379.751 241.062L378.473 240.323ZM362.486 255.354L363.592 254.716C363.639 254.688 363.636 254.643 363.585 254.614L362.307 253.876C362.256 253.847 362.178 253.845 362.131 253.872L361.025 254.511C360.978 254.538 360.981 254.584 361.032 254.612L362.31 255.351C362.36 255.38 362.439 255.382 362.486 255.354ZM382.305 243.911L383.41 243.273C383.458 243.245 383.454 243.2 383.404 243.17L382.125 242.432C382.075 242.402 381.997 242.401 381.949 242.428L380.844 243.067C380.797 243.094 380.8 243.14 380.851 243.168L382.129 243.907C382.179 243.937 382.258 243.939 382.305 243.911ZM378.862 243.79L379.968 243.152C380.015 243.124 380.012 243.079 379.961 243.05L378.683 242.312C378.632 242.283 378.554 242.281 378.507 242.308L377.401 242.947C377.354 242.974 377.357 243.02 377.408 243.048L378.686 243.787C378.736 243.816 378.815 243.818 378.862 243.79ZM380.299 241.378C380.248 241.349 380.17 241.347 380.123 241.375L379.018 242.013C378.97 242.041 378.974 242.086 379.024 242.115L380.302 242.853C380.353 242.883 380.432 242.884 380.478 242.857L381.584 242.218C381.631 242.191 381.628 242.145 381.577 242.117L380.299 241.378ZM380.639 241.182L383.744 242.976C383.794 243.004 383.873 243.006 383.92 242.979L385.025 242.34C385.073 242.313 385.069 242.268 385.019 242.238L381.913 240.445C381.862 240.416 381.783 240.414 381.737 240.441L380.632 241.08C380.586 241.107 380.589 241.152 380.639 241.182ZM376.891 243.241L375.785 243.879C375.738 243.907 375.741 243.952 375.792 243.981L377.071 244.719C377.122 244.749 377.201 244.75 377.247 244.723L378.353 244.084C378.4 244.057 378.397 244.011 378.346 243.983L377.068 243.244C377.016 243.216 376.938 243.214 376.891 243.241ZM364.727 250.264L363.621 250.902C363.574 250.93 363.577 250.975 363.628 251.003L364.906 251.742C364.957 251.771 365.036 251.773 365.082 251.745L366.189 251.107C366.236 251.079 366.233 251.034 366.182 251.005L364.904 250.266C364.853 250.238 364.774 250.236 364.727 250.264ZM380.513 244.842C380.563 244.87 380.641 244.872 380.689 244.845L381.795 244.206C381.841 244.179 381.839 244.134 381.789 244.105L380.51 243.366C380.46 243.337 380.382 243.336 380.334 243.363L379.229 244.002C379.182 244.029 379.185 244.074 379.236 244.103L380.513 244.842ZM366.343 249.331L365.237 249.97C365.19 249.997 365.193 250.042 365.244 250.072L366.522 250.811C366.573 250.84 366.652 250.842 366.698 250.814L367.804 250.176C367.851 250.148 367.848 250.103 367.797 250.074L366.519 249.336C366.469 249.305 366.39 249.304 366.343 249.331ZM354.228 260.016C354.279 260.045 354.358 260.046 354.404 260.019L355.51 259.38C355.557 259.353 355.554 259.308 355.503 259.278L354.225 258.539C354.174 258.511 354.096 258.508 354.049 258.536L352.943 259.174C352.896 259.202 352.899 259.247 352.95 259.276L354.228 260.016ZM351.797 257.728L350.692 258.366C350.645 258.393 350.648 258.439 350.699 258.468L351.977 259.206C352.027 259.235 352.107 259.237 352.153 259.21L353.258 258.571C353.306 258.544 353.302 258.498 353.252 258.469L351.974 257.73C351.924 257.702 351.845 257.701 351.797 257.728ZM356.022 259.086L357.127 258.448C357.174 258.42 357.171 258.375 357.12 258.345L355.842 257.608C355.792 257.578 355.712 257.577 355.666 257.605L354.561 258.243C354.513 258.271 354.517 258.316 354.567 258.344L355.845 259.083C355.895 259.112 355.974 259.114 356.022 259.086ZM357.638 258.154L358.743 257.515C358.79 257.488 358.787 257.443 358.736 257.414L357.458 256.675C357.408 256.647 357.329 256.645 357.282 256.672L356.176 257.311C356.128 257.338 356.132 257.383 356.182 257.412L357.461 258.151C357.511 258.179 357.59 258.18 357.638 258.154ZM359.254 257.22L360.359 256.582C360.407 256.554 360.403 256.509 360.353 256.479L359.074 255.741C359.024 255.712 358.945 255.71 358.898 255.737L357.793 256.376C357.746 256.403 357.749 256.449 357.8 256.477L359.078 257.216C359.127 257.246 359.207 257.248 359.254 257.22ZM353.414 256.795L352.308 257.434C352.261 257.461 352.264 257.507 352.315 257.536L353.593 258.275C353.644 258.304 353.723 258.306 353.769 258.278L354.874 257.64C354.922 257.612 354.918 257.567 354.868 257.538L353.59 256.8C353.54 256.77 353.461 256.768 353.414 256.795ZM355.03 255.862L353.924 256.5C353.877 256.528 353.88 256.573 353.931 256.602L355.209 257.34C355.26 257.37 355.339 257.371 355.385 257.344L356.491 256.705C356.538 256.678 356.535 256.632 356.484 256.604L355.206 255.865C355.156 255.836 355.077 255.835 355.03 255.862ZM361.494 252.13L360.389 252.768C360.342 252.796 360.345 252.841 360.396 252.871L361.674 253.608C361.724 253.637 361.803 253.639 361.85 253.611L362.955 252.973C363.003 252.945 362.999 252.9 362.949 252.871L361.67 252.132C361.621 252.104 361.542 252.103 361.494 252.13ZM359.878 253.063L358.773 253.702C358.725 253.729 358.729 253.774 358.779 253.803L360.058 254.542C360.108 254.571 360.187 254.573 360.234 254.545L361.339 253.907C361.386 253.879 361.383 253.834 361.332 253.804L360.054 253.065C360.005 253.038 359.925 253.036 359.878 253.063ZM363.11 251.197L362.005 251.836C361.958 251.863 361.961 251.908 362.012 251.937L363.29 252.676C363.341 252.705 363.42 252.707 363.466 252.679L364.571 252.04C364.619 252.013 364.615 251.968 364.565 251.939L363.287 251.2C363.237 251.172 363.158 251.17 363.11 251.197ZM356.646 254.929L355.539 255.568C355.492 255.595 355.495 255.64 355.546 255.669L356.824 256.408C356.875 256.436 356.954 256.439 357 256.411L358.106 255.773C358.153 255.745 358.15 255.7 358.099 255.671L356.821 254.933C356.772 254.904 356.693 254.902 356.646 254.929ZM358.262 253.996L357.157 254.634C357.109 254.662 357.113 254.707 357.163 254.736L358.441 255.474C358.492 255.503 358.571 255.505 358.618 255.478L359.723 254.839C359.77 254.811 359.767 254.766 359.716 254.738L358.438 253.999C358.389 253.97 358.309 253.969 358.262 253.996ZM357.083 260.582L358.188 259.944C358.236 259.916 358.232 259.871 358.182 259.843L356.903 259.104C356.853 259.075 356.774 259.073 356.727 259.101L355.622 259.739C355.575 259.767 355.578 259.812 355.629 259.842L356.907 260.58C356.956 260.609 357.036 260.61 357.083 260.582ZM347.598 259.626L346.32 258.887C346.27 258.858 346.19 258.856 346.144 258.884L345.039 259.522C344.992 259.55 344.995 259.595 345.045 259.624L346.324 260.362C346.374 260.392 346.454 260.393 346.5 260.366L347.605 259.727C347.651 259.701 347.649 259.654 347.598 259.626ZM350.021 260.336L348.742 259.598C348.692 259.569 348.612 259.567 348.566 259.595L346.865 260.577C346.818 260.605 346.821 260.65 346.872 260.678L348.15 261.417C348.201 261.446 348.279 261.448 348.326 261.42L350.027 260.438C350.073 260.411 350.071 260.366 350.021 260.336ZM345.637 258.198L344.359 257.46C344.308 257.432 344.229 257.429 344.182 257.457L342.822 258.243C342.774 258.271 342.778 258.316 342.828 258.344L344.106 259.083C344.157 259.112 344.236 259.114 344.283 259.086L345.643 258.3C345.69 258.273 345.687 258.228 345.637 258.198ZM346.68 257.596C346.731 257.624 346.809 257.627 346.856 257.599L347.962 256.96C348.009 256.933 348.006 256.888 347.955 256.859L346.677 256.12C346.626 256.091 346.547 256.09 346.501 256.117L345.396 256.756C345.348 256.783 345.352 256.828 345.402 256.858L346.68 257.596ZM352.272 261.145L350.994 260.406C350.943 260.378 350.864 260.376 350.818 260.403L348.691 261.631C348.643 261.658 348.647 261.703 348.697 261.732L349.975 262.471C350.026 262.499 350.104 262.501 350.152 262.474L352.279 261.246C352.326 261.22 352.323 261.175 352.272 261.145ZM353.333 262.642L352.055 261.904C352.004 261.875 351.926 261.873 351.879 261.9L350.518 262.686C350.471 262.714 350.474 262.759 350.525 262.788L351.803 263.526C351.854 263.555 351.933 263.557 351.979 263.53L353.34 262.744C353.387 262.717 353.384 262.671 353.333 262.642ZM358.697 250.659C358.747 250.687 358.826 250.69 358.873 250.662L359.978 250.024C360.026 249.996 360.022 249.951 359.972 249.922L358.694 249.184C358.643 249.155 358.564 249.153 358.517 249.18L357.412 249.819C357.365 249.846 357.368 249.891 357.419 249.92L358.697 250.659ZM355.465 252.525C355.515 252.554 355.593 252.556 355.641 252.528L356.747 251.89C356.794 251.862 356.791 251.817 356.741 251.788L355.462 251.05C355.412 251.021 355.334 251.019 355.286 251.046L354.181 251.685C354.134 251.712 354.137 251.758 354.187 251.787L355.465 252.525ZM348.296 256.663C348.347 256.692 348.426 256.694 348.473 256.667L349.578 256.028C349.625 256 349.622 255.955 349.571 255.927L348.293 255.188C348.243 255.159 348.163 255.157 348.117 255.185L347.012 255.823C346.964 255.851 346.968 255.896 347.018 255.925L348.296 256.663ZM357.08 251.591C357.13 251.621 357.21 251.622 357.256 251.595L358.361 250.956C358.408 250.929 358.405 250.883 358.354 250.855L357.076 250.116C357.026 250.087 356.947 250.085 356.9 250.113L355.795 250.751C355.747 250.779 355.751 250.824 355.801 250.854L357.08 251.591ZM353.848 253.457C353.899 253.486 353.977 253.488 354.025 253.461L355.13 252.822C355.177 252.795 355.174 252.749 355.123 252.72L353.845 251.981C353.794 251.952 353.715 251.95 353.669 251.978L352.564 252.616C352.516 252.644 352.52 252.689 352.57 252.719L353.848 253.457ZM354.222 262.762C354.171 262.734 354.092 262.731 354.045 262.759L352.345 263.741C352.297 263.769 352.301 263.814 352.351 263.842L353.629 264.581C353.68 264.61 353.759 264.612 353.805 264.584L355.506 263.602C355.554 263.575 355.55 263.53 355.5 263.501L354.222 262.762ZM351.529 254.797C351.579 254.826 351.658 254.828 351.705 254.8L352.81 254.162C352.858 254.134 352.854 254.089 352.804 254.061L351.525 253.322C351.475 253.292 351.396 253.291 351.349 253.319L350.244 253.957C350.197 253.985 350.2 254.03 350.251 254.058L351.529 254.797ZM349.913 255.73C349.963 255.758 350.043 255.76 350.089 255.733L351.194 255.094C351.241 255.067 351.238 255.022 351.188 254.993L349.909 254.254C349.859 254.225 349.779 254.224 349.733 254.251L348.628 254.89C348.581 254.917 348.584 254.962 348.634 254.991L349.913 255.73ZM384.163 245.476C384.113 245.447 384.034 245.445 383.987 245.472L381.266 247.043C381.218 247.071 381.222 247.116 381.272 247.145L382.552 247.883C382.602 247.912 382.68 247.914 382.728 247.887L385.449 246.316C385.496 246.288 385.493 246.243 385.443 246.214L384.163 245.476ZM380.591 247.538C380.54 247.509 380.461 247.507 380.415 247.534L379.309 248.173C379.262 248.2 379.265 248.246 379.316 248.275L380.594 249.014C380.645 249.043 380.724 249.045 380.77 249.017L381.876 248.379C381.923 248.351 381.92 248.306 381.869 248.276L380.591 247.538ZM358.699 259.65L359.804 259.011C359.852 258.984 359.848 258.939 359.798 258.909L358.52 258.17C358.469 258.142 358.39 258.14 358.343 258.167L357.238 258.806C357.191 258.833 357.194 258.878 357.245 258.907L358.523 259.646C358.572 259.675 358.652 259.678 358.699 259.65ZM377.359 249.404C377.308 249.375 377.229 249.373 377.182 249.4L376.077 250.039C376.03 250.067 376.033 250.112 376.084 250.141L377.362 250.88C377.412 250.909 377.492 250.911 377.538 250.883L378.643 250.245C378.691 250.217 378.687 250.172 378.637 250.144L377.359 249.404ZM385.779 244.542C385.729 244.512 385.651 244.511 385.603 244.539L384.498 245.177C384.451 245.205 384.454 245.25 384.505 245.279L385.783 246.017C385.833 246.046 385.913 246.048 385.959 246.021L387.064 245.382C387.112 245.355 387.108 245.309 387.058 245.281L385.779 244.542ZM388.674 244.347L385.568 242.554C385.517 242.525 385.439 242.523 385.392 242.551L384.287 243.189C384.239 243.217 384.243 243.262 384.293 243.29L387.399 245.084C387.45 245.112 387.528 245.115 387.575 245.087L388.68 244.449C388.728 244.422 388.724 244.377 388.674 244.347ZM371.319 252.89C371.268 252.862 371.189 252.86 371.143 252.887L369.782 253.673C369.735 253.701 369.738 253.746 369.789 253.776L371.067 254.514C371.117 254.543 371.196 254.545 371.243 254.518L372.604 253.731C372.651 253.704 372.648 253.659 372.597 253.63L371.319 252.89ZM375.402 250.533C375.352 250.505 375.272 250.502 375.226 250.53L373.525 251.512C373.478 251.54 373.481 251.585 373.532 251.613L374.81 252.352C374.861 252.381 374.939 252.383 374.986 252.355L376.687 251.373C376.734 251.346 376.731 251.301 376.68 251.272L375.402 250.533ZM367.577 255.052C367.526 255.023 367.447 255.021 367.401 255.048L358.299 260.303C358.252 260.33 358.255 260.376 358.306 260.404L359.584 261.143C359.635 261.171 359.713 261.174 359.76 261.146L368.862 255.892C368.909 255.864 368.906 255.819 368.855 255.789L367.577 255.052ZM357.965 260.601C357.914 260.573 357.835 260.57 357.789 260.598L356.428 261.384C356.381 261.411 356.384 261.457 356.434 261.485L357.713 262.224C357.763 262.253 357.843 262.255 357.889 262.227L359.25 261.441C359.297 261.414 359.294 261.369 359.243 261.34L357.965 260.601ZM369.447 253.971C369.397 253.943 369.317 253.941 369.271 253.968L367.91 254.754C367.863 254.782 367.866 254.827 367.917 254.856L369.195 255.594C369.246 255.624 369.325 255.625 369.371 255.598L370.732 254.811C370.779 254.784 370.776 254.739 370.725 254.71L369.447 253.971ZM356.093 261.681C356.043 261.653 355.964 261.65 355.917 261.678L354.556 262.464C354.509 262.492 354.512 262.537 354.563 262.566L355.841 263.305C355.892 263.334 355.97 263.336 356.017 263.308L357.378 262.522C357.425 262.495 357.422 262.45 357.371 262.42L356.093 261.681ZM373.19 251.81C373.14 251.782 373.062 251.78 373.014 251.807L371.654 252.593C371.606 252.621 371.609 252.666 371.66 252.694L372.938 253.433C372.989 253.462 373.068 253.464 373.114 253.436L374.475 252.65C374.523 252.623 374.519 252.578 374.469 252.549L373.19 251.81ZM378.975 248.471C378.924 248.443 378.845 248.44 378.798 248.468L377.693 249.107C377.646 249.134 377.649 249.179 377.7 249.208L378.978 249.947C379.029 249.975 379.107 249.977 379.154 249.95L380.259 249.311C380.307 249.284 380.303 249.239 380.253 249.209L378.975 248.471ZM382.515 245.9L383.621 245.261C383.668 245.234 383.665 245.188 383.614 245.16L382.336 244.421C382.285 244.392 382.207 244.39 382.16 244.418L381.054 245.056C381.007 245.084 381.01 245.129 381.061 245.158L382.339 245.896C382.39 245.925 382.469 245.926 382.515 245.9ZM375.29 245.852L376.395 245.214C376.443 245.186 376.439 245.141 376.389 245.111L375.11 244.374C375.06 244.345 374.981 244.343 374.934 244.37L373.829 245.009C373.782 245.036 373.785 245.082 373.836 245.11L375.114 245.848C375.163 245.878 375.243 245.88 375.29 245.852ZM371.628 252.185L374.861 250.319C374.908 250.291 374.905 250.246 374.854 250.217L373.576 249.479C373.525 249.45 373.447 249.448 373.4 249.475L370.167 251.341C370.12 251.369 370.123 251.414 370.174 251.443L371.452 252.181C371.502 252.211 371.581 252.212 371.628 252.185ZM380.723 246.829C380.774 246.857 380.853 246.86 380.899 246.832L382.004 246.193C382.052 246.166 382.048 246.121 381.998 246.091L380.72 245.352C380.669 245.324 380.59 245.322 380.543 245.349L379.437 245.988C379.39 246.015 379.393 246.06 379.444 246.089L380.723 246.829ZM379.073 245.777L380.178 245.139C380.225 245.111 380.222 245.066 380.171 245.038L378.893 244.299C378.843 244.269 378.763 244.268 378.717 244.296L377.612 244.934C377.564 244.962 377.568 245.007 377.618 245.035L378.896 245.774C378.947 245.803 379.025 245.805 379.073 245.777ZM370.011 253.118L371.117 252.48C371.165 252.452 371.161 252.407 371.111 252.378L369.833 251.64C369.782 251.611 369.703 251.609 369.656 251.636L368.551 252.275C368.504 252.303 368.507 252.348 368.558 252.376L369.836 253.115C369.885 253.144 369.965 253.146 370.011 253.118ZM377.15 248.891C377.201 248.92 377.28 248.922 377.327 248.894L378.432 248.256C378.479 248.228 378.476 248.183 378.425 248.154L377.147 247.416C377.096 247.387 377.017 247.385 376.971 247.412L375.866 248.051C375.818 248.078 375.822 248.123 375.872 248.153L377.15 248.891ZM361.931 257.784L363.037 257.145C363.084 257.118 363.081 257.073 363.03 257.044L361.752 256.305C361.701 256.277 361.622 256.275 361.576 256.302L360.47 256.941C360.423 256.968 360.426 257.013 360.477 257.042L361.755 257.781C361.805 257.809 361.884 257.811 361.931 257.784ZM363.547 256.85L364.653 256.212C364.7 256.184 364.697 256.139 364.646 256.111L363.368 255.372C363.317 255.343 363.239 255.341 363.192 255.369L362.087 256.007C362.039 256.035 362.043 256.08 362.093 256.108L363.371 256.847C363.421 256.876 363.5 256.878 363.547 256.85ZM360.315 258.716L361.421 258.078C361.468 258.05 361.465 258.005 361.414 257.977L360.136 257.238C360.085 257.209 360.006 257.207 359.96 257.235L358.854 257.873C358.807 257.901 358.81 257.946 358.861 257.976L360.139 258.714C360.189 258.742 360.268 258.744 360.315 258.716ZM366.779 254.984L367.884 254.346C367.931 254.318 367.928 254.273 367.877 254.243L366.599 253.505C366.549 253.476 366.469 253.474 366.423 253.501L365.318 254.14C365.27 254.167 365.274 254.213 365.324 254.241L366.603 254.98C366.653 255.01 366.732 255.012 366.779 254.984ZM365.163 255.918L366.268 255.279C366.315 255.252 366.312 255.207 366.261 255.178L364.983 254.439C364.932 254.411 364.853 254.409 364.807 254.436L363.702 255.075C363.654 255.102 363.658 255.147 363.708 255.176L364.986 255.915C365.037 255.943 365.116 255.944 365.163 255.918ZM368.396 254.052L369.501 253.413C369.549 253.386 369.545 253.341 369.495 253.312L368.216 252.573C368.166 252.545 368.087 252.543 368.04 252.57L366.935 253.209C366.888 253.236 366.891 253.281 366.942 253.31L368.22 254.049C368.269 254.077 368.349 254.078 368.396 254.052ZM375.79 240.249C375.84 240.277 375.92 240.279 375.966 240.252L377.071 239.613C377.118 239.586 377.115 239.541 377.065 239.512L376.724 239.315C376.674 239.286 376.594 239.284 376.548 239.312L375.443 239.95C375.397 239.978 375.399 240.023 375.45 240.052L375.79 240.249ZM367.838 245.381C367.888 245.411 367.968 245.412 368.014 245.384L369.119 244.746C369.167 244.718 369.163 244.673 369.113 244.643L367.834 243.906C367.784 243.876 367.705 243.875 367.658 243.901L366.553 244.54C366.506 244.567 366.509 244.613 366.56 244.642L367.838 245.381ZM371.07 243.515C371.121 243.544 371.199 243.546 371.246 243.518L372.352 242.88C372.399 242.852 372.396 242.807 372.345 242.777L371.067 242.039C371.016 242.01 370.937 242.008 370.891 242.035L369.784 242.674C369.737 242.701 369.74 242.747 369.791 242.775L371.07 243.515ZM365.864 246.52C365.914 246.549 365.994 246.551 366.04 246.524L367.145 245.885C367.193 245.858 367.189 245.813 367.139 245.783L365.861 245.044C365.81 245.016 365.731 245.013 365.684 245.041L364.579 245.679C364.532 245.707 364.535 245.752 364.586 245.782L365.864 246.52ZM369.454 244.447C369.505 244.476 369.584 244.478 369.63 244.451L370.735 243.812C370.783 243.785 370.779 243.74 370.729 243.711L369.451 242.972C369.4 242.942 369.321 242.941 369.274 242.969L368.169 243.607C368.122 243.635 368.125 243.68 368.176 243.71L369.454 244.447ZM362.632 248.387C362.682 248.415 362.76 248.417 362.808 248.39L363.913 247.751C363.96 247.724 363.957 247.679 363.906 247.649L362.628 246.91C362.578 246.882 362.498 246.879 362.452 246.907L361.347 247.545C361.299 247.573 361.303 247.618 361.353 247.648L362.632 248.387ZM364.248 247.453C364.298 247.482 364.376 247.484 364.424 247.456L365.529 246.818C365.576 246.79 365.573 246.745 365.523 246.716L364.244 245.978C364.194 245.949 364.116 245.947 364.068 245.974L362.963 246.613C362.916 246.64 362.919 246.686 362.97 246.715L364.248 247.453ZM372.557 242.115C372.608 242.143 372.687 242.145 372.734 242.118L373.839 241.479C373.886 241.452 373.883 241.407 373.832 241.378L373.492 241.182C373.441 241.153 373.362 241.151 373.316 241.179L372.211 241.817C372.163 241.845 372.167 241.89 372.217 241.919L372.557 242.115ZM377.406 239.315C377.456 239.344 377.535 239.346 377.582 239.318L378.687 238.68C378.735 238.652 378.731 238.607 378.681 238.578L378.341 238.381C378.29 238.353 378.211 238.351 378.164 238.378L377.059 239.017C377.012 239.044 377.015 239.089 377.066 239.119L377.406 239.315ZM380.091 240.866C380.142 240.895 380.221 240.897 380.267 240.869L381.372 240.231C381.42 240.203 381.416 240.158 381.366 240.13L380.088 239.391C380.037 239.362 379.958 239.36 379.912 239.388L378.806 240.026C378.759 240.054 378.762 240.099 378.813 240.127L380.091 240.866ZM384.131 244.966L385.237 244.327C385.284 244.3 385.281 244.255 385.23 244.226L383.952 243.487C383.901 243.459 383.822 243.457 383.776 243.484L382.67 244.123C382.623 244.15 382.626 244.195 382.677 244.224L383.955 244.963C384.006 244.991 384.085 244.994 384.131 244.966ZM374.174 241.181C374.224 241.211 374.302 241.212 374.35 241.184L375.456 240.546C375.503 240.518 375.5 240.473 375.45 240.445L375.109 240.247C375.059 240.219 374.979 240.217 374.933 240.244L373.828 240.883C373.781 240.91 373.784 240.955 373.834 240.984L374.174 241.181ZM361.015 249.319C361.066 249.349 361.145 249.35 361.192 249.322L362.297 248.684C362.344 248.656 362.341 248.611 362.29 248.581L361.012 247.843C360.961 247.814 360.882 247.812 360.836 247.839L359.73 248.478C359.682 248.505 359.685 248.551 359.736 248.579L361.015 249.319Z" fill="#27DEBF"/>
<path d="M360.229 239.299L347.016 246.931L346.95 246.897L341.963 244.012C341.104 243.517 340.553 242.317 340.741 241.348L342.612 231.66L353.621 222.754L355.823 224.031L353.963 233.719C353.776 234.688 354.315 235.888 355.174 236.383L360.229 239.299Z" fill="#455A64"/>
<path d="M347.016 246.931V249.473L340.113 245.487C338.814 244.75 337.988 242.933 338.274 241.469L340.399 230.394L342.612 231.66L340.741 241.348C340.553 242.317 341.104 243.517 341.963 244.012L346.95 246.897L347.016 246.931Z" fill="#263238"/>
<path d="M360.229 239.299L347.016 246.931L347.017 249.477L360.231 241.842L360.229 239.299Z" fill="#37474F"/>
<path d="M372.364 175.034C372.973 175.386 373.466 176.278 373.466 177.027V217.58C373.466 218.329 372.94 219.241 372.292 219.615L321.743 248.799C321.095 249.173 320.075 249.192 319.466 248.841C318.857 248.49 318.364 247.597 318.364 246.848V206.295C318.364 205.546 318.89 204.635 319.539 204.26L370.088 175.076C370.736 174.702 371.755 174.683 372.364 175.034Z" fill="#455A64"/>
<path d="M321.742 248.799C321.094 249.173 320.074 249.192 319.465 248.841C318.857 248.49 318.363 247.597 318.363 246.848V206.295C318.363 205.921 318.495 205.506 318.708 205.137L358.037 227.843L321.742 248.799Z" fill="#263238"/>
<path d="M373.465 217.58V177.027C373.465 176.277 372.939 175.975 372.291 176.349L321.742 205.533C321.094 205.907 320.567 206.819 320.567 207.568V248.121C320.567 248.871 321.094 249.174 321.742 248.799L372.291 219.615C372.94 219.241 373.465 218.329 373.465 217.58Z" fill="#37474F"/>
<path d="M370.587 178.615L322.609 206.306C322.091 206.605 321.669 207.334 321.669 207.934V243.94C321.669 244.539 322.09 244.782 322.609 244.483L370.588 216.791C371.107 216.492 371.528 215.763 371.528 215.163V179.157C371.527 178.557 371.107 178.314 370.587 178.615Z" fill="#27DEBF"/>
<path d="M303.512 309.966L275.057 293.549C274.268 293.093 273.627 291.985 273.627 291.072L273.624 273.718C273.624 272.807 274.264 271.697 275.054 271.241L294.558 259.984C295.347 259.529 296.629 259.529 297.418 259.984L325.856 276.402C326.645 276.858 327.286 277.967 327.287 278.879L327.297 296.232C327.297 297.144 326.657 298.253 325.868 298.709L306.374 309.965C305.583 310.422 304.302 310.422 303.512 309.966Z" fill="#263238"/>
<path d="M306.363 289.313L325.854 278.055C326.643 277.599 326.643 276.859 325.854 276.404L297.416 259.986C296.627 259.53 295.345 259.53 294.556 259.986L275.052 271.243C274.263 271.698 274.263 272.437 275.052 272.894L303.502 289.314C304.293 289.77 305.574 289.769 306.363 289.313Z" fill="#455A64"/>
<path d="M304.938 289.656V310.31C304.421 310.31 303.903 310.189 303.507 309.968L275.059 293.554C274.267 293.091 273.628 291.99 273.628 291.077L273.617 273.715C273.617 272.953 274.089 272.065 274.704 271.521C274.302 271.966 274.411 272.522 275.048 272.889L303.507 289.315C303.903 289.535 304.41 289.656 304.938 289.656Z" fill="#37474F"/>
<path d="M282.177 272.291C282.688 271.99 283.529 271.992 284.056 272.296L304.509 284.104C305.036 284.408 305.049 284.899 304.538 285.2C304.027 285.5 303.186 285.498 302.66 285.194L282.207 273.386C281.68 273.082 281.667 272.592 282.177 272.291Z" fill="#37474F"/>
<path d="M282.177 272.291C282.688 271.99 283.529 271.992 284.056 272.296L296.508 279.486L294.657 280.576L282.206 273.386C281.68 273.082 281.667 272.592 282.177 272.291Z" fill="#27DEBF"/>
<path d="M285.724 270.243C286.235 269.942 287.076 269.944 287.602 270.248L308.056 282.057C308.583 282.361 308.596 282.85 308.085 283.152C307.574 283.453 306.733 283.45 306.207 283.147L285.754 271.338C285.227 271.034 285.213 270.543 285.724 270.243Z" fill="#37474F"/>
<path d="M285.724 270.243C286.235 269.942 287.076 269.944 287.603 270.247L289.272 271.207L287.422 272.297L285.754 271.337C285.227 271.033 285.213 270.543 285.724 270.243Z" fill="#27DEBF"/>
<path d="M289.272 268.194C289.783 267.893 290.624 267.896 291.15 268.199L311.604 280.008C312.13 280.312 312.144 280.803 311.633 281.103C311.122 281.404 310.281 281.402 309.755 281.098L289.302 269.289C288.774 268.985 288.761 268.496 289.272 268.194Z" fill="#37474F"/>
<path d="M289.271 268.194C289.782 267.893 290.623 267.896 291.149 268.199L298.381 272.375L296.531 273.465L289.3 269.289C288.774 268.985 288.76 268.496 289.271 268.194Z" fill="#27DEBF"/>
<path d="M292.82 266.146C293.33 265.846 294.171 265.848 294.698 266.152L315.152 277.96C315.678 278.264 315.691 278.755 315.18 279.056C314.669 279.356 313.828 279.354 313.302 279.05L292.849 267.242C292.322 266.938 292.31 266.447 292.82 266.146Z" fill="#37474F"/>
<path d="M292.82 266.146C293.331 265.846 294.172 265.848 294.698 266.152L309.346 274.608L307.495 275.698L292.847 267.242C292.322 266.938 292.31 266.447 292.82 266.146Z" fill="#27DEBF"/>
<path d="M296.367 264.097C296.878 263.797 297.719 263.799 298.245 264.103L318.699 275.911C319.225 276.215 319.238 276.705 318.728 277.007C318.217 277.307 317.376 277.305 316.849 277.001L296.397 265.193C295.869 264.889 295.856 264.399 296.367 264.097Z" fill="#37474F"/>
<path d="M296.367 264.097C296.878 263.797 297.719 263.799 298.245 264.103L316.668 274.733L314.817 275.823L296.395 265.193C295.869 264.889 295.856 264.399 296.367 264.097Z" fill="#27DEBF"/>
<path d="M307.169 304.319V300.803C307.169 299.891 307.67 298.863 308.287 298.507C308.905 298.15 309.406 298.6 309.406 299.513V303.029C309.406 303.941 308.905 304.97 308.287 305.326C307.67 305.681 307.169 305.231 307.169 304.319Z" fill="#37474F"/>
<path d="M308.342 299.035C307.932 299.271 307.601 299.845 307.601 300.319C307.601 300.791 307.932 300.983 308.342 300.747C308.751 300.511 309.082 299.936 309.082 299.463C309.082 298.991 308.75 298.798 308.342 299.035Z" fill="#27DEBF"/>
<path d="M310.698 302.294V298.777C310.698 297.866 311.199 296.838 311.817 296.481C312.434 296.124 312.935 296.574 312.935 297.487V301.003C312.935 301.915 312.434 302.943 311.817 303.3C311.199 303.657 310.698 303.206 310.698 302.294Z" fill="#37474F"/>
<path d="M311.815 301.06C311.406 301.296 311.074 301.87 311.074 302.343C311.074 302.816 311.406 303.007 311.815 302.77C312.225 302.534 312.556 301.959 312.556 301.487C312.557 301.015 312.225 300.824 311.815 301.06Z" fill="#27DEBF"/>
<path d="M376.606 345.73C377.025 346.286 377.101 347.57 377.526 349.305C377.951 351.04 378.094 352.385 377.81 353.235C377.526 354.085 375.66 355.996 373.371 356.704C371.083 357.412 368.268 356.818 365.543 355.189C362.818 353.561 360.762 351.579 356.881 350.475C353 349.371 351.058 348.475 349.221 346.999C347.07 345.271 345.682 342.685 349.798 341.58C353.948 340.467 361.382 342.189 369.524 342.542L376.606 345.73Z" fill="#263238"/>
<path d="M376.606 340.641V346.74C376.606 346.74 375.768 348.768 372.291 348.898C370.17 348.977 368.625 348.006 367.677 346.688V340.641H376.606Z" fill="#FFA8A7"/>
<path d="M364.957 300.736C364.913 308.323 367.087 343.314 367.087 343.314C367.087 343.314 370.189 347.241 376.93 343.314L379.218 304.488L364.957 300.736Z" fill="#37474F"/>
<path d="M358.3 357.658C358.718 358.214 358.794 359.497 359.219 361.232C359.644 362.967 359.787 364.313 359.503 365.163C359.219 366.013 357.353 367.924 355.064 368.632C352.776 369.34 349.961 368.745 347.237 367.117C344.512 365.489 342.455 363.507 338.575 362.403C334.694 361.298 332.752 360.402 330.914 358.926C328.763 357.199 327.375 354.613 331.491 353.507C335.642 352.393 343.075 354.116 351.217 354.469L358.3 357.658Z" fill="#263238"/>
<path d="M358.3 352.567V358.666C358.3 358.666 357.462 360.694 353.984 360.824C351.864 360.902 350.318 359.932 349.37 358.614V352.567H358.3Z" fill="#FFA8A7"/>
<path d="M346.651 312.663C346.607 320.251 348.781 355.24 348.781 355.24C348.781 355.24 351.884 359.167 358.625 355.24L360.912 316.414L346.651 312.663Z" fill="#37474F"/>
<path d="M370.241 384.673C370.241 384.985 370.278 385.269 370.333 385.524C370.47 386.065 370.736 386.468 371.101 386.714L371.129 386.733C371.724 387.117 372.566 387.081 373.491 386.55C375.286 385.515 376.741 382.998 376.741 380.919C376.741 379.912 376.384 379.216 375.825 378.859L375.834 378.85L375.679 378.759H375.67C375.276 378.585 374.809 378.558 374.287 378.704C374.031 378.778 373.765 378.897 373.49 379.052C371.697 380.086 370.241 382.603 370.241 384.673Z" fill="#455A64"/>
<path d="M371.129 377.687C371.642 377.394 372.136 377.248 372.575 377.248C372.915 377.248 373.225 377.339 373.491 377.504L373.574 377.55L375.671 378.759C375.277 378.585 374.81 378.558 374.288 378.704C374.032 378.778 373.767 378.897 373.491 379.052C371.697 380.087 370.241 382.605 370.241 384.673C370.241 384.985 370.278 385.269 370.333 385.524C370.47 386.065 370.736 386.468 371.101 386.714L368.95 385.469L368.914 385.45L368.731 385.34C368.712 385.332 368.695 385.322 368.676 385.303C368.182 384.936 367.879 384.241 367.879 383.307C367.879 381.239 369.334 378.722 371.129 377.687Z" fill="#263238"/>
<path d="M405.402 365.765C405.402 366.077 405.439 366.361 405.494 366.616C405.631 367.157 405.897 367.559 406.263 367.806L406.291 367.825C406.886 368.209 407.729 368.173 408.653 367.642C410.448 366.607 411.903 364.089 411.903 362.011C411.903 361.003 411.547 360.308 410.988 359.951L410.997 359.942L410.842 359.851H410.833C410.439 359.677 409.972 359.649 409.45 359.796C409.194 359.87 408.929 359.988 408.653 360.144C406.859 361.179 405.402 363.696 405.402 365.765Z" fill="#455A64"/>
<path d="M406.291 358.78C406.804 358.487 407.298 358.34 407.737 358.34C408.075 358.34 408.388 358.432 408.653 358.597L408.736 358.642L410.833 359.851C410.439 359.677 409.972 359.649 409.45 359.796C409.194 359.869 408.928 359.988 408.653 360.144C406.859 361.178 405.403 363.696 405.403 365.765C405.403 366.076 405.44 366.361 405.495 366.616C405.632 367.156 405.898 367.559 406.264 367.806L404.113 366.561L404.077 366.542L403.894 366.432C403.875 366.423 403.858 366.413 403.839 366.396C403.345 366.029 403.043 365.333 403.043 364.4C403.041 362.332 404.496 359.814 406.291 358.78Z" fill="#263238"/>
<path d="M399.131 392.056C399.131 392.368 399.094 392.65 399.039 392.907C398.902 393.448 398.636 393.85 398.27 394.097L398.242 394.116C397.647 394.5 396.805 394.464 395.88 393.933C394.085 392.898 392.63 390.38 392.63 388.302C392.63 387.294 392.987 386.599 393.546 386.242L393.537 386.233L393.692 386.142H393.701C394.095 385.968 394.562 385.94 395.084 386.087C395.34 386.159 395.606 386.278 395.881 386.435C397.675 387.468 399.131 389.986 399.131 392.056Z" fill="#455A64"/>
<path d="M398.244 385.07C397.731 384.777 397.236 384.63 396.797 384.63C396.458 384.63 396.147 384.722 395.881 384.887L395.798 384.933L393.701 386.142C394.095 385.968 394.562 385.94 395.084 386.087C395.34 386.16 395.606 386.278 395.881 386.435C397.675 387.47 399.131 389.987 399.131 392.057C399.131 392.369 399.095 392.652 399.04 392.908C398.902 393.449 398.637 393.852 398.27 394.098L400.421 392.853L400.457 392.836L400.64 392.725C400.659 392.717 400.677 392.707 400.695 392.689C401.19 392.322 401.492 391.627 401.492 390.693C401.493 388.622 400.038 386.104 398.244 385.07Z" fill="#263238"/>
<path d="M421.956 380.875C421.956 381.187 421.92 381.471 421.865 381.726C421.727 382.267 421.462 382.67 421.096 382.916L421.069 382.934C420.473 383.318 419.631 383.282 418.706 382.751C416.911 381.716 415.456 379.198 415.456 377.12C415.456 376.113 415.813 375.417 416.372 375.06L416.363 375.051L416.518 374.96H416.527C416.921 374.786 417.388 374.758 417.91 374.905C418.167 374.979 418.432 375.098 418.706 375.253C420.499 376.289 421.956 378.807 421.956 380.875Z" fill="#455A64"/>
<path d="M421.068 373.89C420.555 373.597 420.06 373.45 419.621 373.45C419.282 373.45 418.972 373.542 418.705 373.707L418.623 373.753L416.525 374.962C416.92 374.788 417.386 374.761 417.908 374.907C418.165 374.981 418.43 375.1 418.704 375.255C420.499 376.29 421.954 378.807 421.954 380.876C421.954 381.188 421.918 381.472 421.863 381.727C421.725 382.268 421.46 382.671 421.094 382.917L423.245 381.672L423.282 381.653L423.464 381.543C423.483 381.534 423.501 381.525 423.52 381.506C424.014 381.139 424.317 380.443 424.317 379.51C424.318 377.441 422.862 374.923 421.068 373.89Z" fill="#263238"/>
<path d="M377.836 367.163C377.836 367.475 377.8 367.759 377.744 368.014C377.607 368.554 377.342 368.957 376.975 369.204L376.947 369.223C376.352 369.607 375.51 369.571 374.585 369.04C372.79 368.005 371.335 365.488 371.335 363.409C371.335 362.402 371.692 361.706 372.251 361.349L372.242 361.34L372.397 361.249H372.406C372.8 361.075 373.267 361.048 373.789 361.194C374.045 361.268 374.311 361.386 374.586 361.542C376.38 362.576 377.836 365.093 377.836 367.163Z" fill="#455A64"/>
<path d="M376.948 360.177C376.435 359.884 375.94 359.737 375.501 359.737C375.162 359.737 374.85 359.829 374.585 359.994L374.503 360.04L372.405 361.249C372.799 361.075 373.266 361.047 373.788 361.194C374.045 361.268 374.31 361.385 374.585 361.542C376.38 362.577 377.835 365.094 377.835 367.163C377.835 367.475 377.799 367.759 377.744 368.014C377.606 368.553 377.341 368.956 376.974 369.204L379.125 367.959L379.162 367.94L379.344 367.83C379.363 367.821 379.381 367.811 379.399 367.794C379.894 367.427 380.195 366.731 380.195 365.798C380.199 363.729 378.742 361.211 376.948 360.177Z" fill="#263238"/>
<path d="M397.237 360.292L408.842 356.965V359.444L397.237 366.138V360.292Z" fill="#3F5560"/>
<path d="M397.238 360.292L396.094 359.592L407.733 356.412L408.842 356.965L397.238 360.292Z" fill="#263238"/>
<path d="M392.219 367.69L375.767 361.526V359.017L392.219 360.486V367.69Z" fill="#3F5560"/>
<path d="M375.767 359.017L376.975 358.697L393.196 359.745L392.219 360.486L375.767 359.017Z" fill="#263238"/>
<path d="M391.777 366.897C391.777 368.761 397.5 368.761 397.5 366.897V350.627H391.777V366.897Z" fill="#263238"/>
<path d="M396.067 362.664L399.214 383.094H397.063L394.12 362.664C394.856 362.873 395.481 362.817 396.067 362.664Z" fill="#263238"/>
<path d="M394.119 362.664V368.273L397.062 386.552V383.092L394.119 362.664Z" fill="#3F5560"/>
<path d="M399.213 383.092H397.062V386.55H399.213V383.092Z" fill="#3F5560"/>
<path d="M393.139 368.107L371.925 379.228V375.803L393.139 362.679V368.107Z" fill="#3F5560"/>
<path d="M393.14 362.679C392.632 362.606 392.164 362.436 391.778 362.062L370.6 374.908L371.924 375.802L393.14 362.679Z" fill="#263238"/>
<path d="M371.925 379.228V375.803L370.601 374.909V378.228L371.925 379.228Z" fill="#3F5560"/>
<path d="M419.886 375.3L397.222 367.54V362.449L419.886 371.876V375.3Z" fill="#3F5560"/>
<path d="M397.222 362.449C397.407 362.399 397.486 362.069 397.5 361.569L420.557 371.6L419.886 371.876L397.222 362.449Z" fill="#263238"/>
<path d="M420.557 371.6V374.914L419.887 375.3V371.876L420.557 371.6Z" fill="#3F5560"/>
<path d="M399.485 322.283H389.794V355.838C389.794 358.623 399.485 358.623 399.485 355.838V322.283Z" fill="#521717"/>
<path d="M357.322 325.293C357.322 323.563 358.245 321.964 359.743 321.098L393.646 301.526C395.144 300.661 396.989 300.661 398.488 301.526L432.388 321.101C433.887 321.966 434.809 323.564 434.809 325.294L396.067 347.665L357.322 325.293Z" fill="#27DEBF"/>
<path d="M357.322 325.291V328.093L393.671 349.077C394.413 349.508 395.237 349.718 396.061 349.718C396.895 349.718 397.718 349.508 398.46 349.077L434.809 328.093V325.291L398.46 346.275C397.718 346.706 396.895 346.925 396.061 346.925C395.238 346.925 394.413 346.705 393.671 346.275L357.322 325.291Z" fill="#263238"/>
<path d="M357.322 325.291V328.093L393.671 349.077C394.413 349.508 395.237 349.718 396.061 349.718V346.925C395.238 346.925 394.413 346.705 393.671 346.275L357.322 325.291Z" fill="#3F5560"/>
<path opacity="0.1" d="M357.322 325.292C357.322 324.528 357.512 323.795 357.841 323.133L394.465 344.278C395.452 344.849 396.668 344.849 397.655 344.279L434.293 323.143C434.62 323.801 434.808 324.532 434.808 325.293L396.066 347.664L357.321 325.293L357.322 325.292Z" fill="black"/>
<path d="M423.081 310.032C423.081 310.032 391.632 300.542 386.165 299.046C380.698 297.55 370.211 295.029 367.146 296.402C364.081 297.775 362.525 299.366 362.243 303.788C362.186 304.619 362.243 308.665 362.243 308.665C362.243 308.665 377.444 313.37 389.897 313.37C402.352 313.369 423.081 310.032 423.081 310.032Z" fill="#263238"/>
<path d="M396.202 256.582L398.293 267.858L409.854 269.192L408.187 253.63L396.202 256.582Z" fill="#FFA8A7"/>
<path d="M385.409 247.579C385.409 247.579 383.892 252.231 384.356 252.517C384.82 252.803 386.884 252.665 386.884 252.665L385.409 247.579Z" fill="#F28F8F"/>
<path d="M388.387 232.672C386.395 234.767 384.504 238.275 385.338 247.16C386.252 256.896 389.162 259.492 390.389 260.064C392.22 260.917 398.454 259.424 400.482 257.93C403.018 256.061 407.796 251.407 409.041 245.671C410.506 238.923 408.632 231.256 403.701 229.706C396.763 227.522 390.073 230.898 388.387 232.672Z" fill="#FFA8A7"/>
<path d="M383.844 237.463C385.027 239.693 387.26 245.239 393.586 246.811C393.586 246.811 393.936 243.03 397.068 242.994C400.221 242.957 401.269 246.814 399.715 249.511C398.158 252.209 396.203 251.587 396.203 251.587C396.203 251.587 396.517 256.895 400.351 258.792C400.351 258.792 404.953 260.888 409.153 258.209C411.043 257.003 413.227 251.777 414.354 247.58C416.737 238.703 416.314 231.906 410.668 230.525C409.481 226.802 407.57 225.606 404.018 225.372C396.375 224.867 391.435 230.525 385.08 230.525C381.765 230.524 382.493 234.916 383.844 237.463Z" fill="#263238"/>
<path d="M410.527 231.156L414.353 229.518C413.9 228.461 412.677 227.972 411.62 228.424C410.564 228.876 410.074 230.099 410.527 231.156Z" fill="#263238"/>
<path d="M423.005 306.253C422.994 312.293 423.573 318.58 421.054 323.006C418.62 327.286 407.123 336.544 394.271 334.381C385.877 332.969 358.745 322.629 358.745 322.629C358.745 322.629 346.737 318.188 346.683 315.029C346.67 314.256 346.599 313.454 346.65 312.617C346.903 308.414 348.602 303.886 357.39 304.118C366.989 304.372 395.47 309.038 395.47 309.038L423.005 306.253Z" fill="#37474F"/>
<path d="M420.769 267.2C419.731 264.044 415.728 260.61 411.722 261.354C404.362 262.721 396.312 265.105 394.179 265.734L394.176 265.733C394.176 265.733 395.134 281.95 386.813 286.858L385.716 307.51C385.716 307.51 387.776 311.623 390.953 313.643C394.39 315.828 399.175 319.105 407.815 318.388C418.072 317.538 423.081 310.03 423.081 310.03C423.081 310.03 422.987 290.516 422.657 281.781C422.377 274.362 421.482 269.367 420.769 267.2Z" fill="#455A64"/>
<path d="M386.601 290.861C386.601 290.861 390.949 286.351 392.479 281.116C392.479 281.116 392.479 288.774 386.517 292.912L386.601 290.861Z" fill="#37474F"/>
<path d="M394.176 265.736C389.633 267.099 386.867 267.345 381.848 275.066C376.829 282.787 365.835 298.103 364.746 299.943C363.231 302.503 362.579 305.551 363.886 307.903C365.107 310.098 368.661 309.137 373.641 304.768C378.458 300.542 388.001 288.59 388.001 288.59C388.001 288.59 392.976 277.696 394.176 265.736Z" fill="#FFA8A7"/>
<path d="M394.176 265.736C394.176 265.736 390.126 266.583 387.609 267.815C386.835 268.194 384.281 269.173 382.644 271.893C379.132 277.727 374.112 286.032 374.112 286.032C374.112 286.032 373.254 293.265 382.037 295.785L386.708 290.744C388.613 288.69 390.204 286.361 391.363 283.812C393.343 279.462 395.599 272.558 394.176 265.736Z" fill="#455A64"/>
<path d="M365.416 308.984C361.215 308.474 351.798 295.569 348.658 291.466C345.517 287.363 342.894 284.93 340.06 283.377C337.226 281.822 334.78 279.374 334.008 274.431C333.29 269.829 337.578 266.895 341.085 271.521C343.311 274.458 345.558 276.314 345.677 275.824C345.796 275.334 344.984 273.289 345.004 271.159C345.028 268.595 346.823 270.28 347.359 271.178C347.895 272.077 348.522 273.54 349.254 275.415C350.15 277.709 349.78 280.032 350.87 281.596C351.961 283.161 366.601 297.188 366.601 297.188L365.416 308.984Z" fill="#FFA8A7"/>
<path d="M436.689 269.353V312.653L402.314 332.575V289.296L436.689 269.353Z" fill="#27DEBF"/>
<path opacity="0.1" d="M436.689 269.353V312.653L402.314 332.575V289.296L436.689 269.353Z" fill="black"/>
<path d="M399.189 330.77L402.315 332.575C402.315 332.575 402.315 298.432 402.315 292.883C402.315 291.003 402.885 290.068 403.639 289.653C406.258 288.04 409.723 291.467 409.723 291.467L409.733 288.584L442.94 269.354C439.815 267.55 437.766 266.366 431.462 269.943C425.158 273.52 406.655 284.218 403.729 286.023C401.382 287.471 399.192 289.157 399.192 293.089C399.191 299.903 399.189 330.77 399.189 330.77Z" fill="#27DEBF"/>
<path opacity="0.4" d="M403.728 286.022C406.611 284.15 425.157 273.52 431.461 269.942C437.765 266.365 439.815 267.549 442.939 269.353L409.732 288.583C408.605 287.342 406.35 285.989 403.728 286.022Z" fill="#27DEBF"/>
<path d="M409.722 291.466L442.94 272.164V269.353L409.733 288.583L409.722 291.466Z" fill="#27DEBF"/>
<path opacity="0.2" d="M409.722 291.466L442.94 272.164V269.353L409.733 288.583L409.722 291.466Z" fill="black"/>
<path d="M410.221 346.351C410.738 346.351 411.254 346.214 411.726 345.942C412.667 345.398 413.229 344.425 413.229 343.339V320.624C413.229 319.775 412.54 319.086 411.69 319.086C410.84 319.086 410.152 319.776 410.152 320.624V343.217L407.705 341.804C406.97 341.379 406.029 341.631 405.603 342.368C405.18 343.103 405.431 344.044 406.167 344.469L408.718 345.942C409.189 346.215 409.704 346.351 410.221 346.351Z" fill="#3F5560"/>
<path d="M429.015 335.398C429.532 335.398 430.048 335.263 430.52 334.991C431.461 334.447 432.022 333.474 432.022 332.387V309.673C432.022 308.823 431.333 308.134 430.483 308.134C429.633 308.134 428.945 308.823 428.945 309.673V332.266L426.498 330.853C425.763 330.428 424.822 330.68 424.396 331.416C423.973 332.152 424.224 333.093 424.96 333.518L427.511 334.991C427.982 335.262 428.498 335.398 429.015 335.398Z" fill="#3F5560"/>
</svg>
