<svg width="131" height="32" viewBox="0 0 131 32" fill="none" xmlns="http://www.w3.org/2000/svg">
<g clip-path="url(#clip0_41_6176)">
<path d="M34.2429 11.3416H47.4363V13.8031H42.2487V27.6406H39.3961V13.8031H34.2314V11.3416H34.2429ZM46.8727 15.839H49.3112V18.1165H49.3573C49.4378 17.7945 49.5873 17.4839 49.8059 17.1848C50.0244 16.8858 50.289 16.5982 50.5995 16.3566C50.9101 16.1036 51.2552 15.9081 51.6348 15.747C52.0143 15.5975 52.4054 15.517 52.7965 15.517C53.0956 15.517 53.3141 15.5285 53.4291 15.54C53.5442 15.5515 53.6592 15.5745 53.7857 15.586V18.0935C53.6017 18.059 53.4176 18.036 53.2221 18.013C53.0266 17.99 52.8425 17.9785 52.6585 17.9785C52.2214 17.9785 51.8073 18.0705 51.4162 18.2431C51.0251 18.4156 50.6915 18.6802 50.404 19.0137C50.1164 19.3588 49.8864 19.7729 49.7138 20.279C49.5413 20.7851 49.4608 21.3602 49.4608 22.0159V27.6291H46.8612V15.839H46.8727ZM65.7368 27.6406H63.1833V25.9958H63.1373C62.8152 26.5939 62.3436 27.0655 61.711 27.4221C61.0783 27.7786 60.4342 27.9627 59.7785 27.9627C58.2257 27.9627 57.0984 27.5831 56.4083 26.8124C55.7181 26.0418 55.3731 24.88 55.3731 23.3272V15.839H57.9726V23.0741C57.9726 24.1093 58.1682 24.8455 58.5708 25.2711C58.9619 25.6967 59.5255 25.9152 60.2386 25.9152C60.7908 25.9152 61.2393 25.8347 61.6074 25.6622C61.9755 25.4896 62.2746 25.2711 62.4931 24.9835C62.7232 24.7075 62.8842 24.3624 62.9877 23.9713C63.0913 23.5802 63.1373 23.1546 63.1373 22.6945V15.8505H65.7368V27.6406ZM70.1653 23.8563C70.2458 24.6155 70.5334 25.1446 71.028 25.4551C71.5341 25.7542 72.1322 25.9152 72.8339 25.9152C73.0754 25.9152 73.3515 25.8922 73.6621 25.8577C73.9726 25.8232 74.2717 25.7427 74.5363 25.6392C74.8123 25.5357 75.0309 25.3746 75.2149 25.1676C75.3874 24.9605 75.468 24.696 75.4565 24.3624C75.445 24.0288 75.3184 23.7528 75.0884 23.5457C74.8583 23.3272 74.5708 23.1661 74.2142 23.0281C73.8576 22.9016 73.455 22.7866 72.9949 22.6945C72.5348 22.6025 72.0747 22.499 71.6031 22.3955C71.12 22.2919 70.6484 22.1539 70.1998 22.0044C69.7512 21.8549 69.3486 21.6478 68.992 21.3832C68.6355 21.1302 68.3479 20.7966 68.1409 20.394C67.9223 19.9914 67.8188 19.4968 67.8188 18.8987C67.8188 18.2546 67.9798 17.7254 68.2904 17.2884C68.601 16.8513 69.0035 16.5062 69.4752 16.2416C69.9583 15.9771 70.4874 15.793 71.074 15.678C71.6606 15.5745 72.2243 15.517 72.7534 15.517C73.363 15.517 73.9496 15.586 74.5018 15.7125C75.0539 15.839 75.56 16.0461 76.0086 16.3451C76.4572 16.6327 76.8253 17.0123 77.1243 17.4724C77.4234 17.9325 77.6074 18.4961 77.688 19.1518H74.9734C74.8468 18.5306 74.5708 18.105 74.1222 17.898C73.6736 17.6794 73.156 17.5759 72.5808 17.5759C72.3968 17.5759 72.1782 17.5874 71.9252 17.6219C71.6721 17.6564 71.4421 17.7139 71.212 17.7945C70.9935 17.875 70.8094 18.0015 70.6484 18.1625C70.4989 18.3236 70.4184 18.5306 70.4184 18.7952C70.4184 19.1173 70.5334 19.3703 70.7519 19.5659C70.9705 19.7614 71.258 19.9224 71.6146 20.0605C71.9712 20.187 72.3738 20.302 72.8339 20.394C73.294 20.4861 73.7656 20.5896 74.2487 20.6931C74.7203 20.7966 75.1804 20.9347 75.6405 21.0842C76.1006 21.2337 76.5032 21.4408 76.8598 21.7053C77.2163 21.9699 77.5039 22.2919 77.7225 22.683C77.941 23.0741 78.056 23.5687 78.056 24.1439C78.056 24.8455 77.895 25.4321 77.5729 25.9267C77.2509 26.4098 76.8368 26.8124 76.3307 27.1115C75.8245 27.4106 75.2494 27.6406 74.6283 27.7786C74.0071 27.9167 73.386 27.9857 72.7764 27.9857C72.0287 27.9857 71.3386 27.9052 70.7059 27.7326C70.0733 27.5601 69.5212 27.307 69.0611 26.9735C68.601 26.6284 68.2329 26.2028 67.9683 25.6967C67.7038 25.1906 67.5657 24.5809 67.5427 23.8793H70.1653V23.8563ZM78.7462 15.839H80.7131V12.2963H83.3127V15.839H85.6592V17.783H83.3127V24.0863C83.3127 24.3624 83.3242 24.5925 83.3472 24.7995C83.3702 24.995 83.4277 25.1676 83.5082 25.3056C83.5887 25.4436 83.7153 25.5472 83.8878 25.6162C84.0603 25.6852 84.2789 25.7197 84.578 25.7197C84.762 25.7197 84.946 25.7197 85.1301 25.7082C85.3141 25.6967 85.4982 25.6737 85.6822 25.6277V27.6406C85.3946 27.6751 85.1071 27.6981 84.8425 27.7326C84.5664 27.7671 84.2904 27.7786 84.0028 27.7786C83.3127 27.7786 82.7606 27.7096 82.3465 27.5831C81.9324 27.4566 81.5988 27.261 81.3688 27.008C81.1272 26.7549 80.9777 26.4444 80.8857 26.0648C80.8051 25.6852 80.7476 25.2481 80.7361 24.765V17.806H78.7692V15.839H78.7462ZM87.4996 15.839H89.9611V17.4379H90.0071C90.3752 16.7477 90.8813 16.2646 91.537 15.9656C92.1926 15.6665 92.8943 15.517 93.6649 15.517C94.5966 15.517 95.4018 15.678 96.092 16.0116C96.7821 16.3336 97.3573 16.7822 97.8174 17.3574C98.2775 17.9325 98.611 18.5996 98.8411 19.3588C99.0711 20.118 99.1861 20.9347 99.1861 21.7973C99.1861 22.591 99.0826 23.3617 98.8756 24.0978C98.6685 24.8455 98.358 25.5012 97.9439 26.0763C97.5298 26.6514 97.0007 27.1 96.3565 27.4451C95.7124 27.7902 94.9647 27.9627 94.0905 27.9627C93.711 27.9627 93.3314 27.9282 92.9518 27.8592C92.5722 27.7902 92.2041 27.6751 91.859 27.5256C91.514 27.3761 91.1804 27.1805 90.8928 26.939C90.5938 26.6974 90.3522 26.4214 90.1452 26.1108H90.0992V32.0001H87.4996V15.839ZM96.5866 21.7513C96.5866 21.2222 96.5176 20.7046 96.3795 20.1985C96.2415 19.6924 96.0345 19.2553 95.7584 18.8642C95.4823 18.4731 95.1373 18.1625 94.7347 17.9325C94.3206 17.7024 93.849 17.5759 93.3199 17.5759C92.2271 17.5759 91.3989 17.9555 90.8468 18.7147C90.2947 19.4738 90.0186 20.4861 90.0186 21.7513C90.0186 22.3495 90.0877 22.9016 90.2372 23.4077C90.3867 23.9138 90.5938 24.3509 90.8928 24.719C91.1804 25.0871 91.5255 25.3746 91.9281 25.5817C92.3307 25.8002 92.8023 25.9037 93.3314 25.9037C93.9295 25.9037 94.4241 25.7772 94.8382 25.5357C95.2523 25.2941 95.5859 24.972 95.8504 24.5925C96.115 24.2014 96.3105 23.7643 96.4255 23.2697C96.5291 22.7751 96.5866 22.2689 96.5866 21.7513ZM101.176 11.3416H103.776V13.8031H101.176V11.3416ZM101.176 15.839H103.776V27.6406H101.176V15.839ZM106.099 11.3416H108.699V27.6406H106.099V11.3416ZM116.67 27.9627C115.727 27.9627 114.887 27.8017 114.151 27.4911C113.415 27.1805 112.794 26.7434 112.276 26.2028C111.77 25.6507 111.379 24.995 111.114 24.2359C110.85 23.4767 110.712 22.637 110.712 21.7283C110.712 20.8311 110.85 20.0029 111.114 19.2438C111.379 18.4846 111.77 17.829 112.276 17.2769C112.782 16.7247 113.415 16.2991 114.151 15.9886C114.887 15.678 115.727 15.517 116.67 15.517C117.613 15.517 118.453 15.678 119.189 15.9886C119.925 16.2991 120.546 16.7362 121.064 17.2769C121.57 17.829 121.961 18.4846 122.226 19.2438C122.49 20.0029 122.628 20.8311 122.628 21.7283C122.628 22.637 122.49 23.4767 122.226 24.2359C121.961 24.995 121.57 25.6507 121.064 26.2028C120.558 26.7549 119.925 27.1805 119.189 27.4911C118.453 27.8017 117.613 27.9627 116.67 27.9627ZM116.67 25.9037C117.245 25.9037 117.751 25.7772 118.177 25.5357C118.602 25.2941 118.947 24.972 119.224 24.5809C119.5 24.1899 119.695 23.7413 119.833 23.2467C119.96 22.752 120.029 22.2459 120.029 21.7283C120.029 21.2222 119.96 20.7276 119.833 20.2215C119.707 19.7154 119.5 19.2783 119.224 18.8872C118.947 18.4961 118.602 18.1856 118.177 17.944C117.751 17.7024 117.245 17.5759 116.67 17.5759C116.095 17.5759 115.589 17.7024 115.163 17.944C114.738 18.1856 114.392 18.5076 114.116 18.8872C113.84 19.2783 113.645 19.7154 113.507 20.2215C113.38 20.7276 113.311 21.2222 113.311 21.7283C113.311 22.2459 113.38 22.752 113.507 23.2467C113.633 23.7413 113.84 24.1899 114.116 24.5809C114.392 24.972 114.738 25.2941 115.163 25.5357C115.589 25.7887 116.095 25.9037 116.67 25.9037ZM123.387 15.839H125.354V12.2963H127.954V15.839H130.3V17.783H127.954V24.0863C127.954 24.3624 127.965 24.5925 127.988 24.7995C128.011 24.995 128.069 25.1676 128.149 25.3056C128.23 25.4436 128.357 25.5472 128.529 25.6162C128.702 25.6852 128.92 25.7197 129.219 25.7197C129.403 25.7197 129.587 25.7197 129.771 25.7082C129.955 25.6967 130.139 25.6737 130.323 25.6277V27.6406C130.036 27.6751 129.748 27.6981 129.484 27.7326C129.208 27.7671 128.932 27.7786 128.644 27.7786C127.954 27.7786 127.402 27.7096 126.988 27.5831C126.574 27.4566 126.24 27.261 126.01 27.008C125.768 26.7549 125.619 26.4444 125.527 26.0648C125.446 25.6852 125.389 25.2481 125.377 24.765V17.806H123.41V15.839H123.387Z" fill="white"/>
<path d="M31.2063 11.3415H19.2897L15.6089 0L11.9166 11.3415L0 11.33L9.65061 18.3465L5.9583 29.6765L15.6089 22.6715L25.248 29.6765L21.5672 18.3465L31.2063 11.3415Z" fill="#00B67A"/>
<path d="M22.3959 20.9115L21.5677 18.3464L15.6094 22.6714L22.3959 20.9115Z" fill="#005128"/>
</g>
<defs>
<clipPath id="clip0_41_6176">
<rect width="130.301" height="32" fill="white"/>
</clipPath>
</defs>
</svg>
