<svg width="137" height="48" viewBox="0 0 137 48" fill="none" xmlns="http://www.w3.org/2000/svg">
<g clip-path="url(#clip0_50_7471)">
<path d="M46.5282 44.1973C45.0826 44.1973 43.8517 43.9773 42.8357 43.5374C41.877 43.1402 41.0301 42.5145 40.3688 41.7147C39.7275 40.9145 39.2617 39.9883 39.0018 38.9963C38.7119 37.9046 38.5692 36.779 38.5775 35.6495V21.948H40.7144V35.3668C40.6935 36.4144 40.8367 37.4588 41.1387 38.4621C41.3783 39.2535 41.7796 39.9865 42.3172 40.6147C42.8132 41.176 43.4389 41.6076 44.1398 41.8719C45.6854 42.4166 47.3709 42.4166 48.9165 41.8719C49.6173 41.6074 50.243 41.1759 50.7392 40.6147C51.2768 39.9865 51.6781 39.2535 51.9176 38.4621C52.2196 37.4588 52.3628 36.4144 52.3419 35.3668V21.948H54.4788V35.6495C54.4871 36.779 54.3445 37.9046 54.0547 38.9963C53.7947 39.9883 53.3289 40.9145 52.6876 41.7147C52.0262 42.5143 51.1793 43.1401 50.2207 43.5374C49.2043 43.9773 47.9735 44.1973 46.5282 44.1973Z" fill="white"/>
<path d="M61.4899 28.453C61.8458 28.181 62.4168 27.8929 63.2026 27.5889C64.0937 27.2672 65.0365 27.1127 65.9837 27.1331C67.0593 27.1132 68.1263 27.3277 69.1106 27.7617C70.0034 28.1666 70.793 28.7683 71.4203 29.5215C72.0694 30.3142 72.5553 31.2273 72.8502 32.2084C73.1848 33.3136 73.3491 34.4634 73.3374 35.6181C73.3559 36.8269 73.159 38.0293 72.7559 39.1691C72.4014 40.1627 71.8451 41.0722 71.1219 41.8403C70.4158 42.5765 69.5579 43.1502 68.6078 43.5216C67.5705 43.9206 66.4666 44.1179 65.3553 44.1029C63.9096 44.1029 62.7154 44.0086 61.7727 43.8202C60.9854 43.6721 60.2085 43.4726 59.4473 43.223V19.7167L61.4899 19.3396V28.453ZM61.4899 41.8089C61.9473 41.9453 62.415 42.0451 62.8883 42.1074C63.6956 42.2135 64.5096 42.2608 65.3238 42.2488C67.0837 42.2488 68.4978 41.6779 69.5663 40.5362C70.6347 39.3945 71.169 37.7551 71.169 35.618C71.1733 34.7563 71.0784 33.8969 70.8861 33.0568C70.7204 32.303 70.411 31.5881 69.9748 30.9513C69.5485 30.3483 68.9824 29.8577 68.3249 29.5215C67.6439 29.1655 66.8007 28.9875 65.7952 28.9873C65.3306 28.9855 64.8671 29.0329 64.4125 29.1287C63.995 29.2165 63.5852 29.3373 63.1869 29.49C62.8447 29.6202 62.5137 29.7778 62.197 29.9614C61.9519 30.1041 61.7158 30.2615 61.4899 30.4328V41.8089Z" fill="white"/>
<path d="M89.8066 43.1602C89.1988 43.3282 88.3817 43.5167 87.3554 43.7259C86.1117 43.9543 84.8487 44.0595 83.5844 44.0401C82.369 44.0401 81.3529 43.8621 80.5361 43.5059C79.7584 43.1801 79.0768 42.6608 78.5562 41.9975C78.0302 41.2986 77.6605 40.4948 77.4721 39.6406C77.2435 38.6409 77.1327 37.6178 77.1422 36.5923V27.4789H79.1847V35.9324C79.169 36.9126 79.2533 37.8919 79.4361 38.855C79.6036 39.6514 79.8759 40.2956 80.2532 40.7877C80.6269 41.2775 81.1344 41.6486 81.7145 41.8561C82.4176 42.0929 83.1569 42.2046 83.8986 42.1861C84.7393 42.1942 85.5795 42.1417 86.4126 42.0289C87.1247 41.9243 87.5751 41.8301 87.7639 41.7462V27.4789H89.8066L89.8066 43.1602Z" fill="white"/>
<path d="M94.6328 28.0446C95.2402 27.8771 96.0572 27.6885 97.0839 27.4788C98.3276 27.2504 99.5907 27.1452 100.855 27.1646C102.091 27.1646 103.123 27.3427 103.95 27.6989C104.734 28.0215 105.418 28.5477 105.93 29.223C106.444 29.9311 106.803 30.7396 106.983 31.5956C107.201 32.5969 107.306 33.6193 107.297 34.6438V43.7259H105.255V35.3039C105.269 34.3244 105.19 33.3457 105.019 32.3812C104.902 31.6825 104.633 31.0176 104.233 30.4328C103.872 29.934 103.368 29.5561 102.788 29.3486C102.191 29.1288 101.442 29.0188 100.541 29.0187C99.7053 29.0103 98.8703 29.0629 98.0425 29.1759C97.3403 29.2809 96.8846 29.3751 96.6754 29.4587V43.7259H94.6328V28.0446Z" fill="white"/>
<path d="M113.906 27.4788H120.38V29.2072H113.906V37.8493C113.888 38.6053 113.967 39.3605 114.142 40.0962C114.256 40.5895 114.488 41.0478 114.818 41.4318C115.104 41.7422 115.476 41.9609 115.886 42.0603C116.339 42.1691 116.803 42.2219 117.269 42.2174C118.128 42.2174 118.819 42.1179 119.343 41.9189C119.765 41.7663 120.174 41.5825 120.568 41.3689L121.071 43.066C120.778 43.2545 120.264 43.4692 119.531 43.7101C118.76 43.9568 117.953 44.0788 117.143 44.0716C116.137 44.0716 115.294 43.9406 114.613 43.6788C113.967 43.4425 113.401 43.0286 112.979 42.4846C112.545 41.8927 112.25 41.2106 112.115 40.489C111.935 39.5573 111.85 38.6096 111.864 37.6607V22.7022L113.906 22.3251V27.4788Z" fill="white"/>
<path d="M136.218 43.1602C135.61 43.3282 134.793 43.5167 133.766 43.7259C132.523 43.9543 131.26 44.0595 129.996 44.0401C128.78 44.0401 127.764 43.8621 126.947 43.5059C126.169 43.1801 125.488 42.6608 124.967 41.9975C124.441 41.2986 124.072 40.4948 123.883 39.6406C123.655 38.6409 123.544 37.6178 123.553 36.5923V27.4789H125.596V35.9324C125.58 36.9126 125.664 37.8919 125.847 38.855C126.015 39.6514 126.287 40.2956 126.664 40.7877C127.038 41.2775 127.546 41.6486 128.126 41.8561C128.829 42.0929 129.568 42.2046 130.31 42.1861C131.15 42.1942 131.991 42.1417 132.824 42.0289C133.536 41.9243 133.986 41.8301 134.175 41.7462V27.4789H136.218V43.1602Z" fill="white"/>
<path d="M31.1671 0H0V48H31.1671V0Z" fill="#E9500E"/>
<path d="M6.79718 34.953C8.60359 34.953 10.068 33.4886 10.068 31.6822C10.068 29.8758 8.60359 28.4114 6.79718 28.4114C4.99076 28.4114 3.52637 29.8758 3.52637 31.6822C3.52637 33.4886 4.99076 34.953 6.79718 34.953Z" fill="white"/>
<path d="M20.4192 27.781C22.2257 27.781 23.6901 26.3166 23.6901 24.5102C23.6901 22.7038 22.2257 21.2394 20.4192 21.2394C18.6128 21.2394 17.1484 22.7038 17.1484 24.5102C17.1484 26.3166 18.6128 27.781 20.4192 27.781Z" fill="white"/>
<path d="M14.174 40.1C13.018 39.8555 11.9308 39.357 10.9913 38.6404C10.0517 37.9239 9.28338 37.0073 8.74189 35.957C7.86664 36.3544 6.89074 36.4743 5.94531 36.3008C6.59922 37.9176 7.64029 39.3491 8.977 40.4694C10.3137 41.5897 11.9051 42.3645 13.6114 42.7257C14.3747 42.8893 15.1534 42.9694 15.934 42.9647C15.3335 42.1774 14.9983 41.22 14.9763 40.2301C14.707 40.2002 14.4379 40.1564 14.174 40.1Z" fill="white"/>
<path d="M19.6829 43.3888C21.4893 43.3888 22.9537 41.9244 22.9537 40.118C22.9537 38.3116 21.4893 36.8472 19.6829 36.8472C17.8765 36.8472 16.4121 38.3116 16.4121 40.118C16.4121 41.9244 17.8765 43.3888 19.6829 43.3888Z" fill="white"/>
<path d="M24.2341 38.9167C25.6362 37.1478 26.4431 34.981 26.5394 32.7259C26.6357 30.4708 26.0165 28.243 24.7703 26.3611C24.3925 27.2507 23.7505 28.0027 22.931 28.5152C23.5854 29.7504 23.9054 31.1353 23.8594 32.5324C23.8134 33.9295 23.403 35.2903 22.6689 36.4798C23.4347 37.1067 23.9825 37.9596 24.2341 38.9167Z" fill="white"/>
<path d="M6.54492 26.9916C6.62793 26.987 6.71099 26.9848 6.79408 26.9848C7.67044 26.9854 8.52933 27.23 9.27455 27.6912C9.99557 26.6497 10.9542 25.7949 12.0712 25.1976C13.1881 24.6002 14.4313 24.2774 15.6978 24.2559C15.7507 23.2913 16.0969 22.3658 16.6901 21.6033C14.6626 21.4502 12.6332 21.8752 10.8375 22.8289C9.04183 23.7826 7.55339 25.226 6.54492 26.9916Z" fill="white"/>
</g>
<defs>
<clipPath id="clip0_50_7471">
<rect width="136.218" height="48" fill="white"/>
</clipPath>
</defs>
</svg>
