<svg width="160" height="48" viewBox="0 0 160 48" fill="none" xmlns="http://www.w3.org/2000/svg">
<g clip-path="url(#clip0_50_7450)">
<mask id="mask0_50_7450" style="mask-type:luminance" maskUnits="userSpaceOnUse" x="0" y="17" width="160" height="23">
<path d="M160 17.432H0V40H160V17.432Z" fill="white"/>
</mask>
<g mask="url(#mask0_50_7450)">
<path fill-rule="evenodd" clip-rule="evenodd" d="M0 20.65L9.1982 19.3874V28.2751H0M10.3061 19.2119L22.493 17.432V28.2009H10.3061M0 29.2161H9.1982V38.1293L0 36.8412M10.3061 29.3345H22.493V40L10.3061 38.274" fill="white"/>
<path fill-rule="evenodd" clip-rule="evenodd" d="M46.4851 22.1555L42.7505 35.4264H40.9338L38.2137 25.7274C38.0967 25.3143 38.0262 24.8637 38.0015 24.3763H37.9647C37.928 24.8329 37.8478 25.2775 37.7248 25.7094L34.9867 35.4264H33.188L29.3154 22.1555H31.0211L33.8335 32.3351C33.9505 32.761 34.0247 33.2056 34.0554 33.6682H34.1012C34.1319 33.3413 34.2271 32.8967 34.3868 32.3351L37.3102 22.1555H38.7947L41.5981 32.4093C41.6963 32.761 41.7698 33.1748 41.8193 33.6494H41.856C41.8808 33.3285 41.964 32.9027 42.1049 32.3726L44.8071 22.1555H46.4851Z" fill="white"/>
<path fill-rule="evenodd" clip-rule="evenodd" d="M48.8007 23.529C48.5337 23.529 48.3058 23.4368 48.1176 23.2516C47.9287 23.0657 47.835 22.831 47.835 22.5469C47.835 22.2627 47.9287 22.028 48.1176 21.8428C48.3058 21.6516 48.5337 21.5557 48.8007 21.5557C49.0736 21.5557 49.3045 21.6516 49.4927 21.8428C49.6869 22.028 49.7844 22.2627 49.7844 22.5469C49.7844 22.819 49.6869 23.0507 49.4927 23.2419C49.3045 23.4338 49.0736 23.529 48.8007 23.529ZM49.5294 35.4263H48.0352V25.938H49.5294V35.4263Z" fill="white"/>
<path fill-rule="evenodd" clip-rule="evenodd" d="M60.2058 35.4264H58.701V30.0363C58.701 28.0307 57.9737 27.0282 56.5177 27.0282C55.7657 27.0282 55.1418 27.3139 54.6463 27.886C54.1574 28.4521 53.913 29.1688 53.913 30.0363V35.4264H52.4082V25.9756H53.913V27.5448H53.9497C54.659 26.3512 55.6862 25.7544 57.032 25.7544C58.0592 25.7544 58.8449 26.0895 59.3893 26.7606C59.9336 27.4249 60.2058 28.3876 60.2058 29.6487V35.4264Z" fill="white"/>
<path fill-rule="evenodd" clip-rule="evenodd" d="M70.9278 35.4294H69.417V33.8196H69.3802C68.68 35.041 67.5988 35.6513 66.1367 35.6513C64.9514 35.6513 64.0029 35.2292 63.2899 34.3842C62.5836 33.5332 62.2305 32.3763 62.2305 30.915C62.2305 29.3488 62.6233 28.0937 63.4098 27.1505C64.1956 26.2065 65.243 25.7349 66.5514 25.7349C67.8477 25.7349 68.7902 26.247 69.3802 27.2704H69.417V21.4058H70.9278V35.4294ZM69.417 31.1467V29.7499C69.417 28.9851 69.1651 28.3373 68.6612 27.8073C68.1574 27.2764 67.5186 27.0118 66.7448 27.0118C65.8233 27.0118 65.0991 27.3507 64.5705 28.0292C64.0426 28.7077 63.778 29.6449 63.778 30.8408C63.778 31.9325 64.0299 32.7962 64.5337 33.4313C65.0436 34.0603 65.7251 34.3745 66.5791 34.3745C67.4203 34.3745 68.1026 34.0693 68.6245 33.459C69.1531 32.8487 69.417 32.0779 69.417 31.1467Z" fill="white"/>
<path fill-rule="evenodd" clip-rule="evenodd" d="M77.7331 35.6513C76.3258 35.6513 75.2011 35.2112 74.3576 34.331C73.5209 33.4447 73.1025 32.2721 73.1025 30.8138C73.1025 29.2258 73.5397 27.9857 74.4139 27.0927C75.2874 26.2005 76.4682 25.7544 77.9558 25.7544C79.3751 25.7544 80.4817 26.1885 81.2757 27.056C82.075 27.9242 82.4746 29.1276 82.4746 30.6661C82.4746 32.1739 82.0442 33.3833 81.1828 34.2942C80.3273 35.1992 79.1771 35.6513 77.7331 35.6513ZM77.8448 27.0282C76.8649 27.0282 76.0904 27.3611 75.5198 28.0254C74.95 28.6837 74.6643 29.5947 74.6643 30.7583C74.6643 31.8785 74.953 32.7617 75.5295 33.408C76.1054 34.0543 76.8776 34.3774 77.8448 34.3774C78.83 34.3774 79.5865 34.0603 80.1136 33.426C80.6459 32.7924 80.9129 31.8905 80.9129 30.7216C80.9129 29.54 80.6459 28.629 80.1136 27.9887C79.5865 27.3484 78.83 27.0282 77.8448 27.0282Z" fill="white"/>
<path fill-rule="evenodd" clip-rule="evenodd" d="M96.5697 25.9794L93.7243 35.4264H92.1491L90.1937 28.6643C90.1194 28.4056 90.07 28.1132 90.0452 27.7878H90.0085C89.9897 28.009 89.9253 28.2947 89.8135 28.6455L87.6917 35.4264H86.1719L83.2988 25.9794H84.8928L86.8572 33.0834C86.9194 33.2986 86.9622 33.5812 86.9869 33.9321H87.0612C87.0799 33.6615 87.1354 33.3721 87.2284 33.0647L89.4154 25.9794H90.8055L92.7699 33.1014C92.8321 33.3293 92.8778 33.612 92.9093 33.9501H92.9828C92.9955 33.7102 93.048 33.4275 93.141 33.1014L95.0686 25.9794H96.5697Z" fill="white"/>
<path fill-rule="evenodd" clip-rule="evenodd" d="M97.4697 35.0882V33.4635C98.2982 34.0723 99.2107 34.3774 100.206 34.3774C101.542 34.3774 102.21 33.9343 102.21 33.0481C102.21 32.7954 102.151 32.5833 102.034 32.4108C101.922 32.2324 101.767 32.0757 101.569 31.94C101.378 31.8043 101.149 31.6843 100.883 31.5801C100.623 31.4691 100.342 31.3551 100.039 31.2382C99.6186 31.0725 99.2474 30.906 98.9258 30.7396C98.6109 30.5671 98.3447 30.3767 98.1288 30.1675C97.9181 29.9523 97.7576 29.7087 97.6459 29.438C97.541 29.1673 97.4885 28.8502 97.4885 28.4873C97.4885 28.0442 97.5904 27.6528 97.7944 27.3147C97.9983 26.9698 98.2705 26.6841 98.6109 26.4562C98.9505 26.2222 99.3374 26.0468 99.77 25.9298C100.209 25.8129 100.661 25.7544 101.124 25.7544C101.947 25.7544 102.683 25.8961 103.332 26.1788V27.7113C102.633 27.2562 101.829 27.0282 100.92 27.0282C100.636 27.0282 100.38 27.062 100.15 27.1302C99.9215 27.1917 99.7235 27.2809 99.5571 27.3979C99.3959 27.5148 99.2692 27.6565 99.1762 27.8222C99.09 27.9827 99.0465 28.1611 99.0465 28.3576C99.0465 28.6043 99.09 28.8104 99.1762 28.9761C99.2692 29.1426 99.4019 29.2903 99.5751 29.4192C99.7483 29.549 99.9582 29.6659 100.206 29.7701C100.453 29.8751 100.735 29.9891 101.05 30.112C101.47 30.2717 101.848 30.4382 102.182 30.6106C102.516 30.7763 102.8 30.9675 103.035 31.1827C103.27 31.3919 103.449 31.6356 103.573 31.9122C103.703 32.1889 103.768 32.5188 103.768 32.9004C103.768 33.3675 103.663 33.7739 103.452 34.1188C103.248 34.4637 102.973 34.7493 102.627 34.9773C102.281 35.2052 101.881 35.3746 101.431 35.4849C100.979 35.5958 100.506 35.6513 100.011 35.6513C99.0345 35.6513 98.1873 35.4639 97.4697 35.0882Z" fill="white"/>
<path fill-rule="evenodd" clip-rule="evenodd" d="M110.365 34.8917V33.0593C110.574 33.2445 110.824 33.411 111.113 33.5587C111.409 33.7071 111.716 33.8338 112.036 33.9388C112.363 34.037 112.689 34.1142 113.015 34.1697C113.341 34.2252 113.642 34.2529 113.92 34.2529C114.874 34.2529 115.584 34.0775 116.052 33.7259C116.526 33.3675 116.763 32.8554 116.763 32.1888C116.763 31.8304 116.683 31.5193 116.523 31.2539C116.369 30.9885 116.153 30.7478 115.877 30.5311C115.599 30.3092 115.27 30.0992 114.889 29.902C114.513 29.6981 114.107 29.4852 113.67 29.2633C113.208 29.0286 112.778 28.7909 112.378 28.5502C111.978 28.3096 111.63 28.0441 111.335 27.754C111.039 27.4638 110.805 27.1369 110.633 26.7725C110.466 26.4021 110.384 25.9703 110.384 25.4762C110.384 24.8719 110.516 24.347 110.781 23.9024C111.045 23.4518 111.393 23.0814 111.824 22.7913C112.255 22.5011 112.744 22.2852 113.292 22.1435C113.846 22.0018 114.409 21.9305 114.982 21.9305C116.286 21.9305 117.237 22.088 117.834 22.4029V24.1528C117.052 23.6093 116.048 23.3379 114.824 23.3379C114.486 23.3379 114.147 23.3746 113.809 23.4488C113.47 23.517 113.169 23.631 112.904 23.7915C112.639 23.9519 112.424 24.1588 112.258 24.4115C112.092 24.6649 112.009 24.9731 112.009 25.3375C112.009 25.6771 112.07 25.9703 112.193 26.217C112.323 26.4636 112.51 26.6893 112.756 26.8932C113.003 27.0964 113.301 27.2944 113.652 27.4856C114.009 27.6767 114.418 27.8867 114.88 28.1154C115.353 28.3493 115.803 28.5967 116.228 28.8554C116.652 29.1148 117.025 29.402 117.344 29.7169C117.664 30.0318 117.917 30.3804 118.101 30.7628C118.293 31.1459 118.388 31.5838 118.388 32.0779C118.388 32.7317 118.258 33.2872 118 33.7439C117.747 34.1945 117.403 34.5618 116.966 34.846C116.535 35.1294 116.036 35.3334 115.47 35.4571C114.904 35.5868 114.307 35.6513 113.679 35.6513C113.47 35.6513 113.212 35.6325 112.904 35.5958C112.597 35.565 112.282 35.5155 111.962 35.4473C111.642 35.3858 111.338 35.3086 111.048 35.2164C110.766 35.1174 110.538 35.0095 110.365 34.8917Z" fill="white"/>
<path fill-rule="evenodd" clip-rule="evenodd" d="M128.21 31.0815H121.533C121.558 32.1342 121.841 32.9462 122.382 33.519C122.924 34.091 123.67 34.3774 124.617 34.3774C125.683 34.3774 126.662 34.0266 127.554 33.3248V34.7463C126.724 35.3499 125.624 35.6513 124.258 35.6513C122.921 35.6513 121.872 35.2232 121.108 34.3677C120.345 33.5062 119.963 32.2968 119.963 30.7396C119.963 29.2685 120.378 28.0719 121.21 27.1482C122.047 26.2192 123.084 25.7544 124.322 25.7544C125.56 25.7544 126.517 26.1548 127.194 26.9548C127.871 27.7548 128.21 28.8659 128.21 30.2875V31.0815ZM126.659 29.7979C126.652 28.9244 126.44 28.2444 126.022 27.7578C125.609 27.2712 125.034 27.0282 124.294 27.0282C123.581 27.0282 122.974 27.2839 122.475 27.7945C121.976 28.3058 121.669 28.9731 121.552 29.7979H126.659Z" fill="white"/>
<path fill-rule="evenodd" clip-rule="evenodd" d="M135.183 27.5238C134.917 27.3214 134.534 27.2202 134.034 27.2202C133.385 27.2202 132.841 27.5238 132.403 28.1319C131.97 28.7399 131.754 29.5684 131.754 30.6188V35.4263H130.234V25.995H131.754V27.9384H131.792C132.008 27.2756 132.337 26.7598 132.783 26.3909C133.227 26.0168 133.725 25.8293 134.275 25.8293C134.67 25.8293 134.973 25.8721 135.183 25.9583V27.5238Z" fill="white"/>
<path fill-rule="evenodd" clip-rule="evenodd" d="M144.03 25.9794L140.258 35.4264H138.77L135.183 25.9794H136.846L139.25 32.8435C139.429 33.3473 139.54 33.7874 139.583 34.1623H139.62C139.681 33.6892 139.78 33.2611 139.916 32.8802L142.431 25.9794H144.03Z" fill="white"/>
<path fill-rule="evenodd" clip-rule="evenodd" d="M153.027 31.0815H146.349C146.374 32.1342 146.657 32.9462 147.199 33.519C147.741 34.091 148.486 34.3774 149.434 34.3774C150.499 34.3774 151.478 34.0266 152.371 33.3248V34.7463C151.54 35.3499 150.441 35.6513 149.074 35.6513C147.738 35.6513 146.688 35.2232 145.925 34.3677C145.161 33.5062 144.779 32.2968 144.779 30.7396C144.779 29.2685 145.195 28.0719 146.026 27.1482C146.864 26.2192 147.901 25.7544 149.138 25.7544C150.376 25.7544 151.334 26.1548 152.011 26.9548C152.689 27.7548 153.027 28.8659 153.027 30.2875V31.0815ZM151.475 29.7979C151.469 28.9244 151.257 28.2444 150.838 27.7578C150.425 27.2712 149.85 27.0282 149.111 27.0282C148.397 27.0282 147.79 27.2839 147.292 27.7945C146.793 28.3058 146.485 28.9731 146.368 29.7979H151.475Z" fill="white"/>
<path fill-rule="evenodd" clip-rule="evenodd" d="M160 27.5238C159.735 27.3214 159.352 27.2202 158.851 27.2202C158.202 27.2202 157.659 27.5238 157.22 28.1319C156.787 28.7399 156.572 29.5684 156.572 30.6188V35.4263H155.052V25.995H156.572V27.9384H156.608C156.825 27.2756 157.156 26.7598 157.6 26.3909C158.045 26.0168 158.542 25.8293 159.092 25.8293C159.487 25.8293 159.79 25.8721 160 25.9583V27.5238Z" fill="white"/>
</g>
</g>
<defs>
<clipPath id="clip0_50_7450">
<rect width="160" height="22.5679" fill="white" transform="translate(0 17.432)"/>
</clipPath>
</defs>
</svg>
